<ttFont>
    <TTGlyph name="A" xMin="82" yMin="-139" xMax="1798" yMax="1715">
      <contour>
        <pt x="400" y="-76" on="1"/>
        <pt x="400" y="-113" on="0"/>
        <pt x="360" y="-113" on="1"/>
        <pt x="331" y="-113" on="0"/>
        <pt x="286" y="-73" on="0"/>
        <pt x="211" y="-41" on="0"/>
        <pt x="174" y="-26" on="1"/>
        <pt x="82" y="11" on="0"/>
        <pt x="82" y="52" on="0"/>
        <pt x="147" y="95" on="0"/>
        <pt x="195" y="108" on="0"/>
        <pt x="217" y="117" on="1"/>
        <pt x="265" y="137" on="0"/>
        <pt x="306" y="210" on="1"/>
        <pt x="378" y="347" on="0"/>
        <pt x="557" y="736" on="1"/>
        <pt x="365" y="736" on="1"/>
        <pt x="330" y="736" on="0"/>
        <pt x="291" y="729" on="0"/>
        <pt x="240" y="689" on="0"/>
        <pt x="196" y="645" on="0"/>
        <pt x="157" y="610" on="0"/>
        <pt x="139" y="610" on="1"/>
        <pt x="95" y="610" on="0"/>
        <pt x="112" y="681" on="1"/>
        <pt x="125" y="735" on="0"/>
        <pt x="125" y="806" on="1"/>
        <pt x="120" y="888" on="1"/>
        <pt x="120" y="963" on="0"/>
        <pt x="158" y="963" on="1"/>
        <pt x="178" y="963" on="0"/>
        <pt x="202" y="933" on="1"/>
        <pt x="287" y="823" on="0"/>
        <pt x="332" y="823" on="1"/>
        <pt x="595" y="818" on="1"/>
        <pt x="891" y="1465" on="0"/>
        <pt x="942" y="1637" on="0"/>
        <pt x="942" y="1687" on="1"/>
        <pt x="942" y="1701" on="0"/>
        <pt x="973" y="1715" on="0"/>
        <pt x="988" y="1715" on="1"/>
        <pt x="1024" y="1715" on="0"/>
        <pt x="1049" y="1636" on="0"/>
        <pt x="1110" y="1454" on="0"/>
        <pt x="1150" y="1336" on="1"/>
        <pt x="1265" y="998" on="0"/>
        <pt x="1330" y="814" on="1"/>
        <pt x="1521" y="810" on="0"/>
        <pt x="1579" y="840" on="0"/>
        <pt x="1600" y="857" on="1"/>
        <pt x="1640" y="888" on="0"/>
        <pt x="1679" y="945" on="0"/>
        <pt x="1703" y="953" on="0"/>
        <pt x="1714" y="953" on="1"/>
        <pt x="1765" y="953" on="0"/>
        <pt x="1746" y="886" on="1"/>
        <pt x="1726" y="820" on="0"/>
        <pt x="1724" y="705" on="0"/>
        <pt x="1722" y="628" on="0"/>
        <pt x="1709" y="582" on="0"/>
        <pt x="1685" y="582" on="1"/>
        <pt x="1677" y="582" on="0"/>
        <pt x="1652" y="597" on="0"/>
        <pt x="1647" y="609" on="1"/>
        <pt x="1620" y="668" on="1"/>
        <pt x="1592" y="726" on="0"/>
        <pt x="1532" y="736" on="1"/>
        <pt x="1358" y="736" on="1"/>
        <pt x="1557" y="174" on="0"/>
        <pt x="1616" y="120" on="1"/>
        <pt x="1635" y="103" on="0"/>
        <pt x="1679" y="87" on="0"/>
        <pt x="1710" y="74" on="0"/>
        <pt x="1742" y="64" on="0"/>
        <pt x="1754" y="59" on="1"/>
        <pt x="1798" y="40" on="0"/>
        <pt x="1765" y="8" on="1"/>
        <pt x="1753" y="-4" on="0"/>
        <pt x="1620" y="-52" on="0"/>
        <pt x="1596" y="-62" on="1"/>
        <pt x="1482" y="-116" on="1"/>
        <pt x="1420" y="-139" on="0"/>
        <pt x="1420" y="-96" on="1"/>
        <pt x="1420" y="-65" on="0"/>
        <pt x="1436" y="-35" on="0"/>
        <pt x="1453" y="9" on="0"/>
        <pt x="1462" y="35" on="1"/>
        <pt x="1488" y="115" on="0"/>
        <pt x="1480" y="145" on="1"/>
        <pt x="1443" y="235" on="0"/>
        <pt x="1264" y="736" on="1"/>
        <pt x="658" y="736" on="1"/>
        <pt x="494" y="384" on="0"/>
        <pt x="350" y="89" on="1"/>
        <pt x="342" y="68" on="0"/>
        <pt x="356" y="39" on="1"/>
        <pt x="400" y="-45" on="0"/>
      </contour>
      <contour>
        <pt x="695" y="817" on="1"/>
        <pt x="963" y="813" on="0"/>
        <pt x="1237" y="813" on="1"/>
        <pt x="1099" y="1202" on="1"/>
        <pt x="1003" y="1472" on="0"/>
        <pt x="993" y="1499" on="1"/>
        <pt x="910" y="1282" on="0"/>
      </contour>
    </TTGlyph>
    <TTGlyph name="AE" xMin="-10" yMin="-284" xMax="1839" yMax="1643">
      <contour>
        <pt x="319" y="155" on="1"/>
        <pt x="316" y="146" on="0"/>
        <pt x="316" y="107" on="0"/>
        <pt x="346" y="-40" on="1"/>
        <pt x="356" y="-92" on="0"/>
        <pt x="309" y="-92" on="1"/>
        <pt x="278" y="-92" on="0"/>
        <pt x="243" y="-54" on="0"/>
        <pt x="194" y="-23" on="0"/>
        <pt x="164" y="-6" on="1"/>
        <pt x="101" y="31" on="0"/>
        <pt x="69" y="46" on="1"/>
        <pt x="-10" y="82" on="0"/>
        <pt x="20" y="114" on="1"/>
        <pt x="62" y="158" on="0"/>
        <pt x="136" y="164" on="1"/>
        <pt x="136" y="163" on="1"/>
        <pt x="172" y="167" on="0"/>
        <pt x="254" y="241" on="1"/>
        <pt x="283" y="268" on="0"/>
        <pt x="377" y="403" on="1"/>
        <pt x="566" y="679" on="0"/>
        <pt x="620" y="759" on="1"/>
        <pt x="382" y="759" on="0"/>
        <pt x="334" y="749" on="0"/>
        <pt x="289" y="714" on="0"/>
        <pt x="269" y="695" on="1"/>
        <pt x="218" y="647" on="0"/>
        <pt x="195" y="647" on="1"/>
        <pt x="166" y="647" on="0"/>
        <pt x="166" y="683" on="1"/>
        <pt x="166" y="683" on="0"/>
        <pt x="182" y="836" on="1"/>
        <pt x="177" y="912" on="1"/>
        <pt x="177" y="981" on="0"/>
        <pt x="212" y="981" on="1"/>
        <pt x="230" y="981" on="0"/>
        <pt x="267" y="936" on="1"/>
        <pt x="343" y="844" on="0"/>
        <pt x="371" y="844" on="1"/>
        <pt x="379" y="844" on="0"/>
        <pt x="679" y="836" on="1"/>
        <pt x="972" y="1266" on="0"/>
        <pt x="1048" y="1426" on="1"/>
        <pt x="992" y="1488" on="1"/>
        <pt x="921" y="1552" on="1"/>
        <pt x="919" y="1556" on="0"/>
        <pt x="919" y="1565" on="1"/>
        <pt x="919" y="1593" on="0"/>
        <pt x="966" y="1593" on="1"/>
        <pt x="994" y="1593" on="0"/>
        <pt x="1054" y="1602" on="1"/>
        <pt x="1141" y="1614" on="1"/>
        <pt x="1230" y="1627" on="0"/>
        <pt x="1230" y="1588" on="1"/>
        <pt x="1229" y="1565" on="0"/>
        <pt x="1200" y="1529" on="0"/>
        <pt x="1173" y="1490" on="0"/>
        <pt x="1162" y="1460" on="0"/>
        <pt x="1160" y="1444" on="1"/>
        <pt x="1157" y="1427" on="0"/>
        <pt x="1154" y="1374" on="1"/>
        <pt x="1247" y="1394" on="0"/>
        <pt x="1464" y="1442" on="0"/>
        <pt x="1574" y="1484" on="1"/>
        <pt x="1613" y="1500" on="0"/>
        <pt x="1674" y="1606" on="1"/>
        <pt x="1696" y="1643" on="0"/>
        <pt x="1746" y="1643" on="0"/>
        <pt x="1764" y="1599" on="0"/>
        <pt x="1770" y="1564" on="1"/>
        <pt x="1787" y="1453" on="0"/>
        <pt x="1833" y="1372" on="0"/>
        <pt x="1833" y="1335" on="0"/>
        <pt x="1811" y="1321" on="0"/>
        <pt x="1790" y="1321" on="0"/>
        <pt x="1774" y="1332" on="1"/>
        <pt x="1672" y="1400" on="0"/>
        <pt x="1556" y="1384" on="0"/>
        <pt x="1427" y="1354" on="0"/>
        <pt x="1364" y="1336" on="1"/>
        <pt x="1148" y="1275" on="1"/>
        <pt x="1128" y="830" on="1"/>
        <pt x="1351" y="831" on="1"/>
        <pt x="1543" y="832" on="1"/>
        <pt x="1624" y="832" on="0"/>
        <pt x="1686" y="917" on="1"/>
        <pt x="1694" y="929" on="0"/>
        <pt x="1724" y="948" on="0"/>
        <pt x="1734" y="948" on="1"/>
        <pt x="1780" y="948" on="0"/>
        <pt x="1763" y="887" on="1"/>
        <pt x="1739" y="803" on="0"/>
        <pt x="1739" y="692" on="1"/>
        <pt x="1741" y="650" on="1"/>
        <pt x="1741" y="633" on="0"/>
        <pt x="1724" y="600" on="0"/>
        <pt x="1712" y="600" on="1"/>
        <pt x="1690" y="600" on="0"/>
        <pt x="1672" y="625" on="1"/>
        <pt x="1630" y="686" on="1"/>
        <pt x="1603" y="724" on="0"/>
        <pt x="1585" y="732" on="1"/>
        <pt x="1545" y="748" on="0"/>
        <pt x="1442" y="748" on="1"/>
        <pt x="1195" y="745" on="1"/>
        <pt x="1124" y="746" on="1"/>
        <pt x="1104" y="204" on="1"/>
        <pt x="1178" y="167" on="0"/>
        <pt x="1547" y="13" on="0"/>
        <pt x="1618" y="-20" on="0"/>
        <pt x="1648" y="-20" on="0"/>
        <pt x="1723" y="9" on="0"/>
        <pt x="1754" y="20" on="1"/>
        <pt x="1801" y="35" on="0"/>
        <pt x="1815" y="35" on="1"/>
        <pt x="1839" y="35" on="0"/>
        <pt x="1839" y="-16" on="0"/>
        <pt x="1811" y="-65" on="0"/>
        <pt x="1790" y="-94" on="1"/>
        <pt x="1730" y="-177" on="0"/>
        <pt x="1715" y="-220" on="1"/>
        <pt x="1691" y="-284" on="0"/>
        <pt x="1664" y="-284" on="1"/>
        <pt x="1630" y="-284" on="0"/>
        <pt x="1612" y="-192" on="1"/>
        <pt x="1595" y="-109" on="0"/>
        <pt x="1523" y="-69" on="0"/>
        <pt x="1404" y="-15" on="0"/>
        <pt x="1338" y="12" on="1"/>
        <pt x="1213" y="64" on="0"/>
        <pt x="1100" y="107" on="1"/>
        <pt x="1100" y="84" on="1"/>
        <pt x="1100" y="31" on="0"/>
        <pt x="1156" y="-10" on="1"/>
        <pt x="1176" y="-25" on="0"/>
        <pt x="1211" y="-48" on="0"/>
        <pt x="1211" y="-62" on="1"/>
        <pt x="1211" y="-91" on="0"/>
        <pt x="1091" y="-98" on="0"/>
        <pt x="1014" y="-107" on="0"/>
        <pt x="990" y="-111" on="1"/>
        <pt x="932" y="-121" on="0"/>
        <pt x="923" y="-121" on="1"/>
        <pt x="878" y="-121" on="0"/>
        <pt x="878" y="-101" on="1"/>
        <pt x="878" y="-73" on="0"/>
        <pt x="911" y="-40" on="0"/>
        <pt x="942" y="3" on="0"/>
        <pt x="958" y="28" on="1"/>
        <pt x="996" y="92" on="0"/>
        <pt x="1000" y="157" on="0"/>
        <pt x="1006" y="291" on="0"/>
        <pt x="1010" y="375" on="1"/>
        <pt x="1025" y="748" on="1"/>
        <pt x="784" y="754" on="0"/>
        <pt x="732" y="756" on="1"/>
        <pt x="516" y="435" on="0"/>
        <pt x="338" y="183" on="0"/>
      </contour>
      <contour>
        <pt x="790" y="833" on="1"/>
        <pt x="914" y="831" on="0"/>
        <pt x="1029" y="831" on="1"/>
        <pt x="1059" y="1267" on="1"/>
        <pt x="1000" y="1170" on="1"/>
        <pt x="884" y="975" on="0"/>
      </contour>
    </TTGlyph>
    <TTGlyph name="AEacute" xMin="-10" yMin="-284" xMax="1839" yMax="2108">
      <component glyphName="AE" x="0" y="0" flags="0x1204"/>
      <component glyphName="acute.cap" x="985" y="62" flags="0x1004"/>
    </TTGlyph>
    <TTGlyph name="Aacute" xMin="82" yMin="-139" xMax="1798" yMax="2115">
      <component glyphName="A" x="0" y="0" flags="0x1204"/>
      <component glyphName="acute.cap" x="558" y="69" flags="0x1004"/>
    </TTGlyph>
    <TTGlyph name="Acircumflex" xMin="82" yMin="-139" xMax="1798" yMax="2112">
      <component glyphName="A" x="0" y="0" flags="0x1204"/>
      <component glyphName="circumflex.cap" x="441" y="176" flags="0x1004"/>
    </TTGlyph>
    <TTGlyph name="Adieresis" xMin="82" yMin="-139" xMax="1798" yMax="2015">
      <component glyphName="A" x="0" y="0" flags="0x1204"/>
      <component glyphName="dieresis.cap" x="543" y="98" flags="0x1004"/>
    </TTGlyph>
    <TTGlyph name="Agrave" xMin="82" yMin="-139" xMax="1798" yMax="2117">
      <component glyphName="A" x="0" y="0" flags="0x1204"/>
      <component glyphName="grave.cap" x="606" y="98" flags="0x1004"/>
    </TTGlyph>
    <TTGlyph name="Aring" xMin="82" yMin="-139" xMax="1798" yMax="2134">
      <component glyphName="A" x="0" y="0" flags="0x1204"/>
      <component glyphName="ring.cap" x="573" y="98" flags="0x1004"/>
    </TTGlyph>
    <TTGlyph name="Atilde" xMin="82" yMin="-139" xMax="1798" yMax="2116">
      <component glyphName="A" x="0" y="0" flags="0x1204"/>
      <component glyphName="tilde.cap" x="389" y="98" flags="0x1004"/>
    </TTGlyph>
    <TTGlyph name="B" xMin="182" yMin="-130" xMax="1245" yMax="1706">
      <contour>
        <pt x="236" y="-129" on="1"/>
        <pt x="182" y="-129" on="0"/>
        <pt x="182" y="-93" on="1"/>
        <pt x="182" y="-69" on="0"/>
        <pt x="223" y="-33" on="0"/>
        <pt x="245" y="-14" on="0"/>
        <pt x="271" y="-1" on="0"/>
        <pt x="280" y="4" on="1"/>
        <pt x="301" y="16" on="0"/>
        <pt x="302" y="30" on="1"/>
        <pt x="337" y="489" on="0"/>
        <pt x="361" y="1324" on="0"/>
        <pt x="366" y="1503" on="1"/>
        <pt x="366" y="1534" on="0"/>
        <pt x="302" y="1594" on="1"/>
        <pt x="284" y="1611" on="0"/>
        <pt x="242" y="1653" on="0"/>
        <pt x="242" y="1675" on="1"/>
        <pt x="242" y="1706" on="0"/>
        <pt x="281" y="1706" on="1"/>
        <pt x="396" y="1694" on="1"/>
        <pt x="531" y="1705" on="1"/>
        <pt x="582" y="1705" on="0"/>
        <pt x="582" y="1671" on="1"/>
        <pt x="582" y="1649" on="0"/>
        <pt x="526" y="1604" on="0"/>
        <pt x="491" y="1571" on="0"/>
        <pt x="481" y="1558" on="1"/>
        <pt x="463" y="1535" on="0"/>
        <pt x="463" y="1512" on="1"/>
        <pt x="464" y="1465" on="1"/>
        <pt x="464" y="1387" on="0"/>
        <pt x="458" y="1267" on="1"/>
        <pt x="576" y="1447" on="0"/>
        <pt x="729" y="1518" on="1"/>
        <pt x="792" y="1548" on="0"/>
        <pt x="951" y="1548" on="0"/>
        <pt x="1058" y="1499" on="0"/>
        <pt x="1087" y="1462" on="1"/>
        <pt x="1136" y="1401" on="0"/>
        <pt x="1136" y="1248" on="0"/>
        <pt x="1102" y="1153" on="0"/>
        <pt x="1047" y="1071" on="0"/>
        <pt x="977" y="1004" on="0"/>
        <pt x="941" y="978" on="1"/>
        <pt x="880" y="932" on="0"/>
        <pt x="813" y="903" on="1"/>
        <pt x="960" y="854" on="0"/>
        <pt x="1078" y="747" on="1"/>
        <pt x="1245" y="597" on="0"/>
        <pt x="1245" y="399" on="1"/>
        <pt x="1245" y="226" on="0"/>
        <pt x="1120" y="123" on="1"/>
        <pt x="1005" y="28" on="0"/>
        <pt x="837" y="28" on="1"/>
        <pt x="702" y="28" on="0"/>
        <pt x="568" y="104" on="1"/>
        <pt x="479" y="154" on="0"/>
        <pt x="406" y="231" on="1"/>
        <pt x="397" y="50" on="0"/>
        <pt x="410" y="16" on="1"/>
        <pt x="415" y="3" on="0"/>
        <pt x="430" y="-6" on="1"/>
        <pt x="476" y="-34" on="0"/>
        <pt x="498" y="-74" on="1"/>
        <pt x="505" y="-86" on="0"/>
        <pt x="505" y="-96" on="1"/>
        <pt x="505" y="-130" on="0"/>
        <pt x="445" y="-130" on="1"/>
        <pt x="304" y="-123" on="1"/>
      </contour>
      <contour>
        <pt x="411" y="355" on="1"/>
        <pt x="542" y="201" on="0"/>
        <pt x="693" y="146" on="1"/>
        <pt x="814" y="101" on="0"/>
        <pt x="949" y="142" on="1"/>
        <pt x="1135" y="197" on="0"/>
        <pt x="1135" y="412" on="1"/>
        <pt x="1135" y="518" on="0"/>
        <pt x="1056" y="622" on="1"/>
        <pt x="946" y="768" on="0"/>
        <pt x="767" y="822" on="1"/>
        <pt x="714" y="838" on="0"/>
        <pt x="629" y="838" on="0"/>
        <pt x="585" y="845" on="0"/>
        <pt x="574" y="851" on="1"/>
        <pt x="555" y="861" on="0"/>
        <pt x="555" y="915" on="0"/>
        <pt x="590" y="938" on="0"/>
        <pt x="647" y="947" on="0"/>
        <pt x="722" y="954" on="0"/>
        <pt x="810" y="991" on="0"/>
        <pt x="908" y="1063" on="0"/>
        <pt x="948" y="1108" on="1"/>
        <pt x="1070" y="1246" on="0"/>
        <pt x="1024" y="1364" on="1"/>
        <pt x="985" y="1461" on="0"/>
        <pt x="866" y="1461" on="1"/>
        <pt x="691" y="1461" on="0"/>
        <pt x="499" y="1177" on="1"/>
        <pt x="472" y="1137" on="0"/>
        <pt x="450" y="1103" on="1"/>
        <pt x="430" y="722" on="1"/>
        <pt x="425" y="640" on="0"/>
      </contour>
    </TTGlyph>
    <TTGlyph name="C" xMin="130" yMin="-54" xMax="1409" yMax="1576">
      <contour>
        <pt x="1368" y="-54" on="1"/>
        <pt x="1340" y="-54" on="0"/>
        <pt x="1269" y="5" on="0"/>
        <pt x="1254" y="14" on="1"/>
        <pt x="1222" y="32" on="0"/>
        <pt x="1153" y="36" on="0"/>
        <pt x="1102" y="26" on="0"/>
        <pt x="1066" y="20" on="1"/>
        <pt x="926" y="-1" on="0"/>
        <pt x="838" y="5" on="1"/>
        <pt x="678" y="16" on="0"/>
        <pt x="528" y="66" on="0"/>
        <pt x="401" y="139" on="0"/>
        <pt x="280" y="247" on="0"/>
        <pt x="234" y="322" on="1"/>
        <pt x="130" y="487" on="0"/>
        <pt x="130" y="710" on="1"/>
        <pt x="130" y="1154" on="0"/>
        <pt x="506" y="1338" on="1"/>
        <pt x="751" y="1459" on="0"/>
        <pt x="1139" y="1465" on="1"/>
        <pt x="1200" y="1465" on="0"/>
        <pt x="1256" y="1512" on="1"/>
        <pt x="1272" y="1526" on="0"/>
        <pt x="1282" y="1542" on="1"/>
        <pt x="1304" y="1576" on="0"/>
        <pt x="1377" y="1576" on="0"/>
        <pt x="1377" y="1542" on="1"/>
        <pt x="1377" y="1542" on="0"/>
        <pt x="1362" y="1480" on="1"/>
        <pt x="1341" y="1381" on="0"/>
        <pt x="1341" y="1298" on="1"/>
        <pt x="1344" y="1256" on="1"/>
        <pt x="1344" y="1220" on="0"/>
        <pt x="1316" y="1220" on="1"/>
        <pt x="1291" y="1220" on="0"/>
        <pt x="1236" y="1301" on="0"/>
        <pt x="1177" y="1345" on="0"/>
        <pt x="1144" y="1356" on="1"/>
        <pt x="1100" y="1370" on="0"/>
        <pt x="901" y="1370" on="0"/>
        <pt x="711" y="1334" on="0"/>
        <pt x="541" y="1263" on="0"/>
        <pt x="396" y="1157" on="0"/>
        <pt x="343" y="1086" on="1"/>
        <pt x="230" y="935" on="0"/>
        <pt x="230" y="732" on="1"/>
        <pt x="230" y="390" on="0"/>
        <pt x="452" y="226" on="1"/>
        <pt x="633" y="92" on="0"/>
        <pt x="888" y="92" on="1"/>
        <pt x="1123" y="92" on="0"/>
        <pt x="1212" y="178" on="1"/>
        <pt x="1233" y="199" on="0"/>
        <pt x="1271" y="273" on="0"/>
        <pt x="1329" y="327" on="0"/>
        <pt x="1350" y="327" on="1"/>
        <pt x="1385" y="327" on="0"/>
        <pt x="1385" y="269" on="1"/>
        <pt x="1377" y="170" on="1"/>
        <pt x="1377" y="113" on="0"/>
        <pt x="1409" y="-54" on="0"/>
      </contour>
    </TTGlyph>
    <TTGlyph name="Ccedilla" xMin="77" yMin="-439" xMax="1345" yMax="1615">
      <contour>
        <pt x="364" y="-379" on="1"/>
        <pt x="315" y="-379" on="0"/>
        <pt x="315" y="-347" on="1"/>
        <pt x="315" y="-332" on="0"/>
        <pt x="338" y="-314" on="1"/>
        <pt x="410" y="-257" on="0"/>
        <pt x="441" y="-187" on="1"/>
        <pt x="457" y="-152" on="0"/>
        <pt x="496" y="-152" on="0"/>
        <pt x="517" y="-175" on="0"/>
        <pt x="517" y="-190" on="1"/>
        <pt x="515" y="-235" on="1"/>
        <pt x="515" y="-348" on="0"/>
        <pt x="697" y="-348" on="1"/>
        <pt x="804" y="-348" on="0"/>
        <pt x="826" y="-269" on="1"/>
        <pt x="840" y="-216" on="0"/>
        <pt x="804" y="-161" on="0"/>
        <pt x="763" y="-131" on="0"/>
        <pt x="716" y="-107" on="0"/>
        <pt x="696" y="-94" on="1"/>
        <pt x="648" y="-64" on="0"/>
        <pt x="648" y="-25" on="1"/>
        <pt x="648" y="-14" on="1"/>
        <pt x="648" y="-11" on="0"/>
        <pt x="675" y="53" on="1"/>
        <pt x="478" y="74" on="0"/>
        <pt x="304" y="218" on="1"/>
        <pt x="167" y="331" on="0"/>
        <pt x="108" y="522" on="1"/>
        <pt x="77" y="621" on="0"/>
        <pt x="77" y="876" on="0"/>
        <pt x="135" y="1074" on="0"/>
        <pt x="237" y="1227" on="0"/>
        <pt x="374" y="1339" on="0"/>
        <pt x="531" y="1416" on="0"/>
        <pt x="700" y="1465" on="0"/>
        <pt x="783" y="1478" on="1"/>
        <pt x="925" y="1502" on="0"/>
        <pt x="1105" y="1504" on="0"/>
        <pt x="1148" y="1517" on="0"/>
        <pt x="1168" y="1528" on="1"/>
        <pt x="1210" y="1550" on="0"/>
        <pt x="1225" y="1574" on="1"/>
        <pt x="1251" y="1615" on="0"/>
        <pt x="1324" y="1615" on="0"/>
        <pt x="1324" y="1581" on="1"/>
        <pt x="1309" y="1520" on="1"/>
        <pt x="1288" y="1420" on="0"/>
        <pt x="1288" y="1337" on="1"/>
        <pt x="1291" y="1295" on="1"/>
        <pt x="1291" y="1259" on="0"/>
        <pt x="1263" y="1259" on="1"/>
        <pt x="1238" y="1259" on="0"/>
        <pt x="1183" y="1340" on="0"/>
        <pt x="1124" y="1384" on="0"/>
        <pt x="1092" y="1394" on="1"/>
        <pt x="1047" y="1409" on="0"/>
        <pt x="848" y="1409" on="0"/>
        <pt x="658" y="1373" on="0"/>
        <pt x="488" y="1302" on="0"/>
        <pt x="343" y="1196" on="0"/>
        <pt x="290" y="1125" on="1"/>
        <pt x="177" y="974" on="0"/>
        <pt x="177" y="771" on="1"/>
        <pt x="177" y="429" on="0"/>
        <pt x="400" y="264" on="1"/>
        <pt x="580" y="131" on="0"/>
        <pt x="835" y="131" on="1"/>
        <pt x="1070" y="131" on="0"/>
        <pt x="1158" y="217" on="1"/>
        <pt x="1180" y="238" on="0"/>
        <pt x="1218" y="312" on="0"/>
        <pt x="1276" y="366" on="0"/>
        <pt x="1297" y="366" on="1"/>
        <pt x="1332" y="366" on="0"/>
        <pt x="1332" y="308" on="1"/>
        <pt x="1324" y="209" on="1"/>
        <pt x="1324" y="152" on="0"/>
        <pt x="1345" y="41" on="0"/>
        <pt x="1345" y="29" on="1"/>
        <pt x="1345" y="-15" on="0"/>
        <pt x="1315" y="-15" on="1"/>
        <pt x="1287" y="-15" on="0"/>
        <pt x="1216" y="44" on="0"/>
        <pt x="1200" y="53" on="1"/>
        <pt x="1169" y="71" on="0"/>
        <pt x="1100" y="75" on="0"/>
        <pt x="1049" y="65" on="0"/>
        <pt x="1014" y="60" on="1"/>
        <pt x="913" y="44" on="0"/>
        <pt x="862" y="44" on="1"/>
        <pt x="797" y="44" on="1"/>
        <pt x="783" y="44" on="0"/>
        <pt x="769" y="45" on="1"/>
        <pt x="742" y="-6" on="0"/>
        <pt x="770" y="-34" on="1"/>
        <pt x="784" y="-48" on="0"/>
        <pt x="851" y="-75" on="0"/>
        <pt x="895" y="-111" on="0"/>
        <pt x="912" y="-135" on="1"/>
        <pt x="965" y="-207" on="0"/>
        <pt x="935" y="-331" on="0"/>
        <pt x="887" y="-394" on="0"/>
        <pt x="854" y="-411" on="1"/>
        <pt x="798" y="-439" on="0"/>
        <pt x="643" y="-439" on="0"/>
        <pt x="569" y="-417" on="0"/>
        <pt x="506" y="-392" on="0"/>
        <pt x="451" y="-370" on="0"/>
        <pt x="426" y="-370" on="1"/>
      </contour>
    </TTGlyph>
    <TTGlyph name="D" xMin="71" yMin="-47" xMax="1388" yMax="1681">
      <contour>
        <pt x="155" y="5" on="1"/>
        <pt x="155" y="23" on="0"/>
        <pt x="179" y="53" on="0"/>
        <pt x="205" y="89" on="0"/>
        <pt x="235" y="127" on="0"/>
        <pt x="247" y="144" on="1"/>
        <pt x="275" y="185" on="0"/>
        <pt x="275" y="200" on="1"/>
        <pt x="261" y="392" on="0"/>
        <pt x="247" y="693" on="1"/>
        <pt x="222" y="1233" on="0"/>
        <pt x="205" y="1465" on="1"/>
        <pt x="203" y="1489" on="0"/>
        <pt x="177" y="1515" on="1"/>
        <pt x="95" y="1591" on="1"/>
        <pt x="71" y="1615" on="0"/>
        <pt x="71" y="1637" on="1"/>
        <pt x="71" y="1668" on="0"/>
        <pt x="110" y="1668" on="1"/>
        <pt x="206" y="1657" on="1"/>
        <pt x="258" y="1657" on="0"/>
        <pt x="306" y="1667" on="1"/>
        <pt x="373" y="1681" on="0"/>
        <pt x="432" y="1681" on="0"/>
        <pt x="432" y="1653" on="1"/>
        <pt x="432" y="1631" on="0"/>
        <pt x="390" y="1597" on="1"/>
        <pt x="302" y="1526" on="0"/>
        <pt x="302" y="1473" on="1"/>
        <pt x="303" y="1437" on="1"/>
        <pt x="498" y="1488" on="1"/>
        <pt x="880" y="1580" on="0"/>
        <pt x="1145" y="1432" on="1"/>
        <pt x="1289" y="1351" on="0"/>
        <pt x="1354" y="1185" on="1"/>
        <pt x="1388" y="1098" on="0"/>
        <pt x="1388" y="824" on="0"/>
        <pt x="1288" y="588" on="0"/>
        <pt x="1123" y="413" on="0"/>
        <pt x="910" y="293" on="0"/>
        <pt x="797" y="255" on="1"/>
        <pt x="594" y="187" on="0"/>
        <pt x="370" y="172" on="1"/>
        <pt x="376" y="154" on="0"/>
        <pt x="449" y="67" on="0"/>
        <pt x="478" y="27" on="0"/>
        <pt x="478" y="12" on="1"/>
        <pt x="478" y="-22" on="0"/>
        <pt x="418" y="-22" on="1"/>
        <pt x="318" y="-20" on="1"/>
        <pt x="288" y="-20" on="0"/>
        <pt x="253" y="-27" on="1"/>
        <pt x="155" y="-47" on="0"/>
      </contour>
      <contour>
        <pt x="309" y="1348" on="1"/>
        <pt x="360" y="275" on="1"/>
        <pt x="381" y="275" on="1"/>
        <pt x="696" y="275" on="0"/>
        <pt x="977" y="456" on="1"/>
        <pt x="1169" y="579" on="0"/>
        <pt x="1248" y="758" on="1"/>
        <pt x="1288" y="851" on="0"/>
        <pt x="1288" y="1094" on="0"/>
        <pt x="1203" y="1277" on="0"/>
        <pt x="1132" y="1332" on="1"/>
        <pt x="999" y="1434" on="0"/>
        <pt x="553" y="1434" on="0"/>
      </contour>
    </TTGlyph>
    <TTGlyph name="Dcroat" xMin="3" yMin="-55" xMax="1388" yMax="1673">
      <contour>
        <pt x="155" y="-3" on="1"/>
        <pt x="155" y="15" on="0"/>
        <pt x="179" y="45" on="0"/>
        <pt x="205" y="81" on="0"/>
        <pt x="235" y="119" on="0"/>
        <pt x="247" y="136" on="1"/>
        <pt x="275" y="177" on="0"/>
        <pt x="275" y="192" on="1"/>
        <pt x="266" y="314" on="0"/>
        <pt x="241" y="820" on="1"/>
        <pt x="200" y="814" on="0"/>
        <pt x="168" y="808" on="0"/>
        <pt x="126" y="763" on="0"/>
        <pt x="88" y="712" on="0"/>
        <pt x="53" y="671" on="0"/>
        <pt x="34" y="671" on="1"/>
        <pt x="3" y="671" on="0"/>
        <pt x="3" y="709" on="1"/>
        <pt x="16" y="848" on="1"/>
        <pt x="5" y="960" on="1"/>
        <pt x="5" y="1009" on="0"/>
        <pt x="58" y="974" on="1"/>
        <pt x="148" y="912" on="1"/>
        <pt x="169" y="898" on="0"/>
        <pt x="181" y="898" on="1"/>
        <pt x="237" y="904" on="1"/>
        <pt x="219" y="1273" on="0"/>
        <pt x="205" y="1457" on="1"/>
        <pt x="203" y="1481" on="0"/>
        <pt x="177" y="1507" on="1"/>
        <pt x="95" y="1583" on="1"/>
        <pt x="71" y="1607" on="0"/>
        <pt x="71" y="1629" on="1"/>
        <pt x="71" y="1660" on="0"/>
        <pt x="110" y="1660" on="1"/>
        <pt x="206" y="1649" on="1"/>
        <pt x="258" y="1649" on="0"/>
        <pt x="306" y="1659" on="1"/>
        <pt x="373" y="1673" on="0"/>
        <pt x="432" y="1673" on="0"/>
        <pt x="432" y="1645" on="1"/>
        <pt x="432" y="1623" on="0"/>
        <pt x="390" y="1589" on="1"/>
        <pt x="302" y="1518" on="0"/>
        <pt x="302" y="1465" on="1"/>
        <pt x="303" y="1429" on="1"/>
        <pt x="498" y="1480" on="1"/>
        <pt x="880" y="1572" on="0"/>
        <pt x="1145" y="1424" on="1"/>
        <pt x="1289" y="1343" on="0"/>
        <pt x="1354" y="1177" on="1"/>
        <pt x="1388" y="1090" on="0"/>
        <pt x="1388" y="816" on="0"/>
        <pt x="1288" y="580" on="0"/>
        <pt x="1123" y="405" on="0"/>
        <pt x="910" y="285" on="0"/>
        <pt x="797" y="247" on="1"/>
        <pt x="594" y="179" on="0"/>
        <pt x="370" y="164" on="1"/>
        <pt x="376" y="146" on="0"/>
        <pt x="449" y="59" on="0"/>
        <pt x="478" y="19" on="0"/>
        <pt x="478" y="4" on="1"/>
        <pt x="478" y="-30" on="0"/>
        <pt x="418" y="-30" on="1"/>
        <pt x="318" y="-28" on="1"/>
        <pt x="288" y="-28" on="0"/>
        <pt x="253" y="-35" on="1"/>
        <pt x="155" y="-55" on="0"/>
      </contour>
      <contour>
        <pt x="336" y="833" on="1"/>
        <pt x="360" y="267" on="1"/>
        <pt x="381" y="267" on="1"/>
        <pt x="696" y="267" on="0"/>
        <pt x="977" y="448" on="1"/>
        <pt x="1169" y="571" on="0"/>
        <pt x="1248" y="750" on="1"/>
        <pt x="1288" y="843" on="0"/>
        <pt x="1288" y="1086" on="0"/>
        <pt x="1203" y="1269" on="0"/>
        <pt x="1132" y="1324" on="1"/>
        <pt x="999" y="1426" on="0"/>
        <pt x="553" y="1426" on="0"/>
        <pt x="309" y="1340" on="1"/>
        <pt x="333" y="915" on="1"/>
        <pt x="468" y="929" on="0"/>
        <pt x="684" y="966" on="1"/>
        <pt x="721" y="973" on="0"/>
        <pt x="813" y="1068" on="0"/>
        <pt x="851" y="1102" on="0"/>
        <pt x="868" y="1102" on="1"/>
        <pt x="898" y="1102" on="0"/>
        <pt x="898" y="1036" on="1"/>
        <pt x="893" y="935" on="1"/>
        <pt x="893" y="890" on="0"/>
        <pt x="905" y="854" on="0"/>
        <pt x="906" y="844" on="1"/>
        <pt x="906" y="776" on="0"/>
        <pt x="848" y="790" on="1"/>
        <pt x="839" y="792" on="0"/>
        <pt x="830" y="798" on="1"/>
        <pt x="788" y="825" on="1"/>
        <pt x="710" y="874" on="0"/>
        <pt x="685" y="874" on="1"/>
        <pt x="653" y="870" on="1"/>
        <pt x="455" y="848" on="1"/>
        <pt x="393" y="840" on="0"/>
      </contour>
    </TTGlyph>
    <TTGlyph name="Delta" xMin="35" yMin="-169" xMax="1824" yMax="1822">
      <component glyphName="uni0394" x="0" y="0" flags="0x1204"/>
    </TTGlyph>
    <TTGlyph name="E" xMin="106" yMin="-277" xMax="1136" yMax="1635">
      <contour>
        <pt x="841" y="693" on="1"/>
        <pt x="675" y="693" on="0"/>
        <pt x="310" y="693" on="0"/>
        <pt x="206" y="680" on="1"/>
        <pt x="206" y="657" on="1"/>
        <pt x="211" y="399" on="0"/>
        <pt x="330" y="238" on="1"/>
        <pt x="462" y="59" on="0"/>
        <pt x="740" y="1" on="1"/>
        <pt x="874" y="-27" on="0"/>
        <pt x="938" y="-27" on="0"/>
        <pt x="992" y="1" on="0"/>
        <pt x="1036" y="35" on="0"/>
        <pt x="1073" y="63" on="0"/>
        <pt x="1089" y="63" on="1"/>
        <pt x="1118" y="63" on="0"/>
        <pt x="1118" y="-3" on="0"/>
        <pt x="1101" y="-46" on="1"/>
        <pt x="1064" y="-139" on="0"/>
        <pt x="1060" y="-233" on="1"/>
        <pt x="1058" y="-277" on="0"/>
        <pt x="1029" y="-277" on="1"/>
        <pt x="990" y="-277" on="0"/>
        <pt x="929" y="-180" on="1"/>
        <pt x="893" y="-124" on="0"/>
        <pt x="822" y="-112" on="1"/>
        <pt x="246" y="-30" on="0"/>
        <pt x="130" y="428" on="1"/>
        <pt x="106" y="526" on="0"/>
        <pt x="106" y="807" on="0"/>
        <pt x="193" y="1050" on="0"/>
        <pt x="333" y="1233" on="0"/>
        <pt x="507" y="1360" on="0"/>
        <pt x="595" y="1400" on="1"/>
        <pt x="753" y="1473" on="0"/>
        <pt x="896" y="1484" on="1"/>
        <pt x="947" y="1486" on="0"/>
        <pt x="1001" y="1562" on="1"/>
        <pt x="1054" y="1635" on="0"/>
        <pt x="1086" y="1635" on="1"/>
        <pt x="1136" y="1635" on="0"/>
        <pt x="1118" y="1568" on="1"/>
        <pt x="1104" y="1512" on="0"/>
        <pt x="1128" y="1369" on="1"/>
        <pt x="1134" y="1332" on="0"/>
        <pt x="1112" y="1302" on="0"/>
        <pt x="1100" y="1302" on="1"/>
        <pt x="1075" y="1302" on="0"/>
        <pt x="1051" y="1338" on="1"/>
        <pt x="1012" y="1394" on="0"/>
        <pt x="929" y="1394" on="1"/>
        <pt x="834" y="1394" on="0"/>
        <pt x="699" y="1353" on="0"/>
        <pt x="566" y="1284" on="0"/>
        <pt x="432" y="1182" on="0"/>
        <pt x="375" y="1116" on="1"/>
        <pt x="247" y="966" on="0"/>
        <pt x="216" y="789" on="1"/>
        <pt x="244" y="787" on="0"/>
        <pt x="276" y="787" on="1"/>
        <pt x="346" y="787" on="1"/>
        <pt x="524" y="787" on="0"/>
        <pt x="848" y="799" on="1"/>
        <pt x="867" y="800" on="0"/>
        <pt x="903" y="828" on="1"/>
        <pt x="1008" y="908" on="0"/>
        <pt x="1033" y="908" on="1"/>
        <pt x="1069" y="908" on="0"/>
        <pt x="1069" y="862" on="1"/>
        <pt x="1040" y="730" on="1"/>
        <pt x="1035" y="700" on="0"/>
        <pt x="1035" y="666" on="1"/>
        <pt x="1037" y="627" on="1"/>
        <pt x="1037" y="577" on="0"/>
        <pt x="1004" y="577" on="1"/>
        <pt x="984" y="577" on="0"/>
        <pt x="951" y="612" on="0"/>
        <pt x="933" y="634" on="1"/>
        <pt x="886" y="690" on="0"/>
      </contour>
    </TTGlyph>
    <TTGlyph name="Eacute" xMin="106" yMin="-277" xMax="1136" yMax="2086">
      <component glyphName="E" x="0" y="0" flags="0x1204"/>
      <component glyphName="acute.cap" x="419" y="40" flags="0x1004"/>
    </TTGlyph>
    <TTGlyph name="Ecircumflex" xMin="106" yMin="-277" xMax="1275" yMax="2103">
      <component glyphName="E" x="0" y="0" flags="0x1204"/>
      <component glyphName="circumflex.cap" x="279" y="167" flags="0x1004"/>
    </TTGlyph>
    <TTGlyph name="Edieresis" xMin="106" yMin="-277" xMax="1136" yMax="1923">
      <component glyphName="E" x="0" y="0" flags="0x1204"/>
      <component glyphName="dieresis.cap" x="265" y="6" flags="0x1004"/>
    </TTGlyph>
    <TTGlyph name="Egrave" xMin="106" yMin="-277" xMax="1136" yMax="2032">
      <component glyphName="E" x="0" y="0" flags="0x1204"/>
      <component glyphName="grave.cap" x="334" y="13" flags="0x1004"/>
    </TTGlyph>
    <TTGlyph name="Emacron" xMin="106" yMin="-277" xMax="1136" yMax="2050">
      <component glyphName="E" x="0" y="0" flags="0x1204"/>
      <component glyphName="macron.cap" x="312" y="-44" flags="0x1004"/>
    </TTGlyph>
    <TTGlyph name="Eth" xMin="3" yMin="-55" xMax="1388" yMax="1673">
      <component glyphName="Dcroat" x="0" y="0" flags="0x1004"/>
    </TTGlyph>
    <TTGlyph name="Euro" xMin="61" yMin="-96" xMax="1446" yMax="1707">
      <contour>
        <pt x="1238" y="17" on="1"/>
        <pt x="1245" y="-66" on="1"/>
        <pt x="1245" y="-96" on="0"/>
        <pt x="1219" y="-96" on="1"/>
        <pt x="1178" y="-96" on="0"/>
        <pt x="1139" y="-39" on="1"/>
        <pt x="1124" y="-18" on="0"/>
        <pt x="1102" y="17" on="0"/>
        <pt x="1088" y="31" on="1"/>
        <pt x="1058" y="61" on="0"/>
        <pt x="971" y="73" on="0"/>
        <pt x="865" y="104" on="0"/>
        <pt x="744" y="160" on="0"/>
        <pt x="617" y="245" on="0"/>
        <pt x="562" y="304" on="1"/>
        <pt x="436" y="436" on="0"/>
        <pt x="398" y="609" on="1"/>
        <pt x="315" y="609" on="1"/>
        <pt x="245" y="609" on="0"/>
        <pt x="180" y="578" on="0"/>
        <pt x="143" y="543" on="0"/>
        <pt x="112" y="514" on="0"/>
        <pt x="92" y="514" on="1"/>
        <pt x="61" y="514" on="0"/>
        <pt x="61" y="551" on="1"/>
        <pt x="71" y="625" on="1"/>
        <pt x="69" y="677" on="1"/>
        <pt x="63" y="751" on="1"/>
        <pt x="63" y="815" on="0"/>
        <pt x="101" y="815" on="1"/>
        <pt x="119" y="815" on="0"/>
        <pt x="156" y="783" on="0"/>
        <pt x="171" y="753" on="0"/>
        <pt x="204" y="726" on="0"/>
        <pt x="220" y="718" on="1"/>
        <pt x="248" y="706" on="0"/>
        <pt x="275" y="706" on="1"/>
        <pt x="385" y="704" on="1"/>
        <pt x="372" y="880" on="0"/>
        <pt x="417" y="1050" on="1"/>
        <pt x="342" y="1050" on="1"/>
        <pt x="307" y="1050" on="0"/>
        <pt x="271" y="1043" on="0"/>
        <pt x="223" y="1010" on="0"/>
        <pt x="202" y="992" on="1"/>
        <pt x="146" y="944" on="0"/>
        <pt x="125" y="944" on="1"/>
        <pt x="84" y="944" on="0"/>
        <pt x="100" y="1009" on="1"/>
        <pt x="111" y="1058" on="0"/>
        <pt x="111" y="1132" on="1"/>
        <pt x="111" y="1132" on="0"/>
        <pt x="106" y="1201" on="1"/>
        <pt x="106" y="1266" on="0"/>
        <pt x="143" y="1266" on="1"/>
        <pt x="164" y="1266" on="0"/>
        <pt x="231" y="1182" on="0"/>
        <pt x="292" y="1145" on="0"/>
        <pt x="309" y="1145" on="1"/>
        <pt x="448" y="1146" on="1"/>
        <pt x="538" y="1380" on="0"/>
        <pt x="738" y="1504" on="1"/>
        <pt x="921" y="1618" on="0"/>
        <pt x="1157" y="1618" on="1"/>
        <pt x="1229" y="1616" on="1"/>
        <pt x="1314" y="1616" on="0"/>
        <pt x="1351" y="1673" on="1"/>
        <pt x="1373" y="1707" on="0"/>
        <pt x="1446" y="1707" on="0"/>
        <pt x="1446" y="1673" on="1"/>
        <pt x="1410" y="1544" on="1"/>
        <pt x="1391" y="1467" on="0"/>
        <pt x="1391" y="1424" on="1"/>
        <pt x="1393" y="1399" on="1"/>
        <pt x="1393" y="1380" on="0"/>
        <pt x="1368" y="1350" on="0"/>
        <pt x="1354" y="1350" on="1"/>
        <pt x="1327" y="1350" on="0"/>
        <pt x="1297" y="1428" on="0"/>
        <pt x="1267" y="1481" on="0"/>
        <pt x="1246" y="1498" on="1"/>
        <pt x="1207" y="1528" on="0"/>
        <pt x="1033" y="1528" on="0"/>
        <pt x="870" y="1475" on="0"/>
        <pt x="798" y="1426" on="1"/>
        <pt x="651" y="1323" on="0"/>
        <pt x="566" y="1148" on="1"/>
        <pt x="913" y="1157" on="1"/>
        <pt x="977" y="1157" on="0"/>
        <pt x="1039" y="1209" on="1"/>
        <pt x="1057" y="1224" on="0"/>
        <pt x="1067" y="1238" on="1"/>
        <pt x="1084" y="1263" on="0"/>
        <pt x="1109" y="1263" on="1"/>
        <pt x="1158" y="1263" on="0"/>
        <pt x="1143" y="1194" on="1"/>
        <pt x="1138" y="1171" on="1"/>
        <pt x="1127" y="1127" on="0"/>
        <pt x="1120" y="970" on="0"/>
        <pt x="1106" y="934" on="0"/>
        <pt x="1091" y="934" on="1"/>
        <pt x="1060" y="934" on="0"/>
        <pt x="1029" y="996" on="0"/>
        <pt x="996" y="1037" on="0"/>
        <pt x="981" y="1048" on="1"/>
        <pt x="962" y="1062" on="0"/>
        <pt x="930" y="1068" on="0"/>
        <pt x="856" y="1065" on="0"/>
        <pt x="798" y="1062" on="1"/>
        <pt x="679" y="1057" on="0"/>
        <pt x="528" y="1053" on="1"/>
        <pt x="470" y="878" on="0"/>
        <pt x="486" y="700" on="1"/>
        <pt x="666" y="694" on="0"/>
        <pt x="822" y="684" on="1"/>
        <pt x="880" y="684" on="0"/>
        <pt x="938" y="744" on="1"/>
        <pt x="955" y="761" on="0"/>
        <pt x="965" y="776" on="1"/>
        <pt x="982" y="801" on="0"/>
        <pt x="1008" y="801" on="1"/>
        <pt x="1060" y="801" on="0"/>
        <pt x="1037" y="709" on="1"/>
        <pt x="1028" y="669" on="0"/>
        <pt x="1028" y="614" on="1"/>
        <pt x="1030" y="535" on="1"/>
        <pt x="1030" y="496" on="0"/>
        <pt x="1004" y="472" on="0"/>
        <pt x="995" y="472" on="1"/>
        <pt x="967" y="472" on="0"/>
        <pt x="936" y="540" on="0"/>
        <pt x="902" y="580" on="0"/>
        <pt x="873" y="595" on="0"/>
        <pt x="848" y="594" on="0"/>
        <pt x="839" y="596" on="0"/>
        <pt x="782" y="599" on="0"/>
        <pt x="734" y="600" on="1"/>
        <pt x="503" y="608" on="1"/>
        <pt x="571" y="347" on="0"/>
        <pt x="858" y="218" on="1"/>
        <pt x="960" y="172" on="0"/>
        <pt x="1056" y="156" on="1"/>
        <pt x="1104" y="147" on="0"/>
        <pt x="1162" y="185" on="0"/>
        <pt x="1205" y="222" on="0"/>
        <pt x="1241" y="254" on="0"/>
        <pt x="1258" y="254" on="1"/>
        <pt x="1300" y="254" on="0"/>
        <pt x="1265" y="162" on="1"/>
        <pt x="1238" y="96" on="0"/>
      </contour>
    </TTGlyph>
    <TTGlyph name="F" xMin="119" yMin="-6" xMax="1253" yMax="1742">
      <contour>
        <pt x="240" y="-6" on="1"/>
        <pt x="191" y="-6" on="0"/>
        <pt x="189" y="31" on="1"/>
        <pt x="190" y="49" on="0"/>
        <pt x="212" y="80" on="0"/>
        <pt x="232" y="109" on="1"/>
        <pt x="293" y="200" on="0"/>
        <pt x="293" y="230" on="1"/>
        <pt x="280" y="406" on="0"/>
        <pt x="271" y="725" on="1"/>
        <pt x="253" y="1325" on="0"/>
        <pt x="238" y="1525" on="1"/>
        <pt x="236" y="1553" on="0"/>
        <pt x="179" y="1613" on="0"/>
        <pt x="119" y="1673" on="0"/>
        <pt x="119" y="1695" on="1"/>
        <pt x="119" y="1726" on="0"/>
        <pt x="158" y="1726" on="1"/>
        <pt x="254" y="1717" on="1"/>
        <pt x="410" y="1736" on="1"/>
        <pt x="447" y="1736" on="0"/>
        <pt x="447" y="1708" on="1"/>
        <pt x="447" y="1686" on="0"/>
        <pt x="414" y="1658" on="1"/>
        <pt x="327" y="1587" on="0"/>
        <pt x="336" y="1502" on="1"/>
        <pt x="338" y="1489" on="0"/>
        <pt x="338" y="1476" on="1"/>
        <pt x="580" y="1512" on="0"/>
        <pt x="988" y="1600" on="1"/>
        <pt x="1051" y="1639" on="0"/>
        <pt x="1101" y="1711" on="1"/>
        <pt x="1127" y="1742" on="0"/>
        <pt x="1166" y="1742" on="0"/>
        <pt x="1184" y="1720" on="0"/>
        <pt x="1192" y="1683" on="0"/>
        <pt x="1194" y="1634" on="0"/>
        <pt x="1196" y="1606" on="1"/>
        <pt x="1201" y="1535" on="0"/>
        <pt x="1216" y="1501" on="1"/>
        <pt x="1253" y="1416" on="0"/>
        <pt x="1201" y="1416" on="1"/>
        <pt x="1177" y="1416" on="0"/>
        <pt x="1139" y="1443" on="0"/>
        <pt x="1107" y="1464" on="0"/>
        <pt x="1089" y="1474" on="1"/>
        <pt x="1046" y="1496" on="0"/>
        <pt x="981" y="1494" on="0"/>
        <pt x="881" y="1481" on="0"/>
        <pt x="761" y="1463" on="0"/>
        <pt x="630" y="1441" on="0"/>
        <pt x="566" y="1429" on="1"/>
        <pt x="417" y="1401" on="0"/>
        <pt x="342" y="1384" on="1"/>
        <pt x="362" y="906" on="1"/>
        <pt x="738" y="899" on="0"/>
        <pt x="899" y="917" on="1"/>
        <pt x="965" y="934" on="0"/>
        <pt x="1034" y="999" on="1"/>
        <pt x="1061" y="1019" on="0"/>
        <pt x="1081" y="1019" on="1"/>
        <pt x="1135" y="1019" on="0"/>
        <pt x="1108" y="904" on="1"/>
        <pt x="1098" y="865" on="0"/>
        <pt x="1098" y="811" on="1"/>
        <pt x="1105" y="730" on="1"/>
        <pt x="1105" y="707" on="0"/>
        <pt x="1094" y="697" on="1"/>
        <pt x="1069" y="674" on="0"/>
        <pt x="1028" y="710" on="1"/>
        <pt x="989" y="760" on="0"/>
        <pt x="918" y="806" on="0"/>
        <pt x="901" y="810" on="1"/>
        <pt x="898" y="807" on="0"/>
        <pt x="819" y="807" on="1"/>
        <pt x="452" y="809" on="0"/>
        <pt x="366" y="806" on="1"/>
        <pt x="387" y="269" on="0"/>
        <pt x="399" y="190" on="0"/>
        <pt x="447" y="129" on="0"/>
        <pt x="467" y="105" on="1"/>
        <pt x="502" y="63" on="0"/>
        <pt x="502" y="48" on="1"/>
        <pt x="502" y="10" on="0"/>
        <pt x="454" y="10" on="1"/>
        <pt x="379" y="15" on="1"/>
        <pt x="331" y="15" on="0"/>
        <pt x="250" y="-6" on="0"/>
      </contour>
    </TTGlyph>
    <TTGlyph name="G" xMin="99" yMin="-23" xMax="1327" yMax="1686">
      <contour>
        <pt x="1241" y="859" on="1"/>
        <pt x="1327" y="859" on="0"/>
        <pt x="1299" y="729" on="1"/>
        <pt x="1229" y="246" on="1"/>
        <pt x="1203" y="79" on="0"/>
        <pt x="1179" y="-2" on="0"/>
        <pt x="1133" y="-23" on="0"/>
        <pt x="977" y="-23" on="0"/>
        <pt x="734" y="18" on="0"/>
        <pt x="512" y="106" on="0"/>
        <pt x="320" y="242" on="0"/>
        <pt x="250" y="338" on="1"/>
        <pt x="99" y="543" on="0"/>
        <pt x="99" y="838" on="1"/>
        <pt x="99" y="1102" on="0"/>
        <pt x="251" y="1284" on="1"/>
        <pt x="378" y="1436" on="0"/>
        <pt x="594" y="1516" on="1"/>
        <pt x="773" y="1584" on="0"/>
        <pt x="951" y="1584" on="1"/>
        <pt x="1066" y="1575" on="1"/>
        <pt x="1096" y="1575" on="0"/>
        <pt x="1120" y="1594" on="1"/>
        <pt x="1152" y="1618" on="0"/>
        <pt x="1225" y="1686" on="0"/>
        <pt x="1247" y="1686" on="1"/>
        <pt x="1279" y="1686" on="0"/>
        <pt x="1266" y="1630" on="1"/>
        <pt x="1256" y="1578" on="0"/>
        <pt x="1256" y="1514" on="1"/>
        <pt x="1262" y="1406" on="1"/>
        <pt x="1262" y="1350" on="0"/>
        <pt x="1237" y="1350" on="1"/>
        <pt x="1218" y="1350" on="0"/>
        <pt x="1156" y="1426" on="0"/>
        <pt x="1090" y="1471" on="0"/>
        <pt x="1059" y="1480" on="1"/>
        <pt x="973" y="1507" on="0"/>
        <pt x="799" y="1480" on="1"/>
        <pt x="624" y="1452" on="0"/>
        <pt x="478" y="1356" on="1"/>
        <pt x="312" y="1249" on="0"/>
        <pt x="242" y="1050" on="1"/>
        <pt x="206" y="946" on="0"/>
        <pt x="206" y="653" on="0"/>
        <pt x="297" y="422" on="0"/>
        <pt x="443" y="258" on="0"/>
        <pt x="626" y="154" on="0"/>
        <pt x="718" y="124" on="1"/>
        <pt x="921" y="57" on="0"/>
        <pt x="1079" y="73" on="1"/>
        <pt x="1100" y="89" on="0"/>
        <pt x="1151" y="426" on="0"/>
        <pt x="1161" y="496" on="1"/>
        <pt x="1195" y="726" on="1"/>
        <pt x="1195" y="730" on="0"/>
        <pt x="1195" y="734" on="1"/>
        <pt x="1195" y="777" on="0"/>
        <pt x="1137" y="777" on="1"/>
        <pt x="896" y="777" on="1"/>
        <pt x="829" y="777" on="0"/>
        <pt x="772" y="728" on="1"/>
        <pt x="719" y="674" on="1"/>
        <pt x="703" y="662" on="0"/>
        <pt x="671" y="662" on="0"/>
        <pt x="671" y="679" on="1"/>
        <pt x="671" y="702" on="0"/>
        <pt x="678" y="738" on="1"/>
        <pt x="697" y="825" on="0"/>
        <pt x="697" y="898" on="1"/>
        <pt x="692" y="962" on="1"/>
        <pt x="692" y="1019" on="0"/>
        <pt x="719" y="1019" on="1"/>
        <pt x="738" y="1019" on="0"/>
        <pt x="796" y="951" on="0"/>
        <pt x="835" y="909" on="0"/>
        <pt x="852" y="896" on="1"/>
        <pt x="883" y="873" on="0"/>
        <pt x="933" y="867" on="0"/>
        <pt x="984" y="865" on="0"/>
        <pt x="1047" y="863" on="0"/>
        <pt x="1116" y="861" on="0"/>
        <pt x="1147" y="860" on="1"/>
        <pt x="1240" y="859" on="0"/>
      </contour>
    </TTGlyph>
    <TTGlyph name="H" xMin="108" yMin="-17" xMax="1605" yMax="1790">
      <contour>
        <pt x="108" y="35" on="1"/>
        <pt x="108" y="53" on="0"/>
        <pt x="132" y="83" on="0"/>
        <pt x="172" y="139" on="0"/>
        <pt x="217" y="200" on="0"/>
        <pt x="218" y="220" on="1"/>
        <pt x="243" y="1213" on="1"/>
        <pt x="248" y="1380" on="0"/>
        <pt x="256" y="1530" on="1"/>
        <pt x="256" y="1553" on="0"/>
        <pt x="230" y="1577" on="1"/>
        <pt x="148" y="1651" on="1"/>
        <pt x="124" y="1675" on="0"/>
        <pt x="124" y="1697" on="1"/>
        <pt x="124" y="1728" on="0"/>
        <pt x="163" y="1728" on="1"/>
        <pt x="259" y="1717" on="1"/>
        <pt x="312" y="1717" on="0"/>
        <pt x="359" y="1727" on="1"/>
        <pt x="426" y="1741" on="0"/>
        <pt x="485" y="1741" on="0"/>
        <pt x="485" y="1713" on="1"/>
        <pt x="485" y="1691" on="0"/>
        <pt x="428" y="1645" on="0"/>
        <pt x="388" y="1598" on="0"/>
        <pt x="375" y="1576" on="1"/>
        <pt x="350" y="1534" on="0"/>
        <pt x="350" y="1507" on="1"/>
        <pt x="350" y="1432" on="0"/>
        <pt x="334" y="936" on="1"/>
        <pt x="791" y="918" on="0"/>
        <pt x="1364" y="944" on="1"/>
        <pt x="1364" y="1364" on="0"/>
        <pt x="1376" y="1578" on="1"/>
        <pt x="1376" y="1602" on="0"/>
        <pt x="1350" y="1626" on="1"/>
        <pt x="1268" y="1700" on="1"/>
        <pt x="1244" y="1724" on="0"/>
        <pt x="1244" y="1746" on="1"/>
        <pt x="1244" y="1777" on="0"/>
        <pt x="1283" y="1777" on="1"/>
        <pt x="1379" y="1766" on="1"/>
        <pt x="1432" y="1766" on="0"/>
        <pt x="1479" y="1776" on="1"/>
        <pt x="1546" y="1790" on="0"/>
        <pt x="1605" y="1790" on="0"/>
        <pt x="1605" y="1762" on="1"/>
        <pt x="1605" y="1740" on="0"/>
        <pt x="1548" y="1694" on="0"/>
        <pt x="1508" y="1646" on="0"/>
        <pt x="1495" y="1624" on="1"/>
        <pt x="1470" y="1583" on="0"/>
        <pt x="1469" y="1516" on="0"/>
        <pt x="1467" y="1357" on="0"/>
        <pt x="1464" y="1149" on="0"/>
        <pt x="1461" y="911" on="0"/>
        <pt x="1460" y="794" on="1"/>
        <pt x="1453" y="292" on="0"/>
        <pt x="1466" y="209" on="0"/>
        <pt x="1479" y="183" on="0"/>
        <pt x="1489" y="172" on="1"/>
        <pt x="1548" y="107" on="1"/>
        <pt x="1571" y="77" on="0"/>
        <pt x="1571" y="61" on="1"/>
        <pt x="1571" y="27" on="0"/>
        <pt x="1511" y="27" on="1"/>
        <pt x="1411" y="29" on="1"/>
        <pt x="1381" y="29" on="0"/>
        <pt x="1346" y="22" on="1"/>
        <pt x="1248" y="2" on="0"/>
        <pt x="1248" y="54" on="1"/>
        <pt x="1248" y="72" on="0"/>
        <pt x="1272" y="102" on="0"/>
        <pt x="1292" y="130" on="1"/>
        <pt x="1334" y="190" on="1"/>
        <pt x="1357" y="221" on="0"/>
        <pt x="1358" y="241" on="1"/>
        <pt x="1361" y="336" on="0"/>
        <pt x="1364" y="854" on="1"/>
        <pt x="585" y="827" on="0"/>
        <pt x="331" y="843" on="1"/>
        <pt x="311" y="258" on="0"/>
        <pt x="328" y="184" on="0"/>
        <pt x="351" y="149" on="0"/>
        <pt x="385" y="116" on="0"/>
        <pt x="402" y="96" on="1"/>
        <pt x="472" y="8" on="0"/>
        <pt x="371" y="8" on="1"/>
        <pt x="271" y="10" on="1"/>
        <pt x="241" y="10" on="0"/>
        <pt x="206" y="3" on="1"/>
        <pt x="108" y="-17" on="0"/>
      </contour>
    </TTGlyph>
    <TTGlyph name="I" xMin="174" yMin="-9" xMax="538" yMax="1567">
      <contour>
        <pt x="302" y="1" on="1"/>
        <pt x="229" y="-9" on="1"/>
        <pt x="174" y="-9" on="0"/>
        <pt x="174" y="33" on="1"/>
        <pt x="176" y="50" on="0"/>
        <pt x="201" y="80" on="0"/>
        <pt x="227" y="113" on="0"/>
        <pt x="260" y="150" on="0"/>
        <pt x="273" y="166" on="1"/>
        <pt x="303" y="205" on="0"/>
        <pt x="303" y="222" on="1"/>
        <pt x="307" y="918" on="1"/>
        <pt x="307" y="1157" on="0"/>
        <pt x="302" y="1345" on="1"/>
        <pt x="302" y="1376" on="0"/>
        <pt x="234" y="1440" on="1"/>
        <pt x="176" y="1495" on="0"/>
        <pt x="176" y="1524" on="1"/>
        <pt x="176" y="1567" on="0"/>
        <pt x="262" y="1545" on="1"/>
        <pt x="334" y="1527" on="0"/>
        <pt x="471" y="1552" on="0"/>
        <pt x="538" y="1552" on="0"/>
        <pt x="538" y="1524" on="1"/>
        <pt x="538" y="1503" on="0"/>
        <pt x="469" y="1450" on="0"/>
        <pt x="426" y="1406" on="0"/>
        <pt x="415" y="1388" on="1"/>
        <pt x="399" y="1362" on="0"/>
        <pt x="399" y="1325" on="1"/>
        <pt x="403" y="836" on="1"/>
        <pt x="393" y="266" on="1"/>
        <pt x="393" y="236" on="1"/>
        <pt x="393" y="222" on="0"/>
        <pt x="396" y="174" on="0"/>
        <pt x="447" y="110" on="0"/>
        <pt x="466" y="84" on="1"/>
        <pt x="497" y="42" on="0"/>
        <pt x="497" y="24" on="1"/>
        <pt x="497" y="-8" on="0"/>
        <pt x="443" y="-8" on="1"/>
      </contour>
    </TTGlyph>
    <TTGlyph name="IJ" xMin="141" yMin="-369" xMax="1183" yMax="1592">
      <contour>
        <pt x="204" y="331" on="1"/>
        <pt x="149" y="331" on="0"/>
        <pt x="149" y="373" on="1"/>
        <pt x="150" y="391" on="0"/>
        <pt x="176" y="420" on="0"/>
        <pt x="202" y="453" on="0"/>
        <pt x="234" y="491" on="0"/>
        <pt x="248" y="508" on="1"/>
        <pt x="278" y="545" on="0"/>
        <pt x="278" y="562" on="1"/>
        <pt x="278" y="730" on="1"/>
        <pt x="278" y="795" on="0"/>
        <pt x="267" y="1345" on="1"/>
        <pt x="267" y="1376" on="0"/>
        <pt x="198" y="1440" on="1"/>
        <pt x="141" y="1495" on="0"/>
        <pt x="141" y="1524" on="1"/>
        <pt x="141" y="1567" on="0"/>
        <pt x="228" y="1545" on="1"/>
        <pt x="299" y="1527" on="0"/>
        <pt x="436" y="1552" on="0"/>
        <pt x="503" y="1552" on="0"/>
        <pt x="503" y="1524" on="1"/>
        <pt x="503" y="1503" on="0"/>
        <pt x="458" y="1469" on="1"/>
        <pt x="366" y="1398" on="0"/>
        <pt x="364" y="1348" on="1"/>
        <pt x="362" y="1094" on="1"/>
        <pt x="362" y="849" on="1"/>
        <pt x="362" y="669" on="0"/>
        <pt x="369" y="532" on="0"/>
        <pt x="385" y="498" on="0"/>
        <pt x="396" y="482" on="1"/>
        <pt x="451" y="411" on="1"/>
        <pt x="506" y="332" on="0"/>
        <pt x="418" y="332" on="1"/>
        <pt x="277" y="341" on="1"/>
      </contour>
      <contour>
        <pt x="1119" y="1576" on="1"/>
        <pt x="1183" y="1576" on="0"/>
        <pt x="1113" y="1503" on="1"/>
        <pt x="1030" y="1422" on="1"/>
        <pt x="1009" y="1399" on="0"/>
        <pt x="1007" y="1375" on="1"/>
        <pt x="990" y="586" on="1"/>
        <pt x="988" y="488" on="0"/>
        <pt x="976" y="288" on="0"/>
        <pt x="921" y="128" on="0"/>
        <pt x="870" y="66" on="1"/>
        <pt x="772" y="-51" on="0"/>
        <pt x="558" y="-132" on="1"/>
        <pt x="529" y="-143" on="0"/>
        <pt x="455" y="-231" on="0"/>
        <pt x="436" y="-260" on="0"/>
        <pt x="418" y="-289" on="0"/>
        <pt x="408" y="-302" on="1"/>
        <pt x="357" y="-369" on="0"/>
        <pt x="346" y="-291" on="1"/>
        <pt x="331" y="-203" on="0"/>
        <pt x="298" y="-126" on="0"/>
        <pt x="283" y="-93" on="0"/>
        <pt x="268" y="-61" on="0"/>
        <pt x="260" y="-46" on="1"/>
        <pt x="224" y="29" on="0"/>
        <pt x="264" y="29" on="1"/>
        <pt x="282" y="29" on="0"/>
        <pt x="356" y="1" on="0"/>
        <pt x="417" y="-20" on="0"/>
        <pt x="438" y="-26" on="1"/>
        <pt x="518" y="-48" on="0"/>
        <pt x="635" y="-8" on="0"/>
        <pt x="672" y="16" on="1"/>
        <pt x="850" y="126" on="0"/>
        <pt x="880" y="334" on="1"/>
        <pt x="893" y="419" on="0"/>
        <pt x="908" y="1022" on="0"/>
        <pt x="910" y="1098" on="1"/>
        <pt x="915" y="1316" on="1"/>
        <pt x="916" y="1339" on="1"/>
        <pt x="916" y="1389" on="0"/>
        <pt x="893" y="1416" on="0"/>
        <pt x="860" y="1449" on="0"/>
        <pt x="842" y="1466" on="1"/>
        <pt x="799" y="1507" on="0"/>
        <pt x="788" y="1514" on="1"/>
        <pt x="773" y="1524" on="0"/>
        <pt x="773" y="1558" on="1"/>
        <pt x="773" y="1592" on="0"/>
        <pt x="801" y="1592" on="1"/>
        <pt x="926" y="1572" on="1"/>
        <pt x="943" y="1570" on="0"/>
        <pt x="959" y="1570" on="1"/>
        <pt x="989" y="1570" on="1"/>
      </contour>
    </TTGlyph>
    <TTGlyph name="Iacute" xMin="160" yMin="-9" xMax="621" yMax="2046">
      <component glyphName="I" x="0" y="0" flags="0x1204"/>
      <component glyphName="acute.cap" x="-73" y="0" flags="0x1004"/>
    </TTGlyph>
    <TTGlyph name="Icircumflex" xMin="-85" yMin="-9" xMax="806" yMax="2014">
      <component glyphName="I" x="0" y="0" flags="0x1204"/>
      <component glyphName="circumflex.cap" x="-190" y="78" flags="0x1004"/>
    </TTGlyph>
    <TTGlyph name="Idieresis" xMin="-55" yMin="-9" xMax="749" yMax="1917">
      <component glyphName="I" x="0" y="0" flags="0x1204"/>
      <component glyphName="dieresis.cap" x="-88" y="0" flags="0x1004"/>
    </TTGlyph>
    <TTGlyph name="Igrave" xMin="57" yMin="-9" xMax="538" yMax="2019">
      <component glyphName="I" x="0" y="0" flags="0x1204"/>
      <component glyphName="grave.cap" x="-25" y="0" flags="0x1004"/>
    </TTGlyph>
    <TTGlyph name="Imacron" xMin="-6" yMin="-9" xMax="645" yMax="2094">
      <component glyphName="I" x="-34" y="0" flags="0x1004"/>
      <component glyphName="macron.cap" x="-139" y="0" flags="0x1004"/>
    </TTGlyph>
    <TTGlyph name="Itilde" xMin="-148" yMin="-9" xMax="863" yMax="2018">
      <component glyphName="I" x="0" y="0" flags="0x1204"/>
      <component glyphName="tilde.cap" x="-242" y="0" flags="0x1004"/>
    </TTGlyph>
    <TTGlyph name="J" xMin="7" yMin="-331" xMax="966" yMax="1630">
      <contour>
        <pt x="902" y="1614" on="1"/>
        <pt x="966" y="1614" on="0"/>
        <pt x="896" y="1541" on="1"/>
        <pt x="813" y="1460" on="1"/>
        <pt x="792" y="1437" on="0"/>
        <pt x="790" y="1413" on="1"/>
        <pt x="774" y="624" on="1"/>
        <pt x="771" y="526" on="0"/>
        <pt x="759" y="326" on="0"/>
        <pt x="704" y="166" on="0"/>
        <pt x="652" y="104" on="1"/>
        <pt x="555" y="-13" on="0"/>
        <pt x="341" y="-94" on="1"/>
        <pt x="312" y="-105" on="0"/>
        <pt x="238" y="-193" on="0"/>
        <pt x="219" y="-222" on="0"/>
        <pt x="201" y="-251" on="0"/>
        <pt x="191" y="-264" on="1"/>
        <pt x="140" y="-331" on="0"/>
        <pt x="129" y="-253" on="1"/>
        <pt x="114" y="-165" on="0"/>
        <pt x="81" y="-88" on="0"/>
        <pt x="66" y="-55" on="0"/>
        <pt x="51" y="-23" on="0"/>
        <pt x="44" y="-8" on="1"/>
        <pt x="7" y="67" on="0"/>
        <pt x="47" y="67" on="1"/>
        <pt x="65" y="67" on="0"/>
        <pt x="139" y="39" on="0"/>
        <pt x="200" y="18" on="0"/>
        <pt x="222" y="12" on="1"/>
        <pt x="301" y="-10" on="0"/>
        <pt x="418" y="30" on="0"/>
        <pt x="456" y="54" on="1"/>
        <pt x="633" y="164" on="0"/>
        <pt x="664" y="372" on="1"/>
        <pt x="676" y="457" on="0"/>
        <pt x="691" y="1060" on="0"/>
        <pt x="693" y="1136" on="1"/>
        <pt x="698" y="1354" on="1"/>
        <pt x="699" y="1377" on="1"/>
        <pt x="699" y="1427" on="0"/>
        <pt x="676" y="1454" on="0"/>
        <pt x="643" y="1487" on="0"/>
        <pt x="625" y="1504" on="1"/>
        <pt x="582" y="1545" on="0"/>
        <pt x="571" y="1552" on="1"/>
        <pt x="556" y="1562" on="0"/>
        <pt x="556" y="1596" on="1"/>
        <pt x="556" y="1630" on="0"/>
        <pt x="584" y="1630" on="1"/>
        <pt x="709" y="1610" on="1"/>
        <pt x="726" y="1608" on="0"/>
        <pt x="742" y="1608" on="1"/>
        <pt x="772" y="1608" on="1"/>
      </contour>
    </TTGlyph>
    <TTGlyph name="Jcircumflex" xMin="-36" yMin="-331" xMax="1142" yMax="2102">
      <component glyphName="J" x="-43" y="0" flags="0x1004"/>
      <component glyphName="circumflex.cap" x="146" y="166" flags="0x1004"/>
    </TTGlyph>
    <TTGlyph name="K" xMin="130" yMin="-142" xMax="1435" yMax="1646">
      <contour>
        <pt x="183" y="-102" on="1"/>
        <pt x="130" y="-102" on="0"/>
        <pt x="130" y="-63" on="1"/>
        <pt x="130" y="-34" on="0"/>
        <pt x="222" y="62" on="0"/>
        <pt x="264" y="112" on="0"/>
        <pt x="266" y="132" on="1"/>
        <pt x="332" y="984" on="0"/>
        <pt x="320" y="1433" on="1"/>
        <pt x="320" y="1466" on="0"/>
        <pt x="248" y="1533" on="1"/>
        <pt x="228" y="1551" on="0"/>
        <pt x="186" y="1593" on="0"/>
        <pt x="186" y="1615" on="1"/>
        <pt x="186" y="1646" on="0"/>
        <pt x="225" y="1646" on="1"/>
        <pt x="351" y="1635" on="1"/>
        <pt x="408" y="1635" on="0"/>
        <pt x="482" y="1645" on="0"/>
        <pt x="505" y="1645" on="1"/>
        <pt x="556" y="1645" on="0"/>
        <pt x="556" y="1611" on="1"/>
        <pt x="556" y="1589" on="0"/>
        <pt x="514" y="1555" on="1"/>
        <pt x="417" y="1476" on="0"/>
        <pt x="417" y="1441" on="1"/>
        <pt x="418" y="1349" on="1"/>
        <pt x="418" y="1084" on="0"/>
        <pt x="405" y="863" on="1"/>
        <pt x="400" y="781" on="1"/>
        <pt x="557" y="910" on="0"/>
        <pt x="748" y="1091" on="1"/>
        <pt x="987" y="1319" on="0"/>
        <pt x="1074" y="1408" on="1"/>
        <pt x="1095" y="1444" on="0"/>
        <pt x="1106" y="1554" on="1"/>
        <pt x="1115" y="1609" on="0"/>
        <pt x="1149" y="1609" on="1"/>
        <pt x="1170" y="1609" on="0"/>
        <pt x="1201" y="1571" on="0"/>
        <pt x="1218" y="1543" on="1"/>
        <pt x="1270" y="1458" on="0"/>
        <pt x="1303" y="1433" on="1"/>
        <pt x="1374" y="1378" on="0"/>
        <pt x="1346" y="1352" on="1"/>
        <pt x="1330" y="1338" on="0"/>
        <pt x="1284" y="1338" on="1"/>
        <pt x="1187" y="1354" on="0"/>
        <pt x="1138" y="1324" on="1"/>
        <pt x="1137" y="1324" on="1"/>
        <pt x="1093" y="1298" on="0"/>
        <pt x="510" y="759" on="0"/>
        <pt x="475" y="727" on="1"/>
        <pt x="793" y="450" on="0"/>
        <pt x="1165" y="166" on="1"/>
        <pt x="1213" y="148" on="0"/>
        <pt x="1325" y="143" on="0"/>
        <pt x="1402" y="137" on="0"/>
        <pt x="1435" y="123" on="0"/>
        <pt x="1435" y="90" on="0"/>
        <pt x="1423" y="70" on="0"/>
        <pt x="1413" y="62" on="1"/>
        <pt x="1369" y="31" on="1"/>
        <pt x="1328" y="-6" on="0"/>
        <pt x="1270" y="-110" on="0"/>
        <pt x="1245" y="-142" on="0"/>
        <pt x="1227" y="-142" on="1"/>
        <pt x="1192" y="-142" on="0"/>
        <pt x="1182" y="-94" on="1"/>
        <pt x="1169" y="-33" on="0"/>
        <pt x="1114" y="89" on="0"/>
        <pt x="1107" y="97" on="1"/>
        <pt x="1076" y="122" on="1"/>
        <pt x="592" y="514" on="0"/>
        <pt x="415" y="671" on="1"/>
        <pt x="392" y="649" on="1"/>
        <pt x="365" y="276" on="0"/>
        <pt x="365" y="159" on="0"/>
        <pt x="373" y="108" on="0"/>
        <pt x="383" y="83" on="1"/>
        <pt x="404" y="32" on="0"/>
        <pt x="430" y="-1" on="1"/>
        <pt x="469" y="-49" on="0"/>
        <pt x="469" y="-66" on="1"/>
        <pt x="469" y="-100" on="0"/>
        <pt x="409" y="-100" on="1"/>
        <pt x="257" y="-91" on="1"/>
        <pt x="231" y="-91" on="0"/>
        <pt x="219" y="-95" on="1"/>
        <pt x="198" y="-102" on="0"/>
      </contour>
    </TTGlyph>
    <TTGlyph name="Kcommaaccent" xMin="130" yMin="-454" xMax="1435" yMax="1646">
      <component glyphName="K" x="0" y="0" flags="0x1004"/>
      <component glyphName="commaaccent" x="448" y="0" flags="0x1004"/>
    </TTGlyph>
    <TTGlyph name="L" xMin="107" yMin="-159" xMax="1150" yMax="1532">
      <contour>
        <pt x="188" y="-70" on="1"/>
        <pt x="107" y="-70" on="0"/>
        <pt x="107" y="-33" on="1"/>
        <pt x="107" y="-15" on="0"/>
        <pt x="135" y="16" on="0"/>
        <pt x="163" y="49" on="0"/>
        <pt x="199" y="81" on="0"/>
        <pt x="214" y="96" on="1"/>
        <pt x="251" y="130" on="0"/>
        <pt x="251" y="144" on="1"/>
        <pt x="251" y="351" on="0"/>
        <pt x="266" y="611" on="1"/>
        <pt x="293" y="1104" on="0"/>
        <pt x="293" y="1311" on="1"/>
        <pt x="293" y="1344" on="0"/>
        <pt x="230" y="1408" on="1"/>
        <pt x="174" y="1463" on="0"/>
        <pt x="174" y="1492" on="1"/>
        <pt x="174" y="1532" on="0"/>
        <pt x="234" y="1519" on="1"/>
        <pt x="299" y="1505" on="1"/>
        <pt x="349" y="1496" on="0"/>
        <pt x="464" y="1512" on="0"/>
        <pt x="487" y="1512" on="1"/>
        <pt x="536" y="1512" on="0"/>
        <pt x="536" y="1483" on="1"/>
        <pt x="536" y="1465" on="0"/>
        <pt x="504" y="1439" on="1"/>
        <pt x="422" y="1384" on="0"/>
        <pt x="392" y="1312" on="1"/>
        <pt x="386" y="1295" on="0"/>
        <pt x="375" y="862" on="0"/>
        <pt x="370" y="704" on="1"/>
        <pt x="351" y="174" on="1"/>
        <pt x="539" y="123" on="0"/>
        <pt x="949" y="86" on="1"/>
        <pt x="999" y="86" on="0"/>
        <pt x="1074" y="155" on="1"/>
        <pt x="1093" y="173" on="0"/>
        <pt x="1111" y="173" on="1"/>
        <pt x="1150" y="173" on="0"/>
        <pt x="1150" y="127" on="1"/>
        <pt x="1118" y="-8" on="1"/>
        <pt x="1112" y="-38" on="0"/>
        <pt x="1112" y="-72" on="1"/>
        <pt x="1114" y="-108" on="1"/>
        <pt x="1114" y="-159" on="0"/>
        <pt x="1080" y="-159" on="1"/>
        <pt x="1061" y="-159" on="0"/>
        <pt x="1028" y="-122" on="0"/>
        <pt x="1010" y="-98" on="1"/>
        <pt x="961" y="-33" on="0"/>
        <pt x="884" y="-12" on="0"/>
        <pt x="793" y="7" on="0"/>
        <pt x="690" y="25" on="0"/>
        <pt x="583" y="42" on="0"/>
        <pt x="532" y="49" on="1"/>
        <pt x="357" y="73" on="1"/>
        <pt x="368" y="7" on="0"/>
        <pt x="388" y="-23" on="1"/>
        <pt x="420" y="-73" on="0"/>
        <pt x="420" y="-87" on="1"/>
        <pt x="420" y="-126" on="0"/>
        <pt x="346" y="-117" on="1"/>
        <pt x="322" y="-114" on="0"/>
        <pt x="281" y="-99" on="1"/>
        <pt x="206" y="-70" on="0"/>
      </contour>
    </TTGlyph>
    <TTGlyph name="Ldot" xMin="83" yMin="-159" xMax="1229" yMax="1532">
      <component glyphName="L" x="-24" y="0" flags="0x1004"/>
      <component glyphName="period" x="663" y="638" flags="0x1004"/>
    </TTGlyph>
    <TTGlyph name="Lslash" xMin="-91" yMin="-126" xMax="1149" yMax="1532">
      <contour>
        <pt x="187" y="-70" on="1"/>
        <pt x="106" y="-70" on="0"/>
        <pt x="106" y="-33" on="1"/>
        <pt x="106" y="-15" on="0"/>
        <pt x="134" y="16" on="0"/>
        <pt x="162" y="49" on="0"/>
        <pt x="198" y="81" on="0"/>
        <pt x="214" y="96" on="1"/>
        <pt x="250" y="130" on="0"/>
        <pt x="250" y="144" on="1"/>
        <pt x="250" y="297" on="0"/>
        <pt x="263" y="567" on="1"/>
        <pt x="206" y="535" on="1"/>
        <pt x="163" y="511" on="0"/>
        <pt x="125" y="429" on="0"/>
        <pt x="112" y="381" on="1"/>
        <pt x="95" y="338" on="0"/>
        <pt x="68" y="338" on="1"/>
        <pt x="46" y="338" on="0"/>
        <pt x="35" y="376" on="1"/>
        <pt x="5" y="474" on="0"/>
        <pt x="-60" y="577" on="1"/>
        <pt x="-91" y="625" on="0"/>
        <pt x="-46" y="625" on="1"/>
        <pt x="-44" y="625" on="0"/>
        <pt x="29" y="606" on="1"/>
        <pt x="121" y="582" on="0"/>
        <pt x="128" y="589" on="1"/>
        <pt x="174" y="619" on="0"/>
        <pt x="269" y="665" on="1"/>
        <pt x="292" y="1128" on="0"/>
        <pt x="292" y="1311" on="1"/>
        <pt x="292" y="1344" on="0"/>
        <pt x="228" y="1408" on="1"/>
        <pt x="173" y="1463" on="0"/>
        <pt x="173" y="1492" on="1"/>
        <pt x="173" y="1532" on="0"/>
        <pt x="234" y="1519" on="1"/>
        <pt x="298" y="1505" on="1"/>
        <pt x="348" y="1496" on="0"/>
        <pt x="463" y="1512" on="0"/>
        <pt x="486" y="1512" on="1"/>
        <pt x="535" y="1512" on="0"/>
        <pt x="535" y="1483" on="1"/>
        <pt x="535" y="1465" on="0"/>
        <pt x="503" y="1439" on="1"/>
        <pt x="421" y="1384" on="0"/>
        <pt x="392" y="1312" on="1"/>
        <pt x="385" y="1295" on="0"/>
        <pt x="374" y="862" on="0"/>
        <pt x="371" y="770" on="1"/>
        <pt x="369" y="715" on="1"/>
        <pt x="532" y="802" on="0"/>
        <pt x="633" y="875" on="1"/>
        <pt x="662" y="894" on="0"/>
        <pt x="689" y="958" on="0"/>
        <pt x="707" y="1019" on="0"/>
        <pt x="727" y="1064" on="0"/>
        <pt x="761" y="1064" on="0"/>
        <pt x="783" y="1041" on="0"/>
        <pt x="794" y="1020" on="1"/>
        <pt x="850" y="913" on="1"/>
        <pt x="904" y="842" on="1"/>
        <pt x="909" y="833" on="0"/>
        <pt x="909" y="820" on="1"/>
        <pt x="909" y="782" on="0"/>
        <pt x="864" y="782" on="1"/>
        <pt x="765" y="794" on="1"/>
        <pt x="731" y="798" on="0"/>
        <pt x="701" y="798" on="0"/>
        <pt x="634" y="767" on="0"/>
        <pt x="586" y="742" on="1"/>
        <pt x="493" y="695" on="0"/>
        <pt x="366" y="624" on="1"/>
        <pt x="350" y="174" on="1"/>
        <pt x="530" y="139" on="0"/>
        <pt x="875" y="128" on="1"/>
        <pt x="920" y="126" on="0"/>
        <pt x="944" y="126" on="1"/>
        <pt x="998" y="126" on="0"/>
        <pt x="1073" y="195" on="1"/>
        <pt x="1092" y="213" on="0"/>
        <pt x="1110" y="213" on="1"/>
        <pt x="1149" y="213" on="0"/>
        <pt x="1149" y="167" on="1"/>
        <pt x="1117" y="32" on="1"/>
        <pt x="1111" y="2" on="0"/>
        <pt x="1111" y="-32" on="1"/>
        <pt x="1113" y="-68" on="1"/>
        <pt x="1113" y="-119" on="0"/>
        <pt x="1079" y="-119" on="1"/>
        <pt x="1058" y="-119" on="0"/>
        <pt x="1024" y="-77" on="0"/>
        <pt x="1007" y="-52" on="1"/>
        <pt x="962" y="15" on="0"/>
        <pt x="884" y="22" on="0"/>
        <pt x="792" y="32" on="0"/>
        <pt x="690" y="42" on="0"/>
        <pt x="583" y="53" on="0"/>
        <pt x="532" y="58" on="1"/>
        <pt x="414" y="70" on="0"/>
        <pt x="356" y="73" on="1"/>
        <pt x="367" y="7" on="0"/>
        <pt x="387" y="-23" on="1"/>
        <pt x="419" y="-73" on="0"/>
        <pt x="419" y="-87" on="1"/>
        <pt x="419" y="-126" on="0"/>
        <pt x="345" y="-117" on="1"/>
        <pt x="321" y="-114" on="0"/>
        <pt x="280" y="-99" on="1"/>
        <pt x="205" y="-70" on="0"/>
      </contour>
    </TTGlyph>
    <TTGlyph name="M" xMin="88" yMin="-35" xMax="1818" yMax="1537">
      <contour>
        <pt x="191" y="33" on="1"/>
        <pt x="145" y="27" on="1"/>
        <pt x="124" y="27" on="0"/>
        <pt x="88" y="47" on="0"/>
        <pt x="90" y="91" on="0"/>
        <pt x="136" y="139" on="0"/>
        <pt x="190" y="187" on="0"/>
        <pt x="237" y="233" on="0"/>
        <pt x="240" y="253" on="1"/>
        <pt x="360" y="1053" on="1"/>
        <pt x="396" y="1254" on="0"/>
        <pt x="399" y="1323" on="0"/>
        <pt x="377" y="1351" on="0"/>
        <pt x="344" y="1380" on="0"/>
        <pt x="305" y="1410" on="0"/>
        <pt x="288" y="1425" on="1"/>
        <pt x="250" y="1460" on="0"/>
        <pt x="250" y="1484" on="1"/>
        <pt x="250" y="1515" on="0"/>
        <pt x="294" y="1515" on="1"/>
        <pt x="358" y="1511" on="1"/>
        <pt x="441" y="1511" on="0"/>
        <pt x="561" y="1537" on="0"/>
        <pt x="578" y="1537" on="1"/>
        <pt x="617" y="1537" on="0"/>
        <pt x="619" y="1506" on="1"/>
        <pt x="621" y="1485" on="0"/>
        <pt x="586" y="1452" on="1"/>
        <pt x="515" y="1385" on="0"/>
        <pt x="498" y="1342" on="1"/>
        <pt x="640" y="982" on="1"/>
        <pt x="819" y="524" on="1"/>
        <pt x="869" y="396" on="0"/>
        <pt x="905" y="287" on="0"/>
        <pt x="932" y="287" on="0"/>
        <pt x="950" y="332" on="0"/>
        <pt x="985" y="408" on="0"/>
        <pt x="1039" y="523" on="0"/>
        <pt x="1108" y="670" on="0"/>
        <pt x="1184" y="830" on="0"/>
        <pt x="1262" y="994" on="0"/>
        <pt x="1298" y="1070" on="1"/>
        <pt x="1406" y="1299" on="0"/>
        <pt x="1414" y="1317" on="1"/>
        <pt x="1404" y="1339" on="0"/>
        <pt x="1337" y="1422" on="0"/>
        <pt x="1312" y="1459" on="0"/>
        <pt x="1312" y="1474" on="1"/>
        <pt x="1312" y="1504" on="0"/>
        <pt x="1358" y="1504" on="1"/>
        <pt x="1447" y="1498" on="1"/>
        <pt x="1611" y="1511" on="1"/>
        <pt x="1653" y="1511" on="0"/>
        <pt x="1653" y="1484" on="1"/>
        <pt x="1653" y="1461" on="0"/>
        <pt x="1624" y="1434" on="0"/>
        <pt x="1591" y="1391" on="0"/>
        <pt x="1573" y="1364" on="1"/>
        <pt x="1526" y="1296" on="0"/>
        <pt x="1521" y="1278" on="1"/>
        <pt x="1522" y="1267" on="0"/>
        <pt x="1528" y="1219" on="1"/>
        <pt x="1543" y="1099" on="1"/>
        <pt x="1643" y="301" on="0"/>
        <pt x="1665" y="234" on="1"/>
        <pt x="1676" y="196" on="0"/>
        <pt x="1750" y="140" on="1"/>
        <pt x="1776" y="119" on="0"/>
        <pt x="1818" y="82" on="0"/>
        <pt x="1818" y="53" on="0"/>
        <pt x="1803" y="38" on="0"/>
        <pt x="1790" y="34" on="1"/>
        <pt x="1765" y="26" on="0"/>
        <pt x="1702" y="21" on="0"/>
        <pt x="1638" y="2" on="0"/>
        <pt x="1608" y="-8" on="1"/>
        <pt x="1534" y="-35" on="0"/>
        <pt x="1516" y="-35" on="1"/>
        <pt x="1487" y="-35" on="0"/>
        <pt x="1487" y="-7" on="1"/>
        <pt x="1487" y="12" on="0"/>
        <pt x="1505" y="39" on="0"/>
        <pt x="1527" y="88" on="0"/>
        <pt x="1538" y="118" on="1"/>
        <pt x="1568" y="196" on="0"/>
        <pt x="1570" y="228" on="0"/>
        <pt x="1561" y="299" on="0"/>
        <pt x="1554" y="346" on="1"/>
        <pt x="1516" y="599" on="1"/>
        <pt x="1486" y="812" on="1"/>
        <pt x="1437" y="1177" on="1"/>
        <pt x="1254" y="793" on="1"/>
        <pt x="1006" y="268" on="0"/>
        <pt x="982" y="201" on="0"/>
        <pt x="965" y="153" on="0"/>
        <pt x="956" y="136" on="1"/>
        <pt x="936" y="99" on="0"/>
        <pt x="912" y="99" on="1"/>
        <pt x="888" y="99" on="0"/>
        <pt x="879" y="122" on="1"/>
        <pt x="844" y="216" on="1"/>
        <pt x="805" y="302" on="0"/>
        <pt x="669" y="655" on="1"/>
        <pt x="469" y="1173" on="1"/>
        <pt x="405" y="730" on="1"/>
        <pt x="341" y="327" on="0"/>
        <pt x="341" y="253" on="1"/>
        <pt x="341" y="184" on="0"/>
        <pt x="406" y="87" on="1"/>
        <pt x="454" y="9" on="0"/>
        <pt x="379" y="9" on="1"/>
        <pt x="246" y="29" on="1"/>
        <pt x="215" y="33" on="0"/>
      </contour>
    </TTGlyph>
    <TTGlyph name="N" xMin="87" yMin="-38" xMax="1680" yMax="1507">
      <contour>
        <pt x="402" y="22" on="1"/>
        <pt x="402" y="-18" on="0"/>
        <pt x="309" y="1" on="1"/>
        <pt x="240" y="16" on="0"/>
        <pt x="116" y="16" on="1"/>
        <pt x="87" y="16" on="0"/>
        <pt x="87" y="40" on="1"/>
        <pt x="87" y="70" on="0"/>
        <pt x="147" y="100" on="0"/>
        <pt x="181" y="127" on="0"/>
        <pt x="190" y="144" on="1"/>
        <pt x="208" y="176" on="0"/>
        <pt x="230" y="357" on="0"/>
        <pt x="247" y="506" on="0"/>
        <pt x="266" y="686" on="0"/>
        <pt x="286" y="867" on="0"/>
        <pt x="295" y="952" on="1"/>
        <pt x="295" y="952" on="0"/>
        <pt x="326" y="1245" on="1"/>
        <pt x="326" y="1288" on="0"/>
        <pt x="260" y="1344" on="1"/>
        <pt x="241" y="1360" on="0"/>
        <pt x="220" y="1370" on="1"/>
        <pt x="182" y="1387" on="0"/>
        <pt x="182" y="1409" on="1"/>
        <pt x="182" y="1452" on="0"/>
        <pt x="228" y="1452" on="1"/>
        <pt x="371" y="1443" on="1"/>
        <pt x="415" y="1443" on="0"/>
        <pt x="484" y="1454" on="0"/>
        <pt x="545" y="1454" on="0"/>
        <pt x="545" y="1427" on="1"/>
        <pt x="545" y="1396" on="0"/>
        <pt x="511" y="1380" on="1"/>
        <pt x="428" y="1341" on="0"/>
        <pt x="408" y="1274" on="1"/>
        <pt x="449" y="1178" on="0"/>
        <pt x="883" y="647" on="1"/>
        <pt x="1310" y="124" on="0"/>
        <pt x="1337" y="124" on="1"/>
        <pt x="1340" y="124" on="0"/>
        <pt x="1337" y="130" on="1"/>
        <pt x="1419" y="1296" on="1"/>
        <pt x="1419" y="1324" on="0"/>
        <pt x="1367" y="1398" on="0"/>
        <pt x="1317" y="1464" on="0"/>
        <pt x="1317" y="1482" on="1"/>
        <pt x="1317" y="1507" on="0"/>
        <pt x="1378" y="1507" on="0"/>
        <pt x="1448" y="1495" on="0"/>
        <pt x="1496" y="1495" on="1"/>
        <pt x="1601" y="1500" on="1"/>
        <pt x="1680" y="1500" on="0"/>
        <pt x="1610" y="1430" on="1"/>
        <pt x="1572" y="1392" on="1"/>
        <pt x="1531" y="1348" on="0"/>
        <pt x="1514" y="1305" on="0"/>
        <pt x="1504" y="1208" on="0"/>
        <pt x="1491" y="1052" on="0"/>
        <pt x="1477" y="854" on="0"/>
        <pt x="1462" y="641" on="0"/>
        <pt x="1449" y="429" on="0"/>
        <pt x="1444" y="338" on="1"/>
        <pt x="1433" y="136" on="0"/>
        <pt x="1433" y="74" on="1"/>
        <pt x="1434" y="41" on="1"/>
        <pt x="1434" y="-2" on="0"/>
        <pt x="1400" y="-38" on="0"/>
        <pt x="1384" y="-38" on="1"/>
        <pt x="1358" y="-38" on="0"/>
        <pt x="1337" y="-17" on="0"/>
        <pt x="1281" y="48" on="0"/>
        <pt x="1191" y="155" on="0"/>
        <pt x="1072" y="295" on="0"/>
        <pt x="940" y="452" on="0"/>
        <pt x="801" y="619" on="0"/>
        <pt x="669" y="780" on="0"/>
        <pt x="550" y="926" on="0"/>
        <pt x="504" y="984" on="1"/>
        <pt x="407" y="1108" on="0"/>
        <pt x="399" y="1132" on="1"/>
        <pt x="304" y="247" on="0"/>
        <pt x="304" y="226" on="1"/>
        <pt x="304" y="200" on="1"/>
        <pt x="304" y="158" on="0"/>
        <pt x="322" y="133" on="1"/>
        <pt x="322" y="133" on="0"/>
        <pt x="402" y="35" on="0"/>
      </contour>
    </TTGlyph>
    <TTGlyph name="Nacute" xMin="87" yMin="-38" xMax="1680" yMax="2046">
      <component glyphName="N" x="0" y="0" flags="0x1204"/>
      <component glyphName="acute.cap" x="498" y="0" flags="0x1004"/>
    </TTGlyph>
    <TTGlyph name="Ntilde" xMin="87" yMin="-38" xMax="1680" yMax="2018">
      <component glyphName="N" x="0" y="0" flags="0x1204"/>
      <component glyphName="tilde.cap" x="329" y="0" flags="0x1004"/>
    </TTGlyph>
    <TTGlyph name="O" xMin="105" yMin="-43" xMax="1338" yMax="1573">
      <contour>
        <pt x="1078" y="69" on="0"/>
        <pt x="855" y="-43" on="0"/>
        <pt x="651" y="-43" on="0"/>
        <pt x="499" y="-3" on="0"/>
        <pt x="361" y="81" on="0"/>
        <pt x="242" y="213" on="0"/>
        <pt x="198" y="306" on="1"/>
        <pt x="105" y="506" on="0"/>
        <pt x="105" y="791" on="1"/>
        <pt x="105" y="1138" on="0"/>
        <pt x="281" y="1356" on="1"/>
        <pt x="456" y="1573" on="0"/>
        <pt x="733" y="1573" on="1"/>
        <pt x="996" y="1573" on="0"/>
        <pt x="1154" y="1410" on="1"/>
        <pt x="1338" y="1218" on="0"/>
        <pt x="1338" y="813" on="1"/>
        <pt x="1338" y="413" on="0"/>
        <pt x="1160" y="178" on="1"/>
      </contour>
      <contour>
        <pt x="722" y="53" on="1"/>
        <pt x="784" y="52" on="0"/>
        <pt x="898" y="81" on="0"/>
        <pt x="1010" y="149" on="0"/>
        <pt x="1111" y="261" on="0"/>
        <pt x="1150" y="346" on="1"/>
        <pt x="1234" y="531" on="0"/>
        <pt x="1234" y="811" on="1"/>
        <pt x="1234" y="1365" on="0"/>
        <pt x="880" y="1460" on="1"/>
        <pt x="792" y="1483" on="0"/>
        <pt x="689" y="1483" on="0"/>
        <pt x="574" y="1458" on="0"/>
        <pt x="457" y="1400" on="0"/>
        <pt x="345" y="1303" on="0"/>
        <pt x="302" y="1230" on="1"/>
        <pt x="206" y="1069" on="0"/>
        <pt x="206" y="831" on="1"/>
        <pt x="206" y="295" on="0"/>
        <pt x="479" y="123" on="1"/>
        <pt x="586" y="55" on="0"/>
      </contour>
    </TTGlyph>
    <TTGlyph name="OE" xMin="133" yMin="-126" xMax="1898" yMax="1704">
      <contour>
        <pt x="990" y="-7" on="1"/>
        <pt x="951" y="-7" on="0"/>
        <pt x="951" y="19" on="1"/>
        <pt x="951" y="38" on="0"/>
        <pt x="993" y="67" on="1"/>
        <pt x="1021" y="86" on="0"/>
        <pt x="1043" y="121" on="1"/>
        <pt x="1076" y="172" on="0"/>
        <pt x="1078" y="194" on="1"/>
        <pt x="1090" y="402" on="1"/>
        <pt x="1040" y="270" on="0"/>
        <pt x="908" y="166" on="1"/>
        <pt x="781" y="68" on="0"/>
        <pt x="678" y="68" on="1"/>
        <pt x="549" y="68" on="0"/>
        <pt x="399" y="128" on="0"/>
        <pt x="290" y="216" on="0"/>
        <pt x="246" y="290" on="1"/>
        <pt x="149" y="454" on="0"/>
        <pt x="134" y="733" on="1"/>
        <pt x="133" y="745" on="0"/>
        <pt x="133" y="769" on="0"/>
        <pt x="133" y="781" on="1"/>
        <pt x="133" y="1064" on="0"/>
        <pt x="298" y="1253" on="1"/>
        <pt x="462" y="1441" on="0"/>
        <pt x="706" y="1441" on="1"/>
        <pt x="870" y="1441" on="0"/>
        <pt x="1002" y="1282" on="1"/>
        <pt x="1045" y="1231" on="0"/>
        <pt x="1079" y="1167" on="1"/>
        <pt x="1066" y="1385" on="1"/>
        <pt x="1064" y="1422" on="0"/>
        <pt x="1061" y="1466" on="0"/>
        <pt x="1043" y="1491" on="0"/>
        <pt x="1028" y="1503" on="1"/>
        <pt x="1016" y="1513" on="0"/>
        <pt x="980" y="1537" on="1"/>
        <pt x="924" y="1573" on="0"/>
        <pt x="924" y="1594" on="1"/>
        <pt x="924" y="1622" on="0"/>
        <pt x="972" y="1622" on="1"/>
        <pt x="1027" y="1620" on="1"/>
        <pt x="1079" y="1620" on="0"/>
        <pt x="1207" y="1652" on="0"/>
        <pt x="1219" y="1652" on="1"/>
        <pt x="1254" y="1652" on="0"/>
        <pt x="1254" y="1618" on="1"/>
        <pt x="1254" y="1596" on="0"/>
        <pt x="1203" y="1555" on="0"/>
        <pt x="1177" y="1519" on="0"/>
        <pt x="1170" y="1502" on="1"/>
        <pt x="1159" y="1475" on="0"/>
        <pt x="1159" y="1442" on="1"/>
        <pt x="1159" y="1442" on="0"/>
        <pt x="1160" y="1419" on="1"/>
        <pt x="1160" y="1394" on="1"/>
        <pt x="1406" y="1464" on="1"/>
        <pt x="1561" y="1511" on="0"/>
        <pt x="1626" y="1541" on="1"/>
        <pt x="1649" y="1553" on="0"/>
        <pt x="1714" y="1668" on="1"/>
        <pt x="1735" y="1704" on="0"/>
        <pt x="1780" y="1704" on="0"/>
        <pt x="1799" y="1663" on="0"/>
        <pt x="1805" y="1630" on="1"/>
        <pt x="1825" y="1524" on="0"/>
        <pt x="1865" y="1452" on="0"/>
        <pt x="1865" y="1434" on="1"/>
        <pt x="1865" y="1405" on="0"/>
        <pt x="1837" y="1405" on="1"/>
        <pt x="1815" y="1405" on="0"/>
        <pt x="1778" y="1424" on="1"/>
        <pt x="1708" y="1460" on="0"/>
        <pt x="1656" y="1460" on="0"/>
        <pt x="1589" y="1446" on="0"/>
        <pt x="1504" y="1423" on="0"/>
        <pt x="1406" y="1393" on="0"/>
        <pt x="1356" y="1376" on="1"/>
        <pt x="1233" y="1336" on="0"/>
        <pt x="1162" y="1315" on="1"/>
        <pt x="1169" y="1067" on="0"/>
        <pt x="1177" y="888" on="1"/>
        <pt x="1265" y="884" on="0"/>
        <pt x="1403" y="884" on="1"/>
        <pt x="1613" y="884" on="1"/>
        <pt x="1642" y="884" on="0"/>
        <pt x="1731" y="983" on="1"/>
        <pt x="1751" y="1005" on="0"/>
        <pt x="1772" y="1005" on="1"/>
        <pt x="1825" y="1005" on="0"/>
        <pt x="1810" y="924" on="1"/>
        <pt x="1790" y="824" on="0"/>
        <pt x="1790" y="766" on="1"/>
        <pt x="1796" y="693" on="1"/>
        <pt x="1796" y="654" on="0"/>
        <pt x="1763" y="654" on="1"/>
        <pt x="1743" y="654" on="0"/>
        <pt x="1709" y="694" on="0"/>
        <pt x="1675" y="742" on="0"/>
        <pt x="1637" y="784" on="0"/>
        <pt x="1588" y="788" on="0"/>
        <pt x="1498" y="795" on="0"/>
        <pt x="1444" y="798" on="1"/>
        <pt x="1300" y="806" on="0"/>
        <pt x="1226" y="806" on="1"/>
        <pt x="1181" y="805" on="1"/>
        <pt x="1182" y="780" on="0"/>
        <pt x="1182" y="732" on="0"/>
        <pt x="1182" y="648" on="1"/>
        <pt x="1170" y="264" on="1"/>
        <pt x="1454" y="172" on="1"/>
        <pt x="1667" y="106" on="0"/>
        <pt x="1718" y="106" on="0"/>
        <pt x="1766" y="125" on="0"/>
        <pt x="1789" y="136" on="1"/>
        <pt x="1852" y="166" on="0"/>
        <pt x="1869" y="166" on="1"/>
        <pt x="1898" y="166" on="0"/>
        <pt x="1898" y="138" on="1"/>
        <pt x="1898" y="119" on="0"/>
        <pt x="1866" y="67" on="1"/>
        <pt x="1806" y="-32" on="0"/>
        <pt x="1802" y="-59" on="1"/>
        <pt x="1792" y="-126" on="0"/>
        <pt x="1756" y="-126" on="1"/>
        <pt x="1722" y="-126" on="0"/>
        <pt x="1674" y="-15" on="1"/>
        <pt x="1663" y="12" on="0"/>
        <pt x="1650" y="23" on="1"/>
        <pt x="1517" y="71" on="0"/>
        <pt x="1233" y="155" on="0"/>
        <pt x="1178" y="172" on="1"/>
        <pt x="1178" y="123" on="0"/>
        <pt x="1216" y="80" on="1"/>
        <pt x="1230" y="64" on="0"/>
        <pt x="1254" y="35" on="0"/>
        <pt x="1254" y="-7" on="0"/>
        <pt x="1208" y="-7" on="1"/>
        <pt x="1065" y="-2" on="1"/>
      </contour>
      <contour>
        <pt x="680" y="140" on="0"/>
        <pt x="802" y="188" on="0"/>
        <pt x="892" y="257" on="0"/>
        <pt x="975" y="358" on="0"/>
        <pt x="1006" y="425" on="1"/>
        <pt x="1075" y="571" on="0"/>
        <pt x="1075" y="891" on="0"/>
        <pt x="1031" y="1084" on="0"/>
        <pt x="962" y="1215" on="0"/>
        <pt x="878" y="1294" on="0"/>
        <pt x="839" y="1316" on="1"/>
        <pt x="760" y="1359" on="0"/>
        <pt x="643" y="1359" on="0"/>
        <pt x="547" y="1334" on="0"/>
        <pt x="446" y="1279" on="0"/>
        <pt x="350" y="1189" on="0"/>
        <pt x="313" y="1124" on="1"/>
        <pt x="230" y="977" on="0"/>
        <pt x="230" y="770" on="1"/>
        <pt x="230" y="315" on="0"/>
        <pt x="484" y="190" on="1"/>
        <pt x="532" y="166" on="0"/>
      </contour>
    </TTGlyph>
    <TTGlyph name="Oacute" xMin="105" yMin="-43" xMax="1338" yMax="2070">
      <component glyphName="O" x="0" y="0" flags="0x1204"/>
      <component glyphName="acute.cap" x="308" y="24" flags="0x1004"/>
    </TTGlyph>
    <TTGlyph name="Ocircumflex" xMin="105" yMin="-43" xMax="1338" yMax="2091">
      <component glyphName="O" x="0" y="0" flags="0x1204"/>
      <component glyphName="circumflex.cap" x="166" y="155" flags="0x1004"/>
    </TTGlyph>
    <TTGlyph name="Odieresis" xMin="105" yMin="-43" xMax="1338" yMax="1994">
      <component glyphName="O" x="0" y="0" flags="0x1204"/>
      <component glyphName="dieresis.cap" x="268" y="77" flags="0x1004"/>
    </TTGlyph>
    <TTGlyph name="Ograve" xMin="105" yMin="-43" xMax="1338" yMax="2096">
      <component glyphName="O" x="0" y="0" flags="0x1204"/>
      <component glyphName="grave.cap" x="331" y="77" flags="0x1004"/>
    </TTGlyph>
    <TTGlyph name="Ohungarumlaut" xMin="105" yMin="-43" xMax="1339" yMax="2106">
      <component glyphName="O" x="0" y="0" flags="0x1204"/>
      <component glyphName="hungarumlaut.cap" x="182" y="0" flags="0x1004"/>
    </TTGlyph>
    <TTGlyph name="Omega" xMin="97" yMin="-163" xMax="1550" yMax="1638">
      <contour>
        <pt x="105" y="-84" on="1"/>
        <pt x="114" y="-4" on="1"/>
        <pt x="114" y="29" on="0"/>
        <pt x="110" y="65" on="1"/>
        <pt x="104" y="124" on="1"/>
        <pt x="97" y="175" on="1"/>
        <pt x="97" y="199" on="0"/>
        <pt x="116" y="199" on="1"/>
        <pt x="147" y="199" on="0"/>
        <pt x="208" y="148" on="0"/>
        <pt x="249" y="115" on="0"/>
        <pt x="272" y="100" on="1"/>
        <pt x="327" y="65" on="0"/>
        <pt x="353" y="65" on="1"/>
        <pt x="560" y="59" on="1"/>
        <pt x="439" y="213" on="0"/>
        <pt x="342" y="447" on="1"/>
        <pt x="241" y="688" on="0"/>
        <pt x="241" y="1038" on="0"/>
        <pt x="326" y="1326" on="0"/>
        <pt x="404" y="1428" on="1"/>
        <pt x="566" y="1638" on="0"/>
        <pt x="840" y="1638" on="1"/>
        <pt x="1109" y="1638" on="0"/>
        <pt x="1256" y="1438" on="1"/>
        <pt x="1402" y="1242" on="0"/>
        <pt x="1402" y="890" on="1"/>
        <pt x="1402" y="657" on="0"/>
        <pt x="1294" y="422" on="1"/>
        <pt x="1211" y="241" on="0"/>
        <pt x="1070" y="78" on="1"/>
        <pt x="1308" y="78" on="1"/>
        <pt x="1344" y="78" on="0"/>
        <pt x="1381" y="107" on="1"/>
        <pt x="1483" y="193" on="1"/>
        <pt x="1541" y="235" on="0"/>
        <pt x="1541" y="168" on="1"/>
        <pt x="1531" y="81" on="1"/>
        <pt x="1531" y="25" on="0"/>
        <pt x="1550" y="-63" on="0"/>
        <pt x="1550" y="-79" on="1"/>
        <pt x="1550" y="-121" on="0"/>
        <pt x="1520" y="-121" on="1"/>
        <pt x="1501" y="-121" on="0"/>
        <pt x="1486" y="-108" on="1"/>
        <pt x="1448" y="-76" on="0"/>
        <pt x="1322" y="-10" on="1"/>
        <pt x="996" y="-14" on="1"/>
        <pt x="938" y="-14" on="0"/>
        <pt x="938" y="29" on="1"/>
        <pt x="938" y="57" on="0"/>
        <pt x="1029" y="158" on="0"/>
        <pt x="1144" y="326" on="0"/>
        <pt x="1192" y="428" on="1"/>
        <pt x="1354" y="773" on="0"/>
        <pt x="1276" y="1129" on="1"/>
        <pt x="1221" y="1377" on="0"/>
        <pt x="1052" y="1484" on="1"/>
        <pt x="965" y="1539" on="0"/>
        <pt x="724" y="1539" on="0"/>
        <pt x="538" y="1435" on="0"/>
        <pt x="474" y="1342" on="1"/>
        <pt x="345" y="1154" on="0"/>
        <pt x="345" y="843" on="1"/>
        <pt x="345" y="626" on="0"/>
        <pt x="512" y="316" on="1"/>
        <pt x="587" y="177" on="0"/>
        <pt x="661" y="91" on="1"/>
        <pt x="695" y="51" on="0"/>
        <pt x="695" y="22" on="1"/>
        <pt x="695" y="-23" on="0"/>
        <pt x="629" y="-23" on="1"/>
        <pt x="363" y="-17" on="1"/>
        <pt x="300" y="-17" on="0"/>
        <pt x="272" y="-36" on="1"/>
        <pt x="166" y="-119" on="1"/>
        <pt x="105" y="-163" on="0"/>
      </contour>
    </TTGlyph>
    <TTGlyph name="Oslash" xMin="-6" yMin="-100" xMax="1447" yMax="1707">
      <contour>
        <pt x="1202" y="1388" on="1"/>
        <pt x="1368" y="1196" on="0"/>
        <pt x="1368" y="813" on="1"/>
        <pt x="1368" y="413" on="0"/>
        <pt x="1190" y="178" on="1"/>
        <pt x="1023" y="-43" on="0"/>
        <pt x="757" y="-43" on="1"/>
        <pt x="569" y="-43" on="0"/>
        <pt x="418" y="66" on="1"/>
        <pt x="367" y="104" on="0"/>
        <pt x="322" y="157" on="1"/>
        <pt x="287" y="107" on="1"/>
        <pt x="280" y="96" on="0"/>
        <pt x="259" y="56" on="0"/>
        <pt x="258" y="-11" on="0"/>
        <pt x="258" y="-65" on="0"/>
        <pt x="246" y="-100" on="0"/>
        <pt x="226" y="-100" on="1"/>
        <pt x="188" y="-100" on="0"/>
        <pt x="166" y="-57" on="1"/>
        <pt x="150" y="-28" on="0"/>
        <pt x="51" y="-5" on="1"/>
        <pt x="-6" y="10" on="0"/>
        <pt x="-6" y="44" on="1"/>
        <pt x="-6" y="82" on="0"/>
        <pt x="85" y="98" on="1"/>
        <pt x="155" y="110" on="0"/>
        <pt x="183" y="138" on="1"/>
        <pt x="202" y="157" on="0"/>
        <pt x="265" y="238" on="1"/>
        <pt x="135" y="450" on="0"/>
        <pt x="135" y="789" on="1"/>
        <pt x="135" y="1138" on="0"/>
        <pt x="486" y="1573" on="0"/>
        <pt x="763" y="1573" on="1"/>
        <pt x="979" y="1573" on="0"/>
        <pt x="1130" y="1457" on="1"/>
        <pt x="1166" y="1506" on="1"/>
        <pt x="1180" y="1529" on="0"/>
        <pt x="1180" y="1551" on="1"/>
        <pt x="1164" y="1658" on="1"/>
        <pt x="1164" y="1684" on="0"/>
        <pt x="1192" y="1707" on="0"/>
        <pt x="1233" y="1707" on="0"/>
        <pt x="1271" y="1675" on="0"/>
        <pt x="1292" y="1652" on="1"/>
        <pt x="1355" y="1581" on="0"/>
        <pt x="1389" y="1561" on="1"/>
        <pt x="1447" y="1528" on="0"/>
        <pt x="1447" y="1505" on="1"/>
        <pt x="1447" y="1491" on="0"/>
        <pt x="1419" y="1467" on="0"/>
        <pt x="1396" y="1467" on="1"/>
        <pt x="1364" y="1468" on="1"/>
        <pt x="1295" y="1468" on="0"/>
        <pt x="1271" y="1455" on="1"/>
        <pt x="1236" y="1437" on="0"/>
      </contour>
      <contour>
        <pt x="1072" y="1376" on="1"/>
        <pt x="895" y="1521" on="0"/>
        <pt x="662" y="1470" on="1"/>
        <pt x="537" y="1443" on="0"/>
        <pt x="431" y="1352" on="1"/>
        <pt x="314" y="1250" on="0"/>
        <pt x="262" y="1060" on="1"/>
        <pt x="236" y="961" on="0"/>
        <pt x="236" y="812" on="1"/>
        <pt x="236" y="517" on="0"/>
        <pt x="332" y="327" on="1"/>
        <pt x="502" y="559" on="0"/>
        <pt x="706" y="853" on="1"/>
        <pt x="1008" y="1287" on="0"/>
      </contour>
      <contour>
        <pt x="383" y="243" on="1"/>
        <pt x="524" y="52" on="0"/>
        <pt x="763" y="52" on="1"/>
        <pt x="953" y="52" on="0"/>
        <pt x="1090" y="205" on="1"/>
        <pt x="1197" y="323" on="0"/>
        <pt x="1241" y="545" on="1"/>
        <pt x="1282" y="751" on="0"/>
        <pt x="1255" y="976" on="1"/>
        <pt x="1229" y="1187" on="0"/>
        <pt x="1140" y="1305" on="1"/>
        <pt x="766" y="782" on="1"/>
        <pt x="492" y="398" on="1"/>
        <pt x="430" y="310" on="0"/>
      </contour>
    </TTGlyph>
    <TTGlyph name="Otilde" xMin="105" yMin="-43" xMax="1338" yMax="2095">
      <component glyphName="O" x="0" y="0" flags="0x1204"/>
      <component glyphName="tilde.cap" x="114" y="77" flags="0x1004"/>
    </TTGlyph>
    <TTGlyph name="P" xMin="138" yMin="-90" xMax="1135" yMax="1768">
      <contour>
        <pt x="201" y="-82" on="1"/>
        <pt x="149" y="-82" on="0"/>
        <pt x="159" y="-24" on="1"/>
        <pt x="161" y="-12" on="0"/>
        <pt x="197" y="7" on="0"/>
        <pt x="241" y="45" on="0"/>
        <pt x="256" y="64" on="1"/>
        <pt x="288" y="104" on="0"/>
        <pt x="293" y="129" on="1"/>
        <pt x="293" y="129" on="0"/>
        <pt x="292" y="164" on="1"/>
        <pt x="288" y="406" on="1"/>
        <pt x="288" y="406" on="0"/>
        <pt x="280" y="784" on="1"/>
        <pt x="267" y="1443" on="0"/>
        <pt x="247" y="1554" on="1"/>
        <pt x="240" y="1588" on="0"/>
        <pt x="168" y="1651" on="0"/>
        <pt x="138" y="1686" on="0"/>
        <pt x="138" y="1727" on="0"/>
        <pt x="170" y="1744" on="0"/>
        <pt x="213" y="1746" on="1"/>
        <pt x="340" y="1750" on="0"/>
        <pt x="376" y="1758" on="1"/>
        <pt x="416" y="1768" on="0"/>
        <pt x="425" y="1768" on="1"/>
        <pt x="462" y="1768" on="0"/>
        <pt x="462" y="1727" on="1"/>
        <pt x="462" y="1714" on="0"/>
        <pt x="421" y="1668" on="0"/>
        <pt x="393" y="1636" on="0"/>
        <pt x="367" y="1607" on="0"/>
        <pt x="360" y="1598" on="1"/>
        <pt x="350" y="1583" on="0"/>
        <pt x="351" y="1565" on="1"/>
        <pt x="351" y="1348" on="1"/>
        <pt x="384" y="1478" on="0"/>
        <pt x="502" y="1562" on="1"/>
        <pt x="652" y="1669" on="0"/>
        <pt x="824" y="1634" on="1"/>
        <pt x="1049" y="1587" on="0"/>
        <pt x="1116" y="1361" on="1"/>
        <pt x="1135" y="1297" on="0"/>
        <pt x="1135" y="1100" on="0"/>
        <pt x="1071" y="919" on="0"/>
        <pt x="1015" y="856" on="1"/>
        <pt x="899" y="726" on="0"/>
        <pt x="714" y="726" on="1"/>
        <pt x="558" y="726" on="0"/>
        <pt x="434" y="856" on="1"/>
        <pt x="389" y="903" on="0"/>
        <pt x="359" y="973" on="1"/>
        <pt x="389" y="283" on="0"/>
        <pt x="389" y="156" on="0"/>
        <pt x="411" y="104" on="0"/>
        <pt x="428" y="81" on="1"/>
        <pt x="502" y="-9" on="1"/>
        <pt x="524" y="-38" on="0"/>
        <pt x="524" y="-53" on="1"/>
        <pt x="524" y="-90" on="0"/>
        <pt x="478" y="-90" on="1"/>
        <pt x="466" y="-90" on="0"/>
        <pt x="397" y="-75" on="0"/>
        <pt x="317" y="-75" on="1"/>
      </contour>
      <contour>
        <pt x="602" y="841" on="1"/>
        <pt x="712" y="790" on="0"/>
        <pt x="830" y="836" on="1"/>
        <pt x="950" y="883" on="0"/>
        <pt x="1006" y="1026" on="1"/>
        <pt x="1034" y="1099" on="0"/>
        <pt x="1034" y="1278" on="0"/>
        <pt x="1003" y="1389" on="0"/>
        <pt x="953" y="1467" on="0"/>
        <pt x="889" y="1516" on="0"/>
        <pt x="856" y="1530" on="1"/>
        <pt x="799" y="1554" on="0"/>
        <pt x="655" y="1554" on="0"/>
        <pt x="526" y="1485" on="0"/>
        <pt x="482" y="1432" on="1"/>
        <pt x="390" y="1321" on="0"/>
        <pt x="390" y="1189" on="1"/>
        <pt x="390" y="1030" on="0"/>
        <pt x="497" y="918" on="1"/>
        <pt x="544" y="868" on="0"/>
      </contour>
    </TTGlyph>
    <TTGlyph name="Q" xMin="136" yMin="-234" xMax="1552" yMax="1532">
      <contour>
        <pt x="1059" y="83" on="1"/>
        <pt x="878" y="-46" on="0"/>
        <pt x="621" y="4" on="1"/>
        <pt x="466" y="34" on="0"/>
        <pt x="348" y="150" on="1"/>
        <pt x="136" y="359" on="0"/>
        <pt x="136" y="829" on="1"/>
        <pt x="136" y="1155" on="0"/>
        <pt x="324" y="1350" on="1"/>
        <pt x="498" y="1532" on="0"/>
        <pt x="748" y="1532" on="1"/>
        <pt x="972" y="1532" on="0"/>
        <pt x="1143" y="1361" on="1"/>
        <pt x="1340" y="1164" on="0"/>
        <pt x="1357" y="793" on="1"/>
        <pt x="1358" y="757" on="1"/>
        <pt x="1358" y="491" on="0"/>
        <pt x="1230" y="274" on="1"/>
        <pt x="1188" y="201" on="0"/>
        <pt x="1131" y="144" on="1"/>
        <pt x="1315" y="38" on="0"/>
        <pt x="1371" y="38" on="1"/>
        <pt x="1496" y="44" on="1"/>
        <pt x="1552" y="44" on="0"/>
        <pt x="1552" y="7" on="1"/>
        <pt x="1552" y="-14" on="0"/>
        <pt x="1519" y="-50" on="0"/>
        <pt x="1495" y="-72" on="1"/>
        <pt x="1425" y="-134" on="0"/>
        <pt x="1387" y="-214" on="0"/>
        <pt x="1365" y="-234" on="0"/>
        <pt x="1350" y="-234" on="1"/>
        <pt x="1319" y="-234" on="0"/>
        <pt x="1312" y="-184" on="1"/>
        <pt x="1302" y="-99" on="1"/>
        <pt x="1292" y="-42" on="0"/>
        <pt x="1269" y="-29" on="1"/>
        <pt x="1172" y="21" on="0"/>
      </contour>
      <contour>
        <pt x="598" y="100" on="0"/>
        <pt x="711" y="76" on="0"/>
        <pt x="850" y="77" on="0"/>
        <pt x="1024" y="155" on="0"/>
        <pt x="1093" y="238" on="1"/>
        <pt x="1247" y="423" on="0"/>
        <pt x="1247" y="770" on="1"/>
        <pt x="1247" y="1107" on="0"/>
        <pt x="1074" y="1288" on="1"/>
        <pt x="890" y="1481" on="0"/>
        <pt x="642" y="1428" on="1"/>
        <pt x="518" y="1401" on="0"/>
        <pt x="418" y="1313" on="1"/>
        <pt x="237" y="1154" on="0"/>
        <pt x="237" y="844" on="1"/>
        <pt x="237" y="822" on="1"/>
        <pt x="237" y="678" on="0"/>
        <pt x="298" y="424" on="0"/>
        <pt x="381" y="264" on="0"/>
        <pt x="485" y="160" on="0"/>
      </contour>
    </TTGlyph>
    <TTGlyph name="R" xMin="121" yMin="-164" xMax="1383" yMax="1603">
      <contour>
        <pt x="236" y="-66" on="1"/>
        <pt x="121" y="-95" on="0"/>
        <pt x="121" y="-42" on="1"/>
        <pt x="121" y="-19" on="0"/>
        <pt x="184" y="43" on="0"/>
        <pt x="218" y="83" on="0"/>
        <pt x="227" y="101" on="1"/>
        <pt x="247" y="140" on="0"/>
        <pt x="250" y="275" on="0"/>
        <pt x="253" y="393" on="0"/>
        <pt x="256" y="543" on="0"/>
        <pt x="259" y="709" on="0"/>
        <pt x="261" y="882" on="0"/>
        <pt x="262" y="964" on="1"/>
        <pt x="267" y="1341" on="0"/>
        <pt x="259" y="1420" on="0"/>
        <pt x="238" y="1461" on="0"/>
        <pt x="209" y="1495" on="0"/>
        <pt x="172" y="1525" on="0"/>
        <pt x="160" y="1536" on="1"/>
        <pt x="141" y="1553" on="0"/>
        <pt x="141" y="1583" on="0"/>
        <pt x="164" y="1583" on="1"/>
        <pt x="207" y="1582" on="1"/>
        <pt x="334" y="1582" on="0"/>
        <pt x="478" y="1603" on="0"/>
        <pt x="511" y="1603" on="0"/>
        <pt x="511" y="1579" on="0"/>
        <pt x="490" y="1558" on="1"/>
        <pt x="410" y="1478" on="0"/>
        <pt x="358" y="1402" on="0"/>
        <pt x="355" y="1389" on="0"/>
        <pt x="352" y="1356" on="0"/>
        <pt x="350" y="1310" on="0"/>
        <pt x="349" y="1257" on="0"/>
        <pt x="348" y="1232" on="1"/>
        <pt x="347" y="1157" on="0"/>
        <pt x="347" y="1144" on="1"/>
        <pt x="389" y="1253" on="0"/>
        <pt x="514" y="1375" on="1"/>
        <pt x="603" y="1461" on="0"/>
        <pt x="714" y="1500" on="1"/>
        <pt x="819" y="1537" on="0"/>
        <pt x="955" y="1506" on="1"/>
        <pt x="1085" y="1476" on="0"/>
        <pt x="1142" y="1352" on="1"/>
        <pt x="1172" y="1286" on="0"/>
        <pt x="1172" y="1095" on="0"/>
        <pt x="1116" y="966" on="0"/>
        <pt x="1025" y="870" on="0"/>
        <pt x="908" y="802" on="0"/>
        <pt x="847" y="776" on="1"/>
        <pt x="620" y="692" on="1"/>
        <pt x="1147" y="151" on="0"/>
        <pt x="1174" y="143" on="1"/>
        <pt x="1207" y="131" on="0"/>
        <pt x="1306" y="136" on="0"/>
        <pt x="1328" y="134" on="1"/>
        <pt x="1383" y="131" on="0"/>
        <pt x="1383" y="93" on="0"/>
        <pt x="1339" y="50" on="1"/>
        <pt x="1246" y="-39" on="0"/>
        <pt x="1213" y="-108" on="1"/>
        <pt x="1195" y="-143" on="0"/>
        <pt x="1165" y="-164" on="0"/>
        <pt x="1157" y="-164" on="1"/>
        <pt x="1111" y="-164" on="0"/>
        <pt x="1111" y="20" on="1"/>
        <pt x="1111" y="59" on="0"/>
        <pt x="1096" y="70" on="0"/>
        <pt x="1045" y="121" on="0"/>
        <pt x="967" y="202" on="0"/>
        <pt x="869" y="303" on="0"/>
        <pt x="766" y="410" on="0"/>
        <pt x="667" y="513" on="0"/>
        <pt x="626" y="554" on="1"/>
        <pt x="533" y="650" on="0"/>
        <pt x="506" y="672" on="0"/>
        <pt x="478" y="718" on="0"/>
        <pt x="478" y="732" on="1"/>
        <pt x="478" y="762" on="0"/>
        <pt x="560" y="773" on="0"/>
        <pt x="677" y="799" on="0"/>
        <pt x="801" y="843" on="0"/>
        <pt x="921" y="908" on="0"/>
        <pt x="968" y="952" on="1"/>
        <pt x="1073" y="1052" on="0"/>
        <pt x="1073" y="1319" on="0"/>
        <pt x="953" y="1436" on="0"/>
        <pt x="829" y="1436" on="1"/>
        <pt x="706" y="1436" on="0"/>
        <pt x="591" y="1332" on="1"/>
        <pt x="456" y="1210" on="0"/>
        <pt x="375" y="1014" on="1"/>
        <pt x="355" y="965" on="0"/>
        <pt x="347" y="936" on="1"/>
        <pt x="347" y="149" on="1"/>
        <pt x="347" y="126" on="0"/>
        <pt x="372" y="104" on="1"/>
        <pt x="439" y="43" on="0"/>
        <pt x="463" y="12" on="0"/>
        <pt x="470" y="1" on="1"/>
        <pt x="514" y="-63" on="0"/>
        <pt x="450" y="-63" on="1"/>
        <pt x="340" y="-55" on="1"/>
        <pt x="277" y="-55" on="0"/>
      </contour>
    </TTGlyph>
    <TTGlyph name="Racute" xMin="121" yMin="-164" xMax="1383" yMax="2046">
      <component glyphName="R" x="0" y="0" flags="0x1204"/>
      <component glyphName="acute.cap" x="245" y="0" flags="0x1004"/>
    </TTGlyph>
    <TTGlyph name="Rcaron" xMin="121" yMin="-164" xMax="1383" yMax="1996">
      <component glyphName="R" x="0" y="0" flags="0x1204"/>
      <component glyphName="caron.cap" x="124" y="0" flags="0x1004"/>
    </TTGlyph>
    <TTGlyph name="Rcommaaccent" xMin="121" yMin="-454" xMax="1383" yMax="1603">
      <component glyphName="R" x="0" y="0" flags="0x1204"/>
      <component glyphName="commaaccent" x="402" y="0" flags="0x1004"/>
    </TTGlyph>
    <TTGlyph name="S" xMin="110" yMin="-159" xMax="933" yMax="1644">
      <contour>
        <pt x="898" y="1334" on="1"/>
        <pt x="898" y="1278" on="0"/>
        <pt x="847" y="1299" on="1"/>
        <pt x="810" y="1314" on="0"/>
        <pt x="787" y="1346" on="1"/>
        <pt x="754" y="1390" on="0"/>
        <pt x="704" y="1443" on="1"/>
        <pt x="533" y="1463" on="0"/>
        <pt x="430" y="1392" on="1"/>
        <pt x="333" y="1323" on="0"/>
        <pt x="333" y="1185" on="1"/>
        <pt x="333" y="1073" on="0"/>
        <pt x="452" y="952" on="1"/>
        <pt x="525" y="878" on="0"/>
        <pt x="639" y="795" on="0"/>
        <pt x="724" y="730" on="0"/>
        <pt x="805" y="654" on="0"/>
        <pt x="836" y="608" on="1"/>
        <pt x="906" y="508" on="0"/>
        <pt x="906" y="388" on="1"/>
        <pt x="906" y="156" on="0"/>
        <pt x="647" y="54" on="1"/>
        <pt x="500" y="-3" on="0"/>
        <pt x="338" y="-3" on="1"/>
        <pt x="283" y="-3" on="0"/>
        <pt x="190" y="-110" on="1"/>
        <pt x="147" y="-159" on="0"/>
        <pt x="131" y="-97" on="1"/>
        <pt x="132" y="5" on="1"/>
        <pt x="132" y="109" on="0"/>
        <pt x="110" y="216" on="0"/>
        <pt x="110" y="225" on="1"/>
        <pt x="110" y="260" on="0"/>
        <pt x="137" y="260" on="1"/>
        <pt x="155" y="260" on="0"/>
        <pt x="193" y="222" on="0"/>
        <pt x="216" y="196" on="1"/>
        <pt x="281" y="123" on="0"/>
        <pt x="335" y="100" on="1"/>
        <pt x="347" y="99" on="0"/>
        <pt x="358" y="99" on="1"/>
        <pt x="381" y="99" on="1"/>
        <pt x="601" y="99" on="0"/>
        <pt x="711" y="194" on="1"/>
        <pt x="806" y="277" on="0"/>
        <pt x="806" y="413" on="1"/>
        <pt x="806" y="537" on="0"/>
        <pt x="636" y="675" on="1"/>
        <pt x="444" y="832" on="1"/>
        <pt x="240" y="997" on="0"/>
        <pt x="240" y="1185" on="1"/>
        <pt x="240" y="1368" on="0"/>
        <pt x="363" y="1456" on="1"/>
        <pt x="466" y="1531" on="0"/>
        <pt x="647" y="1531" on="1"/>
        <pt x="697" y="1530" on="1"/>
        <pt x="736" y="1530" on="0"/>
        <pt x="804" y="1587" on="1"/>
        <pt x="829" y="1608" on="0"/>
        <pt x="874" y="1644" on="0"/>
        <pt x="893" y="1644" on="1"/>
        <pt x="933" y="1644" on="0"/>
        <pt x="922" y="1589" on="1"/>
        <pt x="893" y="1480" on="0"/>
        <pt x="893" y="1425" on="1"/>
      </contour>
    </TTGlyph>
    <TTGlyph name="Scaron" xMin="81" yMin="-159" xMax="968" yMax="2115">
      <component glyphName="S" x="0" y="0" flags="0x1204"/>
      <component glyphName="caron.cap" x="-21" y="119" flags="0x1004"/>
    </TTGlyph>
    <TTGlyph name="T" xMin="63" yMin="-14" xMax="1333" yMax="1656">
      <contour>
        <pt x="571" y="-5" on="1"/>
        <pt x="466" y="-14" on="1"/>
        <pt x="432" y="-14" on="0"/>
        <pt x="432" y="14" on="1"/>
        <pt x="432" y="43" on="0"/>
        <pt x="490" y="96" on="1"/>
        <pt x="566" y="166" on="0"/>
        <pt x="570" y="209" on="1"/>
        <pt x="596" y="567" on="0"/>
        <pt x="627" y="1347" on="0"/>
        <pt x="631" y="1425" on="1"/>
        <pt x="504" y="1425" on="0"/>
        <pt x="377" y="1425" on="1"/>
        <pt x="284" y="1424" on="1"/>
        <pt x="247" y="1422" on="0"/>
        <pt x="201" y="1380" on="0"/>
        <pt x="163" y="1337" on="0"/>
        <pt x="127" y="1303" on="0"/>
        <pt x="107" y="1303" on="1"/>
        <pt x="63" y="1303" on="0"/>
        <pt x="80" y="1374" on="1"/>
        <pt x="93" y="1428" on="0"/>
        <pt x="93" y="1503" on="1"/>
        <pt x="88" y="1583" on="1"/>
        <pt x="88" y="1656" on="0"/>
        <pt x="126" y="1656" on="1"/>
        <pt x="149" y="1656" on="0"/>
        <pt x="192" y="1595" on="0"/>
        <pt x="225" y="1554" on="0"/>
        <pt x="238" y="1542" on="1"/>
        <pt x="260" y="1520" on="0"/>
        <pt x="277" y="1520" on="1"/>
        <pt x="839" y="1508" on="1"/>
        <pt x="946" y="1508" on="0"/>
        <pt x="1082" y="1514" on="1"/>
        <pt x="1143" y="1523" on="0"/>
        <pt x="1208" y="1592" on="1"/>
        <pt x="1226" y="1611" on="0"/>
        <pt x="1236" y="1626" on="1"/>
        <pt x="1252" y="1650" on="0"/>
        <pt x="1282" y="1650" on="1"/>
        <pt x="1333" y="1650" on="0"/>
        <pt x="1314" y="1584" on="1"/>
        <pt x="1294" y="1517" on="0"/>
        <pt x="1292" y="1398" on="0"/>
        <pt x="1290" y="1319" on="0"/>
        <pt x="1277" y="1271" on="0"/>
        <pt x="1253" y="1271" on="1"/>
        <pt x="1245" y="1271" on="0"/>
        <pt x="1220" y="1295" on="0"/>
        <pt x="1195" y="1349" on="0"/>
        <pt x="1163" y="1392" on="0"/>
        <pt x="1149" y="1404" on="1"/>
        <pt x="1130" y="1419" on="0"/>
        <pt x="1100" y="1425" on="1"/>
        <pt x="727" y="1425" on="1"/>
        <pt x="699" y="1049" on="0"/>
        <pt x="664" y="231" on="0"/>
        <pt x="664" y="206" on="0"/>
        <pt x="677" y="162" on="0"/>
        <pt x="688" y="140" on="1"/>
        <pt x="713" y="90" on="0"/>
        <pt x="731" y="74" on="1"/>
        <pt x="770" y="41" on="0"/>
        <pt x="770" y="4" on="0"/>
        <pt x="742" y="-8" on="0"/>
        <pt x="700" y="-8" on="1"/>
      </contour>
    </TTGlyph>
    <TTGlyph name="Thorn" xMin="82" yMin="-47" xMax="1199" yMax="1684">
      <contour>
        <pt x="166" y="5" on="1"/>
        <pt x="166" y="23" on="0"/>
        <pt x="190" y="54" on="0"/>
        <pt x="215" y="87" on="0"/>
        <pt x="245" y="123" on="0"/>
        <pt x="258" y="139" on="1"/>
        <pt x="286" y="175" on="0"/>
        <pt x="286" y="190" on="1"/>
        <pt x="272" y="382" on="0"/>
        <pt x="258" y="690" on="1"/>
        <pt x="233" y="1246" on="0"/>
        <pt x="216" y="1476" on="1"/>
        <pt x="214" y="1499" on="0"/>
        <pt x="188" y="1521" on="1"/>
        <pt x="111" y="1586" on="0"/>
        <pt x="82" y="1615" on="0"/>
        <pt x="82" y="1637" on="1"/>
        <pt x="82" y="1668" on="0"/>
        <pt x="121" y="1668" on="1"/>
        <pt x="219" y="1659" on="1"/>
        <pt x="288" y="1659" on="0"/>
        <pt x="391" y="1684" on="0"/>
        <pt x="404" y="1684" on="1"/>
        <pt x="443" y="1684" on="0"/>
        <pt x="443" y="1653" on="1"/>
        <pt x="443" y="1631" on="0"/>
        <pt x="401" y="1597" on="1"/>
        <pt x="313" y="1526" on="0"/>
        <pt x="313" y="1487" on="1"/>
        <pt x="313" y="1470" on="0"/>
        <pt x="329" y="1206" on="1"/>
        <pt x="528" y="1277" on="0"/>
        <pt x="737" y="1277" on="1"/>
        <pt x="1056" y="1277" on="0"/>
        <pt x="1160" y="1090" on="1"/>
        <pt x="1199" y="1021" on="0"/>
        <pt x="1199" y="819" on="0"/>
        <pt x="1150" y="668" on="0"/>
        <pt x="1064" y="556" on="0"/>
        <pt x="946" y="481" on="0"/>
        <pt x="878" y="458" on="1"/>
        <pt x="666" y="386" on="0"/>
        <pt x="363" y="433" on="1"/>
        <pt x="369" y="243" on="0"/>
        <pt x="378" y="166" on="0"/>
        <pt x="396" y="136" on="0"/>
        <pt x="408" y="121" on="1"/>
        <pt x="466" y="58" on="1"/>
        <pt x="489" y="30" on="0"/>
        <pt x="489" y="12" on="1"/>
        <pt x="489" y="-22" on="0"/>
        <pt x="429" y="-22" on="1"/>
        <pt x="329" y="-20" on="1"/>
        <pt x="299" y="-20" on="0"/>
        <pt x="264" y="-27" on="1"/>
        <pt x="166" y="-47" on="0"/>
      </contour>
      <contour>
        <pt x="870" y="1172" on="1"/>
        <pt x="644" y="1226" on="0"/>
        <pt x="334" y="1112" on="1"/>
        <pt x="347" y="816" on="1"/>
        <pt x="354" y="637" on="0"/>
        <pt x="359" y="538" on="1"/>
        <pt x="582" y="479" on="0"/>
        <pt x="783" y="532" on="1"/>
        <pt x="975" y="583" on="0"/>
        <pt x="1058" y="728" on="1"/>
        <pt x="1099" y="801" on="0"/>
        <pt x="1099" y="975" on="0"/>
        <pt x="1070" y="1030" on="1"/>
        <pt x="1014" y="1137" on="0"/>
      </contour>
    </TTGlyph>
    <TTGlyph name="U" xMin="33" yMin="-9" xMax="1487" yMax="1650">
      <contour>
        <pt x="1487" y="1605" on="1"/>
        <pt x="1487" y="1595" on="0"/>
        <pt x="1445" y="1545" on="0"/>
        <pt x="1428" y="1518" on="1"/>
        <pt x="1385" y="1451" on="0"/>
        <pt x="1382" y="1362" on="0"/>
        <pt x="1378" y="1238" on="0"/>
        <pt x="1371" y="1089" on="0"/>
        <pt x="1360" y="924" on="0"/>
        <pt x="1352" y="844" on="1"/>
        <pt x="1332" y="664" on="0"/>
        <pt x="1292" y="519" on="0"/>
        <pt x="1252" y="397" on="0"/>
        <pt x="1190" y="269" on="0"/>
        <pt x="1104" y="147" on="0"/>
        <pt x="1044" y="98" on="1"/>
        <pt x="911" y="-9" on="0"/>
        <pt x="726" y="-9" on="1"/>
        <pt x="529" y="-9" on="0"/>
        <pt x="405" y="138" on="1"/>
        <pt x="253" y="318" on="0"/>
        <pt x="223" y="684" on="1"/>
        <pt x="166" y="1293" on="1"/>
        <pt x="162" y="1336" on="0"/>
        <pt x="149" y="1354" on="1"/>
        <pt x="129" y="1380" on="0"/>
        <pt x="49" y="1450" on="0"/>
        <pt x="33" y="1476" on="0"/>
        <pt x="33" y="1487" on="1"/>
        <pt x="33" y="1523" on="0"/>
        <pt x="96" y="1523" on="1"/>
        <pt x="148" y="1518" on="1"/>
        <pt x="303" y="1547" on="1"/>
        <pt x="380" y="1560" on="0"/>
        <pt x="380" y="1530" on="1"/>
        <pt x="380" y="1510" on="0"/>
        <pt x="333" y="1463" on="0"/>
        <pt x="302" y="1416" on="0"/>
        <pt x="291" y="1391" on="1"/>
        <pt x="267" y="1336" on="0"/>
        <pt x="267" y="1266" on="0"/>
        <pt x="273" y="1147" on="0"/>
        <pt x="279" y="1067" on="1"/>
        <pt x="312" y="621" on="0"/>
        <pt x="383" y="344" on="0"/>
        <pt x="432" y="262" on="1"/>
        <pt x="540" y="83" on="0"/>
        <pt x="732" y="83" on="1"/>
        <pt x="1020" y="83" on="0"/>
        <pt x="1153" y="411" on="1"/>
        <pt x="1294" y="760" on="0"/>
        <pt x="1294" y="1394" on="1"/>
        <pt x="1294" y="1435" on="0"/>
        <pt x="1280" y="1455" on="1"/>
        <pt x="1265" y="1477" on="0"/>
        <pt x="1227" y="1514" on="1"/>
        <pt x="1170" y="1568" on="0"/>
        <pt x="1170" y="1613" on="0"/>
        <pt x="1229" y="1613" on="1"/>
        <pt x="1327" y="1608" on="1"/>
        <pt x="1372" y="1608" on="0"/>
        <pt x="1399" y="1618" on="1"/>
        <pt x="1487" y="1650" on="0"/>
      </contour>
    </TTGlyph>
    <TTGlyph name="Uacute" xMin="33" yMin="-9" xMax="1487" yMax="2046">
      <component glyphName="U" x="0" y="0" flags="0x1204"/>
      <component glyphName="acute.cap" x="314" y="0" flags="0x1004"/>
    </TTGlyph>
    <TTGlyph name="Ucircumflex" xMin="33" yMin="-9" xMax="1487" yMax="2014">
      <component glyphName="U" x="0" y="0" flags="0x1204"/>
      <component glyphName="circumflex.cap" x="197" y="78" flags="0x1004"/>
    </TTGlyph>
    <TTGlyph name="Udieresis" xMin="33" yMin="-9" xMax="1487" yMax="1917">
      <component glyphName="U" x="0" y="0" flags="0x1204"/>
      <component glyphName="dieresis.cap" x="299" y="0" flags="0x1004"/>
    </TTGlyph>
    <TTGlyph name="Ugrave" xMin="33" yMin="-9" xMax="1487" yMax="2019">
      <component glyphName="U" x="0" y="0" flags="0x1204"/>
      <component glyphName="grave.cap" x="362" y="0" flags="0x1004"/>
    </TTGlyph>
    <TTGlyph name="Uhungarumlaut" xMin="33" yMin="-9" xMax="1487" yMax="2106">
      <component glyphName="U" x="0" y="0" flags="0x1204"/>
      <component glyphName="hungarumlaut.cap" x="158" y="0" flags="0x1004"/>
    </TTGlyph>
    <TTGlyph name="V" xMin="-28" yMin="-24" xMax="1430" yMax="1530">
      <contour>
        <pt x="1093" y="1493" on="1"/>
        <pt x="1093" y="1530" on="0"/>
        <pt x="1133" y="1530" on="1"/>
        <pt x="1153" y="1530" on="0"/>
        <pt x="1192" y="1506" on="1"/>
        <pt x="1275" y="1455" on="0"/>
        <pt x="1314" y="1442" on="1"/>
        <pt x="1430" y="1404" on="0"/>
        <pt x="1356" y="1360" on="1"/>
        <pt x="1293" y="1326" on="1"/>
        <pt x="1271" y="1313" on="0"/>
        <pt x="1238" y="1294" on="0"/>
        <pt x="1224" y="1268" on="0"/>
        <pt x="1188" y="1186" on="0"/>
        <pt x="1136" y="1063" on="0"/>
        <pt x="1069" y="906" on="0"/>
        <pt x="997" y="735" on="0"/>
        <pt x="923" y="558" on="0"/>
        <pt x="888" y="476" on="1"/>
        <pt x="762" y="175" on="0"/>
        <pt x="693" y="44" on="0"/>
        <pt x="665" y="-24" on="0"/>
        <pt x="644" y="-24" on="1"/>
        <pt x="629" y="-24" on="0"/>
        <pt x="603" y="3" on="0"/>
        <pt x="586" y="61" on="0"/>
        <pt x="537" y="188" on="0"/>
        <pt x="474" y="345" on="0"/>
        <pt x="402" y="523" on="0"/>
        <pt x="327" y="709" on="0"/>
        <pt x="253" y="895" on="0"/>
        <pt x="220" y="981" on="1"/>
        <pt x="142" y="1183" on="0"/>
        <pt x="112" y="1276" on="1"/>
        <pt x="100" y="1311" on="0"/>
        <pt x="54" y="1349" on="0"/>
        <pt x="7" y="1378" on="0"/>
        <pt x="-28" y="1408" on="0"/>
        <pt x="-28" y="1435" on="1"/>
        <pt x="-28" y="1468" on="0"/>
        <pt x="31" y="1468" on="1"/>
        <pt x="58" y="1468" on="1"/>
        <pt x="149" y="1468" on="0"/>
        <pt x="255" y="1479" on="0"/>
        <pt x="262" y="1479" on="1"/>
        <pt x="312" y="1479" on="0"/>
        <pt x="312" y="1449" on="1"/>
        <pt x="312" y="1429" on="0"/>
        <pt x="279" y="1396" on="0"/>
        <pt x="239" y="1364" on="0"/>
        <pt x="222" y="1348" on="1"/>
        <pt x="199" y="1327" on="0"/>
        <pt x="207" y="1311" on="1"/>
        <pt x="233" y="1206" on="0"/>
        <pt x="386" y="809" on="0"/>
        <pt x="456" y="629" on="0"/>
        <pt x="526" y="455" on="0"/>
        <pt x="556" y="380" on="1"/>
        <pt x="610" y="245" on="1"/>
        <pt x="634" y="185" on="0"/>
        <pt x="647" y="150" on="1"/>
        <pt x="810" y="526" on="1"/>
        <pt x="1122" y="1264" on="0"/>
        <pt x="1122" y="1350" on="1"/>
        <pt x="1122" y="1387" on="0"/>
        <pt x="1093" y="1479" on="0"/>
      </contour>
    </TTGlyph>
    <TTGlyph name="W" xMin="12" yMin="-63" xMax="2030" yMax="1531">
      <contour>
        <pt x="1722" y="1453" on="1"/>
        <pt x="1696" y="1531" on="0"/>
        <pt x="1752" y="1531" on="1"/>
        <pt x="1782" y="1531" on="0"/>
        <pt x="1806" y="1507" on="1"/>
        <pt x="1804" y="1508" on="1"/>
        <pt x="1858" y="1465" on="0"/>
        <pt x="1913" y="1447" on="1"/>
        <pt x="2030" y="1410" on="0"/>
        <pt x="1988" y="1370" on="1"/>
        <pt x="1972" y="1355" on="0"/>
        <pt x="1910" y="1335" on="0"/>
        <pt x="1893" y="1328" on="1"/>
        <pt x="1852" y="1309" on="0"/>
        <pt x="1844" y="1280" on="1"/>
        <pt x="1632" y="531" on="0"/>
        <pt x="1479" y="198" on="1"/>
        <pt x="1425" y="66" on="1"/>
        <pt x="1371" y="-63" on="0"/>
        <pt x="1310" y="64" on="1"/>
        <pt x="1249" y="190" on="0"/>
        <pt x="1105" y="657" on="1"/>
        <pt x="1040" y="867" on="0"/>
        <pt x="1007" y="1011" on="1"/>
        <pt x="866" y="523" on="0"/>
        <pt x="716" y="221" on="1"/>
        <pt x="652" y="72" on="1"/>
        <pt x="622" y="2" on="0"/>
        <pt x="596" y="2" on="1"/>
        <pt x="567" y="2" on="0"/>
        <pt x="543" y="40" on="1"/>
        <pt x="523" y="71" on="0"/>
        <pt x="308" y="759" on="0"/>
        <pt x="272" y="874" on="1"/>
        <pt x="201" y="1102" on="0"/>
        <pt x="147" y="1287" on="0"/>
        <pt x="129" y="1313" on="0"/>
        <pt x="118" y="1324" on="1"/>
        <pt x="112" y="1330" on="0"/>
        <pt x="79" y="1352" on="1"/>
        <pt x="12" y="1397" on="0"/>
        <pt x="12" y="1462" on="0"/>
        <pt x="65" y="1462" on="1"/>
        <pt x="161" y="1459" on="1"/>
        <pt x="226" y="1459" on="0"/>
        <pt x="255" y="1466" on="1"/>
        <pt x="348" y="1488" on="0"/>
        <pt x="348" y="1443" on="1"/>
        <pt x="348" y="1422" on="0"/>
        <pt x="275" y="1358" on="0"/>
        <pt x="258" y="1341" on="1"/>
        <pt x="236" y="1318" on="0"/>
        <pt x="243" y="1305" on="1"/>
        <pt x="309" y="1006" on="0"/>
        <pt x="542" y="303" on="1"/>
        <pt x="572" y="214" on="0"/>
        <pt x="591" y="164" on="1"/>
        <pt x="814" y="653" on="0"/>
        <pt x="963" y="1156" on="1"/>
        <pt x="948" y="1177" on="0"/>
        <pt x="913" y="1199" on="1"/>
        <pt x="845" y="1242" on="0"/>
        <pt x="845" y="1275" on="1"/>
        <pt x="845" y="1308" on="0"/>
        <pt x="900" y="1308" on="1"/>
        <pt x="978" y="1307" on="1"/>
        <pt x="1129" y="1319" on="1"/>
        <pt x="1181" y="1319" on="0"/>
        <pt x="1181" y="1289" on="1"/>
        <pt x="1181" y="1270" on="0"/>
        <pt x="1158" y="1250" on="1"/>
        <pt x="1131" y="1226" on="1"/>
        <pt x="1109" y="1206" on="0"/>
        <pt x="1092" y="1188" on="1"/>
        <pt x="1076" y="1172" on="0"/>
        <pt x="1076" y="1151" on="1"/>
        <pt x="1098" y="942" on="0"/>
        <pt x="1277" y="422" on="1"/>
        <pt x="1352" y="203" on="0"/>
        <pt x="1362" y="165" on="1"/>
        <pt x="1497" y="448" on="0"/>
        <pt x="1654" y="970" on="1"/>
        <pt x="1747" y="1280" on="0"/>
        <pt x="1747" y="1339" on="1"/>
        <pt x="1747" y="1364" on="0"/>
      </contour>
    </TTGlyph>
    <TTGlyph name="X" xMin="13" yMin="-53" xMax="1593" yMax="1642">
      <contour>
        <pt x="1351" y="-37" on="1"/>
        <pt x="1309" y="-37" on="0"/>
        <pt x="1309" y="9" on="1"/>
        <pt x="1309" y="39" on="0"/>
        <pt x="1318" y="64" on="1"/>
        <pt x="1338" y="122" on="0"/>
        <pt x="1313" y="158" on="1"/>
        <pt x="1292" y="182" on="1"/>
        <pt x="1040" y="475" on="1"/>
        <pt x="848" y="700" on="0"/>
        <pt x="789" y="770" on="1"/>
        <pt x="325" y="206" on="1"/>
        <pt x="309" y="169" on="0"/>
        <pt x="305" y="79" on="0"/>
        <pt x="303" y="0" on="0"/>
        <pt x="289" y="-53" on="0"/>
        <pt x="241" y="-53" on="0"/>
        <pt x="214" y="-23" on="0"/>
        <pt x="195" y="2" on="1"/>
        <pt x="138" y="79" on="0"/>
        <pt x="13" y="158" on="0"/>
        <pt x="13" y="181" on="1"/>
        <pt x="13" y="196" on="0"/>
        <pt x="42" y="224" on="0"/>
        <pt x="69" y="224" on="1"/>
        <pt x="114" y="221" on="1"/>
        <pt x="194" y="221" on="0"/>
        <pt x="253" y="279" on="0"/>
        <pt x="360" y="399" on="0"/>
        <pt x="428" y="478" on="1"/>
        <pt x="566" y="638" on="0"/>
        <pt x="735" y="843" on="1"/>
        <pt x="305" y="1350" on="0"/>
        <pt x="260" y="1375" on="0"/>
        <pt x="193" y="1378" on="0"/>
        <pt x="130" y="1380" on="0"/>
        <pt x="85" y="1393" on="0"/>
        <pt x="85" y="1410" on="1"/>
        <pt x="85" y="1442" on="0"/>
        <pt x="188" y="1490" on="0"/>
        <pt x="242" y="1549" on="0"/>
        <pt x="279" y="1603" on="0"/>
        <pt x="309" y="1642" on="0"/>
        <pt x="351" y="1642" on="0"/>
        <pt x="365" y="1601" on="0"/>
        <pt x="365" y="1560" on="1"/>
        <pt x="362" y="1499" on="1"/>
        <pt x="362" y="1455" on="0"/>
        <pt x="398" y="1379" on="0"/>
        <pt x="431" y="1344" on="0"/>
        <pt x="509" y="1249" on="0"/>
        <pt x="558" y="1187" on="1"/>
        <pt x="704" y="1005" on="0"/>
        <pt x="790" y="904" on="1"/>
        <pt x="1023" y="1185" on="0"/>
        <pt x="1176" y="1398" on="1"/>
        <pt x="1186" y="1410" on="0"/>
        <pt x="1197" y="1464" on="0"/>
        <pt x="1197" y="1469" on="1"/>
        <pt x="1178" y="1606" on="1"/>
        <pt x="1178" y="1636" on="0"/>
        <pt x="1207" y="1636" on="1"/>
        <pt x="1227" y="1636" on="0"/>
        <pt x="1296" y="1583" on="0"/>
        <pt x="1377" y="1549" on="0"/>
        <pt x="1416" y="1532" on="1"/>
        <pt x="1509" y="1491" on="0"/>
        <pt x="1509" y="1429" on="0"/>
        <pt x="1455" y="1422" on="1"/>
        <pt x="1410" y="1422" on="0"/>
        <pt x="1348" y="1392" on="1"/>
        <pt x="1237" y="1338" on="0"/>
        <pt x="1215" y="1309" on="1"/>
        <pt x="1186" y="1261" on="0"/>
        <pt x="924" y="919" on="0"/>
        <pt x="854" y="832" on="1"/>
        <pt x="1129" y="507" on="0"/>
        <pt x="1369" y="256" on="0"/>
        <pt x="1417" y="215" on="0"/>
        <pt x="1485" y="200" on="0"/>
        <pt x="1548" y="190" on="0"/>
        <pt x="1593" y="175" on="0"/>
        <pt x="1593" y="159" on="1"/>
        <pt x="1593" y="132" on="0"/>
        <pt x="1538" y="83" on="0"/>
        <pt x="1479" y="36" on="0"/>
        <pt x="1448" y="14" on="1"/>
        <pt x="1375" y="-37" on="0"/>
      </contour>
    </TTGlyph>
    <TTGlyph name="Y" xMin="24" yMin="-80" xMax="1387" yMax="1667">
      <contour>
        <pt x="543" y="-80" on="1"/>
        <pt x="510" y="-80" on="0"/>
        <pt x="510" y="-52" on="1"/>
        <pt x="510" y="-21" on="0"/>
        <pt x="566" y="30" on="1"/>
        <pt x="640" y="95" on="0"/>
        <pt x="640" y="143" on="1"/>
        <pt x="643" y="472" on="1"/>
        <pt x="643" y="644" on="0"/>
        <pt x="635" y="730" on="1"/>
        <pt x="339" y="1161" on="1"/>
        <pt x="282" y="1243" on="0"/>
        <pt x="216" y="1336" on="1"/>
        <pt x="194" y="1366" on="0"/>
        <pt x="137" y="1384" on="0"/>
        <pt x="102" y="1390" on="0"/>
        <pt x="72" y="1397" on="0"/>
        <pt x="58" y="1403" on="1"/>
        <pt x="24" y="1418" on="0"/>
        <pt x="24" y="1442" on="1"/>
        <pt x="24" y="1465" on="0"/>
        <pt x="125" y="1506" on="0"/>
        <pt x="200" y="1546" on="0"/>
        <pt x="226" y="1562" on="1"/>
        <pt x="285" y="1596" on="0"/>
        <pt x="305" y="1596" on="1"/>
        <pt x="335" y="1596" on="0"/>
        <pt x="335" y="1566" on="1"/>
        <pt x="335" y="1549" on="0"/>
        <pt x="316" y="1514" on="0"/>
        <pt x="307" y="1497" on="1"/>
        <pt x="269" y="1425" on="0"/>
        <pt x="287" y="1403" on="1"/>
        <pt x="446" y="1150" on="0"/>
        <pt x="674" y="833" on="0"/>
        <pt x="696" y="805" on="1"/>
        <pt x="922" y="1115" on="0"/>
        <pt x="1102" y="1432" on="1"/>
        <pt x="1124" y="1473" on="0"/>
        <pt x="1110" y="1538" on="0"/>
        <pt x="1106" y="1555" on="1"/>
        <pt x="1080" y="1667" on="0"/>
        <pt x="1125" y="1667" on="1"/>
        <pt x="1135" y="1667" on="0"/>
        <pt x="1199" y="1614" on="0"/>
        <pt x="1223" y="1596" on="1"/>
        <pt x="1285" y="1551" on="0"/>
        <pt x="1319" y="1539" on="1"/>
        <pt x="1387" y="1513" on="0"/>
        <pt x="1387" y="1475" on="1"/>
        <pt x="1387" y="1440" on="0"/>
        <pt x="1314" y="1438" on="1"/>
        <pt x="1231" y="1436" on="0"/>
        <pt x="1187" y="1368" on="0"/>
        <pt x="1120" y="1268" on="0"/>
        <pt x="1041" y="1150" on="0"/>
        <pt x="954" y="1016" on="0"/>
        <pt x="910" y="947" on="1"/>
        <pt x="816" y="799" on="0"/>
        <pt x="742" y="675" on="1"/>
        <pt x="738" y="571" on="0"/>
        <pt x="738" y="502" on="1"/>
        <pt x="738" y="397" on="1"/>
        <pt x="739" y="242" on="1"/>
        <pt x="740" y="158" on="1"/>
        <pt x="740" y="102" on="0"/>
        <pt x="791" y="32" on="1"/>
        <pt x="806" y="12" on="0"/>
        <pt x="817" y="2" on="1"/>
        <pt x="848" y="-24" on="0"/>
        <pt x="848" y="-60" on="0"/>
        <pt x="813" y="-72" on="0"/>
        <pt x="765" y="-72" on="1"/>
        <pt x="658" y="-71" on="1"/>
      </contour>
    </TTGlyph>
    <TTGlyph name="Yacute" xMin="24" yMin="-80" xMax="1387" yMax="2046">
      <component glyphName="Y" x="0" y="0" flags="0x1204"/>
      <component glyphName="acute.cap" x="373" y="0" flags="0x1004"/>
    </TTGlyph>
    <TTGlyph name="Ydieresis" xMin="24" yMin="-80" xMax="1387" yMax="1936">
      <component glyphName="Y" x="0" y="0" flags="0x1204"/>
      <component glyphName="dieresis.cap" x="266" y="19" flags="0x1004"/>
    </TTGlyph>
    <TTGlyph name="Z" xMin="118" yMin="-114" xMax="1490" yMax="1667">
      <contour>
        <pt x="284" y="-10" on="0"/>
        <pt x="213" y="-31" on="0"/>
        <pt x="183" y="-31" on="0"/>
        <pt x="162" y="-24" on="0"/>
        <pt x="152" y="-18" on="1"/>
        <pt x="118" y="4" on="0"/>
        <pt x="138" y="40" on="1"/>
        <pt x="144" y="53" on="0"/>
        <pt x="197" y="101" on="0"/>
        <pt x="325" y="242" on="0"/>
        <pt x="487" y="430" on="0"/>
        <pt x="672" y="651" on="0"/>
        <pt x="857" y="880" on="0"/>
        <pt x="1034" y="1102" on="0"/>
        <pt x="1107" y="1197" on="1"/>
        <pt x="1270" y="1409" on="0"/>
        <pt x="1306" y="1471" on="1"/>
        <pt x="589" y="1471" on="0"/>
        <pt x="391" y="1457" on="0"/>
        <pt x="353" y="1447" on="0"/>
        <pt x="310" y="1414" on="0"/>
        <pt x="291" y="1394" on="1"/>
        <pt x="267" y="1370" on="0"/>
        <pt x="236" y="1330" on="1"/>
        <pt x="221" y="1313" on="0"/>
        <pt x="204" y="1313" on="1"/>
        <pt x="182" y="1313" on="0"/>
        <pt x="182" y="1337" on="1"/>
        <pt x="182" y="1398" on="1"/>
        <pt x="182" y="1568" on="0"/>
        <pt x="167" y="1618" on="1"/>
        <pt x="164" y="1628" on="0"/>
        <pt x="164" y="1638" on="1"/>
        <pt x="164" y="1667" on="0"/>
        <pt x="187" y="1667" on="1"/>
        <pt x="200" y="1667" on="0"/>
        <pt x="244" y="1632" on="0"/>
        <pt x="270" y="1610" on="1"/>
        <pt x="341" y="1553" on="0"/>
        <pt x="378" y="1551" on="1"/>
        <pt x="443" y="1546" on="0"/>
        <pt x="620" y="1546" on="1"/>
        <pt x="1372" y="1551" on="1"/>
        <pt x="1480" y="1551" on="0"/>
        <pt x="1435" y="1474" on="1"/>
        <pt x="1377" y="1378" on="0"/>
        <pt x="903" y="785" on="1"/>
        <pt x="381" y="133" on="0"/>
        <pt x="279" y="69" on="1"/>
        <pt x="927" y="78" on="1"/>
        <pt x="1124" y="82" on="0"/>
        <pt x="1249" y="100" on="0"/>
        <pt x="1311" y="135" on="0"/>
        <pt x="1336" y="156" on="1"/>
        <pt x="1410" y="227" on="1"/>
        <pt x="1431" y="248" on="0"/>
        <pt x="1454" y="248" on="1"/>
        <pt x="1490" y="248" on="0"/>
        <pt x="1471" y="179" on="1"/>
        <pt x="1450" y="95" on="0"/>
        <pt x="1450" y="-25" on="1"/>
        <pt x="1452" y="-80" on="1"/>
        <pt x="1452" y="-114" on="0"/>
        <pt x="1424" y="-114" on="1"/>
        <pt x="1398" y="-114" on="0"/>
        <pt x="1318" y="-43" on="0"/>
        <pt x="1275" y="-10" on="0"/>
        <pt x="1256" y="-8" on="1"/>
        <pt x="1202" y="-7" on="1"/>
        <pt x="435" y="-12" on="0"/>
      </contour>
    </TTGlyph>
    <TTGlyph name="Zcaron" xMin="118" yMin="-114" xMax="1490" yMax="2080">
      <component glyphName="Z" x="0" y="0" flags="0x1204"/>
      <component glyphName="caron.cap" x="301" y="84" flags="0x1004"/>
    </TTGlyph>
    <TTGlyph name="a" xMin="55" yMin="-3" xMax="1571" yMax="1385">
      <contour>
        <pt x="1318" y="3" on="1"/>
        <pt x="1271" y="3" on="0"/>
        <pt x="1284" y="69" on="1"/>
        <pt x="1310" y="191" on="0"/>
        <pt x="1298" y="223" on="1"/>
        <pt x="1114" y="512" on="1"/>
        <pt x="1061" y="597" on="0"/>
        <pt x="1002" y="699" on="1"/>
        <pt x="956" y="574" on="0"/>
        <pt x="877" y="414" on="0"/>
        <pt x="741" y="250" on="0"/>
        <pt x="676" y="192" on="1"/>
        <pt x="457" y="-3" on="0"/>
        <pt x="275" y="-3" on="1"/>
        <pt x="179" y="-3" on="0"/>
        <pt x="122" y="59" on="1"/>
        <pt x="55" y="136" on="0"/>
        <pt x="99" y="282" on="1"/>
        <pt x="157" y="476" on="0"/>
        <pt x="379" y="635" on="1"/>
        <pt x="579" y="779" on="0"/>
        <pt x="806" y="832" on="1"/>
        <pt x="867" y="847" on="0"/>
        <pt x="915" y="852" on="1"/>
        <pt x="806" y="1044" on="0"/>
        <pt x="773" y="1113" on="1"/>
        <pt x="755" y="1135" on="0"/>
        <pt x="722" y="1146" on="1"/>
        <pt x="599" y="1188" on="0"/>
        <pt x="565" y="1209" on="0"/>
        <pt x="565" y="1223" on="1"/>
        <pt x="565" y="1255" on="0"/>
        <pt x="617" y="1271" on="1"/>
        <pt x="707" y="1296" on="0"/>
        <pt x="776" y="1352" on="1"/>
        <pt x="815" y="1385" on="0"/>
        <pt x="889" y="1385" on="0"/>
        <pt x="889" y="1346" on="1"/>
        <pt x="852" y="1224" on="1"/>
        <pt x="841" y="1180" on="0"/>
        <pt x="854" y="1155" on="1"/>
        <pt x="1066" y="765" on="1"/>
        <pt x="1204" y="518" on="0"/>
        <pt x="1321" y="352" on="1"/>
        <pt x="1362" y="293" on="0"/>
        <pt x="1407" y="264" on="0"/>
        <pt x="1471" y="238" on="0"/>
        <pt x="1500" y="226" on="1"/>
        <pt x="1571" y="196" on="0"/>
        <pt x="1571" y="171" on="1"/>
        <pt x="1571" y="143" on="0"/>
        <pt x="1470" y="103" on="0"/>
        <pt x="1407" y="61" on="0"/>
        <pt x="1366" y="26" on="0"/>
        <pt x="1336" y="3" on="0"/>
      </contour>
      <contour>
        <pt x="202" y="268" on="1"/>
        <pt x="189" y="224" on="0"/>
        <pt x="189" y="172" on="0"/>
        <pt x="201" y="136" on="0"/>
        <pt x="212" y="122" on="1"/>
        <pt x="238" y="92" on="0"/>
        <pt x="271" y="92" on="1"/>
        <pt x="331" y="92" on="0"/>
        <pt x="483" y="153" on="0"/>
        <pt x="603" y="244" on="0"/>
        <pt x="660" y="303" on="1"/>
        <pt x="782" y="430" on="0"/>
        <pt x="849" y="561" on="1"/>
        <pt x="909" y="675" on="0"/>
        <pt x="941" y="771" on="1"/>
        <pt x="783" y="757" on="0"/>
        <pt x="604" y="668" on="1"/>
        <pt x="440" y="587" on="0"/>
        <pt x="328" y="466" on="1"/>
        <pt x="231" y="361" on="0"/>
      </contour>
    </TTGlyph>
    <TTGlyph name="aacute" xMin="55" yMin="-3" xMax="1571" yMax="1935">
      <component glyphName="a" x="0" y="0" flags="0x1204"/>
      <component glyphName="acute" x="580" y="54" flags="0x1004"/>
    </TTGlyph>
    <TTGlyph name="acircumflex" xMin="55" yMin="-3" xMax="1571" yMax="1843">
      <component glyphName="a" x="0" y="0" flags="0x1204"/>
      <component glyphName="circumflex" x="245" y="54" flags="0x1004"/>
    </TTGlyph>
    <TTGlyph name="acute" xMin="151" yMin="1477" xMax="612" yMax="1881">
      <contour>
        <pt x="567" y="1620" on="1"/>
        <pt x="468" y="1633" on="1"/>
        <pt x="452" y="1633" on="0"/>
        <pt x="428" y="1622" on="0"/>
        <pt x="368" y="1584" on="0"/>
        <pt x="340" y="1564" on="1"/>
        <pt x="270" y="1517" on="0"/>
        <pt x="258" y="1505" on="1"/>
        <pt x="230" y="1477" on="0"/>
        <pt x="176" y="1477" on="0"/>
        <pt x="151" y="1503" on="0"/>
        <pt x="151" y="1518" on="1"/>
        <pt x="151" y="1554" on="0"/>
        <pt x="190" y="1576" on="1"/>
        <pt x="228" y="1598" on="0"/>
        <pt x="381" y="1717" on="1"/>
        <pt x="391" y="1723" on="0"/>
        <pt x="402" y="1781" on="1"/>
        <pt x="423" y="1881" on="0"/>
        <pt x="464" y="1881" on="1"/>
        <pt x="487" y="1881" on="0"/>
        <pt x="509" y="1845" on="0"/>
        <pt x="529" y="1791" on="0"/>
        <pt x="555" y="1728" on="0"/>
        <pt x="574" y="1708" on="1"/>
        <pt x="612" y="1668" on="0"/>
        <pt x="612" y="1651" on="1"/>
        <pt x="612" y="1620" on="0"/>
      </contour>
    </TTGlyph>
    <TTGlyph name="acute.cap" xMin="233" yMin="1642" xMax="694" yMax="2046">
      <contour>
        <pt x="649" y="1785" on="1"/>
        <pt x="550" y="1798" on="1"/>
        <pt x="534" y="1798" on="0"/>
        <pt x="510" y="1787" on="0"/>
        <pt x="450" y="1749" on="0"/>
        <pt x="422" y="1730" on="1"/>
        <pt x="352" y="1682" on="0"/>
        <pt x="340" y="1670" on="1"/>
        <pt x="312" y="1642" on="0"/>
        <pt x="258" y="1642" on="0"/>
        <pt x="233" y="1668" on="0"/>
        <pt x="233" y="1684" on="1"/>
        <pt x="233" y="1719" on="0"/>
        <pt x="272" y="1741" on="1"/>
        <pt x="310" y="1763" on="0"/>
        <pt x="463" y="1882" on="1"/>
        <pt x="473" y="1888" on="0"/>
        <pt x="484" y="1946" on="1"/>
        <pt x="505" y="2046" on="0"/>
        <pt x="546" y="2046" on="1"/>
        <pt x="569" y="2046" on="0"/>
        <pt x="591" y="2010" on="0"/>
        <pt x="611" y="1956" on="0"/>
        <pt x="637" y="1893" on="0"/>
        <pt x="656" y="1873" on="1"/>
        <pt x="694" y="1833" on="0"/>
        <pt x="694" y="1816" on="1"/>
        <pt x="694" y="1785" on="0"/>
      </contour>
    </TTGlyph>
    <TTGlyph name="adieresis" xMin="55" yMin="-3" xMax="1571" yMax="1742">
      <component glyphName="a" x="0" y="0" flags="0x1204"/>
      <component glyphName="dieresis" x="215" y="54" flags="0x1004"/>
    </TTGlyph>
    <TTGlyph name="ae" xMin="-3" yMin="-34" xMax="1736" yMax="1463">
      <contour>
        <pt x="1039" y="7" on="1"/>
        <pt x="1052" y="131" on="1"/>
        <pt x="1052" y="159" on="0"/>
        <pt x="1042" y="186" on="0"/>
        <pt x="916" y="399" on="0"/>
        <pt x="804" y="609" on="1"/>
        <pt x="726" y="392" on="0"/>
        <pt x="566" y="228" on="1"/>
        <pt x="362" y="19" on="0"/>
        <pt x="190" y="19" on="1"/>
        <pt x="107" y="19" on="0"/>
        <pt x="56" y="77" on="1"/>
        <pt x="-3" y="149" on="0"/>
        <pt x="36" y="286" on="1"/>
        <pt x="68" y="397" on="0"/>
        <pt x="163" y="508" on="1"/>
        <pt x="290" y="654" on="0"/>
        <pt x="502" y="748" on="1"/>
        <pt x="606" y="793" on="0"/>
        <pt x="696" y="810" on="1"/>
        <pt x="554" y="1080" on="0"/>
        <pt x="514" y="1167" on="1"/>
        <pt x="500" y="1187" on="0"/>
        <pt x="470" y="1198" on="1"/>
        <pt x="366" y="1236" on="0"/>
        <pt x="332" y="1257" on="0"/>
        <pt x="332" y="1270" on="1"/>
        <pt x="332" y="1300" on="0"/>
        <pt x="416" y="1327" on="0"/>
        <pt x="475" y="1364" on="0"/>
        <pt x="499" y="1381" on="1"/>
        <pt x="615" y="1463" on="0"/>
        <pt x="615" y="1379" on="1"/>
        <pt x="615" y="1353" on="0"/>
        <pt x="602" y="1321" on="1"/>
        <pt x="569" y="1234" on="0"/>
        <pt x="585" y="1207" on="1"/>
        <pt x="749" y="880" on="1"/>
        <pt x="754" y="1149" on="0"/>
        <pt x="948" y="1309" on="1"/>
        <pt x="1054" y="1397" on="0"/>
        <pt x="1174" y="1428" on="1"/>
        <pt x="1305" y="1462" on="0"/>
        <pt x="1460" y="1418" on="1"/>
        <pt x="1622" y="1370" on="0"/>
        <pt x="1676" y="1245" on="1"/>
        <pt x="1695" y="1199" on="0"/>
        <pt x="1695" y="1080" on="0"/>
        <pt x="1663" y="989" on="0"/>
        <pt x="1613" y="923" on="0"/>
        <pt x="1551" y="878" on="0"/>
        <pt x="1522" y="864" on="1"/>
        <pt x="1468" y="840" on="0"/>
        <pt x="1427" y="840" on="1"/>
        <pt x="1324" y="840" on="0"/>
        <pt x="1230" y="870" on="0"/>
        <pt x="1160" y="876" on="0"/>
        <pt x="1111" y="880" on="0"/>
        <pt x="1085" y="893" on="0"/>
        <pt x="1085" y="924" on="0"/>
        <pt x="1118" y="967" on="0"/>
        <pt x="1139" y="991" on="1"/>
        <pt x="1198" y="1059" on="0"/>
        <pt x="1204" y="1073" on="0"/>
        <pt x="1214" y="1088" on="0"/>
        <pt x="1221" y="1094" on="1"/>
        <pt x="1255" y="1126" on="0"/>
        <pt x="1280" y="1096" on="1"/>
        <pt x="1294" y="1080" on="0"/>
        <pt x="1318" y="937" on="0"/>
        <pt x="1331" y="933" on="0"/>
        <pt x="1348" y="928" on="0"/>
        <pt x="1360" y="926" on="1"/>
        <pt x="1441" y="916" on="0"/>
        <pt x="1512" y="954" on="0"/>
        <pt x="1538" y="981" on="1"/>
        <pt x="1623" y="1072" on="0"/>
        <pt x="1586" y="1200" on="1"/>
        <pt x="1560" y="1289" on="0"/>
        <pt x="1445" y="1329" on="1"/>
        <pt x="1384" y="1350" on="0"/>
        <pt x="1199" y="1350" on="0"/>
        <pt x="1038" y="1272" on="0"/>
        <pt x="976" y="1206" on="1"/>
        <pt x="840" y="1063" on="0"/>
        <pt x="840" y="876" on="1"/>
        <pt x="840" y="702" on="0"/>
        <pt x="958" y="595" on="1"/>
        <pt x="1076" y="489" on="0"/>
        <pt x="1269" y="489" on="1"/>
        <pt x="1479" y="489" on="0"/>
        <pt x="1550" y="560" on="1"/>
        <pt x="1580" y="588" on="0"/>
        <pt x="1617" y="663" on="0"/>
        <pt x="1633" y="685" on="0"/>
        <pt x="1656" y="685" on="0"/>
        <pt x="1680" y="668" on="0"/>
        <pt x="1680" y="632" on="0"/>
        <pt x="1687" y="591" on="0"/>
        <pt x="1693" y="570" on="1"/>
        <pt x="1704" y="529" on="0"/>
        <pt x="1736" y="473" on="0"/>
        <pt x="1736" y="457" on="1"/>
        <pt x="1736" y="419" on="0"/>
        <pt x="1692" y="419" on="1"/>
        <pt x="1678" y="419" on="0"/>
        <pt x="1590" y="460" on="0"/>
        <pt x="1587" y="460" on="1"/>
        <pt x="1473" y="424" on="1"/>
        <pt x="1252" y="370" on="0"/>
        <pt x="1045" y="439" on="1"/>
        <pt x="1003" y="453" on="0"/>
        <pt x="963" y="474" on="1"/>
        <pt x="1041" y="336" on="0"/>
        <pt x="1116" y="227" on="0"/>
        <pt x="1143" y="210" on="0"/>
        <pt x="1201" y="186" on="0"/>
        <pt x="1228" y="174" on="1"/>
        <pt x="1293" y="145" on="0"/>
        <pt x="1293" y="123" on="1"/>
        <pt x="1293" y="102" on="0"/>
        <pt x="1246" y="75" on="1"/>
        <pt x="1137" y="13" on="0"/>
        <pt x="1124" y="-1" on="1"/>
        <pt x="1097" y="-34" on="0"/>
        <pt x="1072" y="-34" on="1"/>
        <pt x="1039" y="-34" on="0"/>
      </contour>
      <contour>
        <pt x="136" y="136" on="1"/>
        <pt x="156" y="108" on="0"/>
        <pt x="249" y="108" on="0"/>
        <pt x="362" y="159" on="0"/>
        <pt x="471" y="246" on="0"/>
        <pt x="574" y="362" on="0"/>
        <pt x="618" y="428" on="1"/>
        <pt x="710" y="564" on="0"/>
        <pt x="756" y="697" on="1"/>
        <pt x="734" y="738" on="1"/>
        <pt x="531" y="707" on="0"/>
        <pt x="345" y="560" on="1"/>
        <pt x="168" y="421" on="0"/>
        <pt x="126" y="273" on="1"/>
        <pt x="101" y="184" on="0"/>
      </contour>
    </TTGlyph>
    <TTGlyph name="aeacute" xMin="20" yMin="-34" xMax="1859" yMax="1937">
      <contour>
        <pt x="1062" y="7" on="1"/>
        <pt x="1075" y="131" on="1"/>
        <pt x="1075" y="159" on="0"/>
        <pt x="1065" y="186" on="0"/>
        <pt x="939" y="399" on="0"/>
        <pt x="827" y="609" on="1"/>
        <pt x="749" y="392" on="0"/>
        <pt x="590" y="228" on="1"/>
        <pt x="385" y="19" on="0"/>
        <pt x="213" y="19" on="1"/>
        <pt x="130" y="19" on="0"/>
        <pt x="79" y="77" on="1"/>
        <pt x="20" y="149" on="0"/>
        <pt x="59" y="286" on="1"/>
        <pt x="91" y="397" on="0"/>
        <pt x="186" y="508" on="1"/>
        <pt x="313" y="654" on="0"/>
        <pt x="526" y="748" on="1"/>
        <pt x="629" y="793" on="0"/>
        <pt x="719" y="810" on="1"/>
        <pt x="577" y="1080" on="0"/>
        <pt x="537" y="1167" on="1"/>
        <pt x="523" y="1187" on="0"/>
        <pt x="493" y="1198" on="1"/>
        <pt x="389" y="1236" on="0"/>
        <pt x="355" y="1257" on="0"/>
        <pt x="355" y="1270" on="1"/>
        <pt x="355" y="1300" on="0"/>
        <pt x="439" y="1327" on="0"/>
        <pt x="498" y="1364" on="0"/>
        <pt x="522" y="1381" on="1"/>
        <pt x="638" y="1463" on="0"/>
        <pt x="638" y="1379" on="1"/>
        <pt x="638" y="1353" on="0"/>
        <pt x="626" y="1321" on="1"/>
        <pt x="592" y="1234" on="0"/>
        <pt x="626" y="1172" on="0"/>
        <pt x="670" y="1085" on="0"/>
        <pt x="694" y="1035" on="1"/>
        <pt x="731" y="961" on="0"/>
        <pt x="803" y="819" on="1"/>
        <pt x="878" y="812" on="0"/>
        <pt x="858" y="713" on="1"/>
        <pt x="872" y="685" on="1"/>
        <pt x="872" y="979" on="0"/>
        <pt x="1073" y="1142" on="1"/>
        <pt x="1240" y="1279" on="0"/>
        <pt x="1408" y="1279" on="1"/>
        <pt x="1561" y="1279" on="0"/>
        <pt x="1676" y="1216" on="1"/>
        <pt x="1818" y="1140" on="0"/>
        <pt x="1818" y="976" on="1"/>
        <pt x="1818" y="780" on="0"/>
        <pt x="1644" y="700" on="1"/>
        <pt x="1591" y="676" on="0"/>
        <pt x="1550" y="676" on="1"/>
        <pt x="1447" y="676" on="0"/>
        <pt x="1353" y="706" on="0"/>
        <pt x="1283" y="712" on="0"/>
        <pt x="1234" y="716" on="0"/>
        <pt x="1208" y="729" on="0"/>
        <pt x="1208" y="760" on="0"/>
        <pt x="1241" y="803" on="0"/>
        <pt x="1262" y="827" on="1"/>
        <pt x="1321" y="895" on="0"/>
        <pt x="1327" y="909" on="0"/>
        <pt x="1337" y="924" on="0"/>
        <pt x="1344" y="930" on="1"/>
        <pt x="1378" y="962" on="0"/>
        <pt x="1403" y="932" on="1"/>
        <pt x="1417" y="916" on="0"/>
        <pt x="1441" y="773" on="0"/>
        <pt x="1454" y="769" on="0"/>
        <pt x="1471" y="764" on="0"/>
        <pt x="1483" y="762" on="1"/>
        <pt x="1564" y="752" on="0"/>
        <pt x="1635" y="790" on="0"/>
        <pt x="1660" y="817" on="1"/>
        <pt x="1746" y="908" on="0"/>
        <pt x="1709" y="1036" on="1"/>
        <pt x="1683" y="1125" on="0"/>
        <pt x="1568" y="1165" on="1"/>
        <pt x="1507" y="1186" on="0"/>
        <pt x="1322" y="1186" on="0"/>
        <pt x="1161" y="1108" on="0"/>
        <pt x="1099" y="1042" on="1"/>
        <pt x="963" y="899" on="0"/>
        <pt x="963" y="712" on="1"/>
        <pt x="963" y="538" on="0"/>
        <pt x="1082" y="431" on="1"/>
        <pt x="1199" y="325" on="0"/>
        <pt x="1392" y="325" on="1"/>
        <pt x="1602" y="325" on="0"/>
        <pt x="1673" y="396" on="1"/>
        <pt x="1703" y="424" on="0"/>
        <pt x="1740" y="499" on="0"/>
        <pt x="1756" y="521" on="0"/>
        <pt x="1779" y="521" on="0"/>
        <pt x="1803" y="504" on="0"/>
        <pt x="1803" y="468" on="0"/>
        <pt x="1810" y="427" on="0"/>
        <pt x="1816" y="406" on="1"/>
        <pt x="1827" y="365" on="0"/>
        <pt x="1859" y="309" on="0"/>
        <pt x="1859" y="293" on="1"/>
        <pt x="1859" y="255" on="0"/>
        <pt x="1815" y="255" on="1"/>
        <pt x="1801" y="255" on="0"/>
        <pt x="1713" y="296" on="0"/>
        <pt x="1710" y="296" on="1"/>
        <pt x="1596" y="260" on="1"/>
        <pt x="1373" y="206" on="0"/>
        <pt x="1166" y="275" on="1"/>
        <pt x="1124" y="289" on="0"/>
        <pt x="1084" y="311" on="1"/>
        <pt x="1097" y="292" on="1"/>
        <pt x="1115" y="265" on="0"/>
        <pt x="1137" y="228" on="0"/>
        <pt x="1166" y="209" on="0"/>
        <pt x="1224" y="186" on="0"/>
        <pt x="1251" y="174" on="1"/>
        <pt x="1316" y="145" on="0"/>
        <pt x="1316" y="123" on="1"/>
        <pt x="1316" y="102" on="0"/>
        <pt x="1270" y="75" on="1"/>
        <pt x="1160" y="13" on="0"/>
        <pt x="1147" y="-1" on="1"/>
        <pt x="1120" y="-34" on="0"/>
        <pt x="1095" y="-34" on="1"/>
        <pt x="1062" y="-34" on="0"/>
      </contour>
      <contour>
        <pt x="158" y="136" on="1"/>
        <pt x="179" y="108" on="0"/>
        <pt x="272" y="108" on="0"/>
        <pt x="385" y="159" on="0"/>
        <pt x="494" y="246" on="0"/>
        <pt x="597" y="362" on="0"/>
        <pt x="641" y="428" on="1"/>
        <pt x="733" y="564" on="0"/>
        <pt x="779" y="697" on="1"/>
        <pt x="757" y="738" on="1"/>
        <pt x="554" y="707" on="0"/>
        <pt x="368" y="560" on="1"/>
        <pt x="191" y="421" on="0"/>
        <pt x="150" y="273" on="1"/>
        <pt x="124" y="184" on="0"/>
      </contour>
      <contour>
        <pt x="1404" y="1676" on="1"/>
        <pt x="1305" y="1689" on="1"/>
        <pt x="1289" y="1689" on="0"/>
        <pt x="1265" y="1678" on="0"/>
        <pt x="1205" y="1640" on="0"/>
        <pt x="1176" y="1620" on="1"/>
        <pt x="1107" y="1573" on="0"/>
        <pt x="1095" y="1561" on="1"/>
        <pt x="1067" y="1533" on="0"/>
        <pt x="1013" y="1533" on="0"/>
        <pt x="988" y="1559" on="0"/>
        <pt x="988" y="1574" on="1"/>
        <pt x="988" y="1610" on="0"/>
        <pt x="1027" y="1632" on="1"/>
        <pt x="1065" y="1654" on="0"/>
        <pt x="1218" y="1773" on="1"/>
        <pt x="1228" y="1779" on="0"/>
        <pt x="1239" y="1837" on="1"/>
        <pt x="1260" y="1937" on="0"/>
        <pt x="1301" y="1937" on="1"/>
        <pt x="1324" y="1937" on="0"/>
        <pt x="1346" y="1901" on="0"/>
        <pt x="1366" y="1847" on="0"/>
        <pt x="1392" y="1784" on="0"/>
        <pt x="1411" y="1764" on="1"/>
        <pt x="1449" y="1724" on="0"/>
        <pt x="1449" y="1707" on="1"/>
        <pt x="1449" y="1676" on="0"/>
      </contour>
    </TTGlyph>
    <TTGlyph name="afii61352" xMin="87" yMin="-38" xMax="2351" yMax="1507">
      <contour>
        <pt x="402" y="22" on="1"/>
        <pt x="402" y="-18" on="0"/>
        <pt x="309" y="1" on="1"/>
        <pt x="240" y="16" on="0"/>
        <pt x="116" y="16" on="1"/>
        <pt x="87" y="16" on="0"/>
        <pt x="87" y="40" on="1"/>
        <pt x="87" y="70" on="0"/>
        <pt x="147" y="100" on="0"/>
        <pt x="181" y="127" on="0"/>
        <pt x="190" y="144" on="1"/>
        <pt x="209" y="177" on="0"/>
        <pt x="229" y="355" on="0"/>
        <pt x="246" y="501" on="0"/>
        <pt x="265" y="677" on="0"/>
        <pt x="284" y="856" on="0"/>
        <pt x="302" y="1025" on="0"/>
        <pt x="309" y="1092" on="1"/>
        <pt x="325" y="1239" on="0"/>
        <pt x="326" y="1257" on="0"/>
        <pt x="308" y="1292" on="0"/>
        <pt x="294" y="1310" on="1"/>
        <pt x="261" y="1351" on="0"/>
        <pt x="230" y="1365" on="1"/>
        <pt x="182" y="1387" on="0"/>
        <pt x="182" y="1416" on="1"/>
        <pt x="182" y="1430" on="0"/>
        <pt x="207" y="1452" on="0"/>
        <pt x="228" y="1452" on="1"/>
        <pt x="371" y="1443" on="1"/>
        <pt x="415" y="1443" on="0"/>
        <pt x="484" y="1454" on="0"/>
        <pt x="545" y="1454" on="0"/>
        <pt x="545" y="1427" on="1"/>
        <pt x="545" y="1396" on="0"/>
        <pt x="477" y="1364" on="0"/>
        <pt x="438" y="1330" on="0"/>
        <pt x="427" y="1315" on="1"/>
        <pt x="408" y="1289" on="0"/>
        <pt x="408" y="1274" on="1"/>
        <pt x="444" y="1175" on="0"/>
        <pt x="862" y="518" on="1"/>
        <pt x="1067" y="195" on="0"/>
        <pt x="1117" y="130" on="1"/>
        <pt x="1199" y="1296" on="1"/>
        <pt x="1199" y="1324" on="0"/>
        <pt x="1147" y="1398" on="0"/>
        <pt x="1097" y="1464" on="0"/>
        <pt x="1097" y="1482" on="1"/>
        <pt x="1097" y="1507" on="0"/>
        <pt x="1158" y="1507" on="0"/>
        <pt x="1228" y="1495" on="0"/>
        <pt x="1276" y="1495" on="1"/>
        <pt x="1381" y="1500" on="1"/>
        <pt x="1460" y="1500" on="0"/>
        <pt x="1390" y="1430" on="1"/>
        <pt x="1352" y="1392" on="1"/>
        <pt x="1311" y="1348" on="0"/>
        <pt x="1294" y="1305" on="0"/>
        <pt x="1284" y="1208" on="0"/>
        <pt x="1271" y="1052" on="0"/>
        <pt x="1257" y="854" on="0"/>
        <pt x="1242" y="641" on="0"/>
        <pt x="1229" y="429" on="0"/>
        <pt x="1224" y="338" on="1"/>
        <pt x="1213" y="136" on="0"/>
        <pt x="1213" y="74" on="1"/>
        <pt x="1214" y="41" on="1"/>
        <pt x="1214" y="-2" on="0"/>
        <pt x="1180" y="-38" on="0"/>
        <pt x="1164" y="-38" on="1"/>
        <pt x="1138" y="-38" on="0"/>
        <pt x="1117" y="-17" on="0"/>
        <pt x="1074" y="48" on="0"/>
        <pt x="1004" y="155" on="0"/>
        <pt x="914" y="295" on="0"/>
        <pt x="814" y="452" on="0"/>
        <pt x="708" y="619" on="0"/>
        <pt x="607" y="780" on="0"/>
        <pt x="517" y="926" on="0"/>
        <pt x="482" y="984" on="1"/>
        <pt x="407" y="1109" on="0"/>
        <pt x="399" y="1132" on="1"/>
        <pt x="304" y="247" on="0"/>
        <pt x="304" y="226" on="1"/>
        <pt x="304" y="200" on="1"/>
        <pt x="304" y="158" on="0"/>
        <pt x="322" y="133" on="1"/>
        <pt x="322" y="133" on="0"/>
        <pt x="402" y="35" on="0"/>
      </contour>
      <contour>
        <pt x="1457" y="818" on="1"/>
        <pt x="1431" y="893" on="0"/>
        <pt x="1431" y="1088" on="0"/>
        <pt x="1486" y="1246" on="0"/>
        <pt x="1533" y="1306" on="1"/>
        <pt x="1631" y="1431" on="0"/>
        <pt x="1781" y="1452" on="1"/>
        <pt x="1868" y="1479" on="0"/>
        <pt x="1983" y="1462" on="1"/>
        <pt x="2090" y="1445" on="0"/>
        <pt x="2182" y="1379" on="1"/>
        <pt x="2284" y="1305" on="0"/>
        <pt x="2328" y="1154" on="1"/>
        <pt x="2351" y="1076" on="0"/>
        <pt x="2351" y="869" on="0"/>
        <pt x="2289" y="726" on="0"/>
        <pt x="2194" y="630" on="0"/>
        <pt x="2078" y="573" on="0"/>
        <pt x="2024" y="558" on="1"/>
        <pt x="1803" y="496" on="0"/>
        <pt x="1616" y="611" on="1"/>
        <pt x="1506" y="678" on="0"/>
      </contour>
      <contour>
        <pt x="1540" y="1074" on="1"/>
        <pt x="1532" y="1032" on="0"/>
        <pt x="1532" y="918" on="0"/>
        <pt x="1569" y="804" on="0"/>
        <pt x="1630" y="723" on="0"/>
        <pt x="1705" y="670" on="0"/>
        <pt x="1742" y="655" on="1"/>
        <pt x="1810" y="628" on="0"/>
        <pt x="1886" y="628" on="0"/>
        <pt x="1953" y="635" on="0"/>
        <pt x="2038" y="659" on="0"/>
        <pt x="2129" y="704" on="0"/>
        <pt x="2167" y="742" on="1"/>
        <pt x="2254" y="831" on="0"/>
        <pt x="2254" y="975" on="1"/>
        <pt x="2254" y="1262" on="0"/>
        <pt x="2043" y="1346" on="1"/>
        <pt x="1879" y="1412" on="0"/>
        <pt x="1696" y="1315" on="1"/>
        <pt x="1670" y="1301" on="0"/>
        <pt x="1650" y="1292" on="1"/>
        <pt x="1566" y="1225" on="0"/>
      </contour>
      <contour>
        <pt x="1533" y="126" on="1"/>
        <pt x="1498" y="126" on="0"/>
        <pt x="1498" y="169" on="1"/>
        <pt x="1498" y="188" on="0"/>
        <pt x="1504" y="232" on="0"/>
        <pt x="1507" y="254" on="1"/>
        <pt x="1516" y="320" on="0"/>
        <pt x="1516" y="335" on="1"/>
        <pt x="1507" y="406" on="1"/>
        <pt x="1507" y="423" on="0"/>
        <pt x="1525" y="441" on="0"/>
        <pt x="1547" y="441" on="0"/>
        <pt x="1588" y="405" on="0"/>
        <pt x="1610" y="384" on="1"/>
        <pt x="1670" y="327" on="0"/>
        <pt x="1679" y="327" on="1"/>
        <pt x="1860" y="327" on="0"/>
        <pt x="2054" y="346" on="1"/>
        <pt x="2095" y="350" on="0"/>
        <pt x="2154" y="408" on="1"/>
        <pt x="2193" y="448" on="1"/>
        <pt x="2211" y="466" on="0"/>
        <pt x="2227" y="466" on="1"/>
        <pt x="2265" y="466" on="0"/>
        <pt x="2265" y="390" on="1"/>
        <pt x="2263" y="306" on="1"/>
        <pt x="2263" y="256" on="0"/>
        <pt x="2281" y="214" on="0"/>
        <pt x="2281" y="204" on="1"/>
        <pt x="2281" y="140" on="0"/>
        <pt x="2228" y="154" on="1"/>
        <pt x="2218" y="157" on="0"/>
        <pt x="2180" y="184" on="1"/>
        <pt x="2087" y="249" on="0"/>
        <pt x="2058" y="254" on="1"/>
        <pt x="1748" y="244" on="1"/>
        <pt x="1716" y="243" on="0"/>
        <pt x="1692" y="241" on="1"/>
        <pt x="1656" y="238" on="0"/>
        <pt x="1604" y="181" on="1"/>
        <pt x="1552" y="126" on="0"/>
      </contour>
    </TTGlyph>
    <TTGlyph name="agrave" xMin="55" yMin="-3" xMax="1571" yMax="1935">
      <component glyphName="a" x="0" y="0" flags="0x1204"/>
      <component glyphName="grave" x="219" y="54" flags="0x1004"/>
    </TTGlyph>
    <TTGlyph name="amacron" xMin="55" yMin="-3" xMax="1571" yMax="1938">
      <component glyphName="a" x="0" y="0" flags="0x1204"/>
      <component glyphName="macron" x="314" y="54" flags="0x1004"/>
    </TTGlyph>
    <TTGlyph name="ampersand" xMin="153" yMin="-77" xMax="1750" yMax="1689">
      <contour>
        <pt x="1746" y="432" on="1"/>
        <pt x="1746" y="371" on="0"/>
        <pt x="1704" y="408" on="1"/>
        <pt x="1681" y="427" on="0"/>
        <pt x="1634" y="481" on="0"/>
        <pt x="1621" y="492" on="1"/>
        <pt x="1581" y="528" on="0"/>
        <pt x="1520" y="528" on="1"/>
        <pt x="1365" y="523" on="1"/>
        <pt x="1366" y="511" on="0"/>
        <pt x="1366" y="499" on="1"/>
        <pt x="1366" y="476" on="1"/>
        <pt x="1366" y="135" on="0"/>
        <pt x="1131" y="3" on="1"/>
        <pt x="989" y="-77" on="0"/>
        <pt x="738" y="-72" on="1"/>
        <pt x="515" y="-69" on="0"/>
        <pt x="345" y="48" on="1"/>
        <pt x="231" y="126" on="0"/>
        <pt x="180" y="268" on="1"/>
        <pt x="154" y="343" on="0"/>
        <pt x="153" y="554" on="0"/>
        <pt x="224" y="720" on="0"/>
        <pt x="333" y="839" on="0"/>
        <pt x="463" y="915" on="0"/>
        <pt x="522" y="937" on="1"/>
        <pt x="614" y="972" on="0"/>
        <pt x="700" y="978" on="0"/>
        <pt x="700" y="983" on="1"/>
        <pt x="700" y="988" on="0"/>
        <pt x="670" y="1002" on="0"/>
        <pt x="642" y="1019" on="0"/>
        <pt x="586" y="1062" on="0"/>
        <pt x="558" y="1098" on="1"/>
        <pt x="485" y="1190" on="0"/>
        <pt x="485" y="1375" on="0"/>
        <pt x="525" y="1487" on="0"/>
        <pt x="591" y="1566" on="0"/>
        <pt x="672" y="1617" on="0"/>
        <pt x="714" y="1631" on="1"/>
        <pt x="843" y="1674" on="0"/>
        <pt x="972" y="1642" on="1"/>
        <pt x="1036" y="1627" on="0"/>
        <pt x="1073" y="1633" on="0"/>
        <pt x="1090" y="1638" on="1"/>
        <pt x="1209" y="1680" on="1"/>
        <pt x="1249" y="1689" on="0"/>
        <pt x="1249" y="1663" on="1"/>
        <pt x="1249" y="1642" on="0"/>
        <pt x="1216" y="1579" on="1"/>
        <pt x="1185" y="1520" on="0"/>
        <pt x="1181" y="1430" on="0"/>
        <pt x="1181" y="1374" on="0"/>
        <pt x="1157" y="1350" on="0"/>
        <pt x="1126" y="1350" on="0"/>
        <pt x="1099" y="1388" on="0"/>
        <pt x="1086" y="1414" on="1"/>
        <pt x="1050" y="1492" on="0"/>
        <pt x="1037" y="1505" on="1"/>
        <pt x="1016" y="1526" on="1"/>
        <pt x="983" y="1559" on="0"/>
        <pt x="870" y="1573" on="1"/>
        <pt x="750" y="1588" on="0"/>
        <pt x="662" y="1513" on="1"/>
        <pt x="578" y="1441" on="0"/>
        <pt x="578" y="1315" on="1"/>
        <pt x="578" y="1189" on="0"/>
        <pt x="698" y="1094" on="1"/>
        <pt x="747" y="1054" on="0"/>
        <pt x="853" y="1012" on="0"/>
        <pt x="900" y="1012" on="0"/>
        <pt x="921" y="1019" on="0"/>
        <pt x="934" y="1026" on="1"/>
        <pt x="953" y="1038" on="0"/>
        <pt x="1008" y="1077" on="1"/>
        <pt x="1062" y="1116" on="0"/>
        <pt x="1062" y="1070" on="1"/>
        <pt x="1062" y="1038" on="0"/>
        <pt x="1044" y="954" on="0"/>
        <pt x="1044" y="893" on="1"/>
        <pt x="1045" y="858" on="1"/>
        <pt x="1045" y="815" on="0"/>
        <pt x="1014" y="834" on="1"/>
        <pt x="944" y="892" on="1"/>
        <pt x="925" y="907" on="0"/>
        <pt x="902" y="924" on="1"/>
        <pt x="870" y="919" on="0"/>
        <pt x="754" y="919" on="0"/>
        <pt x="640" y="900" on="0"/>
        <pt x="520" y="855" on="0"/>
        <pt x="403" y="783" on="0"/>
        <pt x="356" y="730" on="1"/>
        <pt x="235" y="591" on="0"/>
        <pt x="256" y="384" on="1"/>
        <pt x="265" y="292" on="0"/>
        <pt x="355" y="147" on="0"/>
        <pt x="410" y="106" on="1"/>
        <pt x="537" y="10" on="0"/>
        <pt x="746" y="10" on="1"/>
        <pt x="1128" y="10" on="0"/>
        <pt x="1236" y="272" on="1"/>
        <pt x="1274" y="366" on="0"/>
        <pt x="1274" y="483" on="1"/>
        <pt x="1273" y="516" on="1"/>
        <pt x="1215" y="515" on="0"/>
        <pt x="1166" y="514" on="1"/>
        <pt x="1049" y="512" on="0"/>
        <pt x="1009" y="512" on="0"/>
        <pt x="972" y="489" on="0"/>
        <pt x="954" y="472" on="1"/>
        <pt x="922" y="442" on="0"/>
        <pt x="901" y="411" on="1"/>
        <pt x="871" y="368" on="0"/>
        <pt x="852" y="368" on="1"/>
        <pt x="823" y="368" on="0"/>
        <pt x="823" y="411" on="1"/>
        <pt x="830" y="508" on="1"/>
        <pt x="830" y="572" on="0"/>
        <pt x="805" y="658" on="0"/>
        <pt x="805" y="706" on="0"/>
        <pt x="847" y="706" on="0"/>
        <pt x="882" y="667" on="0"/>
        <pt x="902" y="644" on="1"/>
        <pt x="954" y="582" on="0"/>
        <pt x="1003" y="582" on="1"/>
        <pt x="1534" y="598" on="1"/>
        <pt x="1584" y="598" on="0"/>
        <pt x="1655" y="659" on="0"/>
        <pt x="1679" y="698" on="1"/>
        <pt x="1712" y="752" on="0"/>
        <pt x="1727" y="752" on="1"/>
        <pt x="1750" y="752" on="0"/>
        <pt x="1750" y="702" on="1"/>
        <pt x="1742" y="538" on="1"/>
      </contour>
    </TTGlyph>
    <TTGlyph name="approxequal" xMin="16" yMin="175" xMax="1509" yMax="1078">
      <component glyphName="asciitilde" x="0" y="-410" flags="0x1204"/>
      <component glyphName="asciitilde" x="3" y="100" flags="0x1004"/>
    </TTGlyph>
    <TTGlyph name="aring" xMin="55" yMin="-3" xMax="1571" yMax="2009">
      <component glyphName="a" x="0" y="0" flags="0x1204"/>
      <component glyphName="ring" x="360" y="54" flags="0x1004"/>
    </TTGlyph>
    <TTGlyph name="asciicircum" xMin="74" yMin="47" xMax="1235" yMax="1643">
      <contour>
        <pt x="131" y="70" on="1"/>
        <pt x="74" y="70" on="0"/>
        <pt x="74" y="106" on="1"/>
        <pt x="74" y="135" on="0"/>
        <pt x="110" y="159" on="0"/>
        <pt x="146" y="176" on="0"/>
        <pt x="181" y="203" on="0"/>
        <pt x="219" y="317" on="0"/>
        <pt x="290" y="539" on="0"/>
        <pt x="369" y="791" on="0"/>
        <pt x="452" y="1058" on="0"/>
        <pt x="492" y="1184" on="1"/>
        <pt x="578" y="1461" on="0"/>
        <pt x="629" y="1613" on="1"/>
        <pt x="639" y="1643" on="0"/>
        <pt x="673" y="1643" on="1"/>
        <pt x="740" y="1643" on="0"/>
        <pt x="750" y="1603" on="1"/>
        <pt x="983" y="691" on="1"/>
        <pt x="1048" y="439" on="0"/>
        <pt x="1095" y="282" on="1"/>
        <pt x="1105" y="247" on="0"/>
        <pt x="1152" y="208" on="0"/>
        <pt x="1199" y="180" on="0"/>
        <pt x="1235" y="150" on="0"/>
        <pt x="1235" y="123" on="1"/>
        <pt x="1235" y="90" on="0"/>
        <pt x="1176" y="90" on="1"/>
        <pt x="1120" y="91" on="1"/>
        <pt x="951" y="80" on="1"/>
        <pt x="899" y="80" on="0"/>
        <pt x="899" y="109" on="1"/>
        <pt x="899" y="131" on="0"/>
        <pt x="969" y="192" on="0"/>
        <pt x="985" y="208" on="1"/>
        <pt x="1006" y="229" on="0"/>
        <pt x="1000" y="247" on="1"/>
        <pt x="891" y="683" on="0"/>
        <pt x="702" y="1404" on="0"/>
        <pt x="684" y="1475" on="1"/>
        <pt x="302" y="224" on="1"/>
        <pt x="308" y="200" on="0"/>
        <pt x="352" y="163" on="0"/>
        <pt x="380" y="137" on="1"/>
        <pt x="433" y="88" on="0"/>
        <pt x="390" y="62" on="1"/>
        <pt x="364" y="47" on="0"/>
        <pt x="302" y="59" on="0"/>
        <pt x="280" y="62" on="1"/>
        <pt x="216" y="73" on="0"/>
        <pt x="188" y="73" on="1"/>
      </contour>
    </TTGlyph>
    <TTGlyph name="asciitilde" xMin="16" yMin="585" xMax="1506" yMax="978">
      <contour>
        <pt x="1263" y="893" on="1"/>
        <pt x="1263" y="978" on="0"/>
        <pt x="1308" y="978" on="1"/>
        <pt x="1335" y="978" on="0"/>
        <pt x="1348" y="940" on="1"/>
        <pt x="1380" y="849" on="0"/>
        <pt x="1474" y="774" on="1"/>
        <pt x="1506" y="748" on="0"/>
        <pt x="1506" y="729" on="1"/>
        <pt x="1506" y="680" on="0"/>
        <pt x="1443" y="693" on="1"/>
        <pt x="1337" y="714" on="0"/>
        <pt x="1311" y="705" on="1"/>
        <pt x="1210" y="642" on="1"/>
        <pt x="1109" y="585" on="0"/>
        <pt x="951" y="585" on="0"/>
        <pt x="850" y="627" on="0"/>
        <pt x="772" y="690" on="0"/>
        <pt x="708" y="763" on="0"/>
        <pt x="674" y="794" on="1"/>
        <pt x="595" y="868" on="0"/>
        <pt x="503" y="868" on="1"/>
        <pt x="386" y="868" on="0"/>
        <pt x="314" y="788" on="1"/>
        <pt x="298" y="769" on="0"/>
        <pt x="279" y="744" on="0"/>
        <pt x="272" y="689" on="0"/>
        <pt x="264" y="634" on="0"/>
        <pt x="246" y="593" on="0"/>
        <pt x="206" y="593" on="0"/>
        <pt x="177" y="623" on="0"/>
        <pt x="174" y="657" on="0"/>
        <pt x="156" y="701" on="0"/>
        <pt x="141" y="724" on="1"/>
        <pt x="110" y="774" on="0"/>
        <pt x="75" y="800" on="1"/>
        <pt x="16" y="845" on="0"/>
        <pt x="59" y="871" on="1"/>
        <pt x="88" y="889" on="0"/>
        <pt x="113" y="878" on="1"/>
        <pt x="192" y="844" on="0"/>
        <pt x="242" y="844" on="0"/>
        <pt x="287" y="881" on="0"/>
        <pt x="318" y="903" on="1"/>
        <pt x="403" y="962" on="0"/>
        <pt x="577" y="962" on="0"/>
        <pt x="682" y="920" on="0"/>
        <pt x="759" y="856" on="0"/>
        <pt x="818" y="782" on="0"/>
        <pt x="850" y="750" on="1"/>
        <pt x="985" y="615" on="0"/>
        <pt x="1170" y="718" on="1"/>
        <pt x="1227" y="750" on="0"/>
        <pt x="1250" y="782" on="1"/>
        <pt x="1264" y="794" on="0"/>
        <pt x="1264" y="839" on="1"/>
      </contour>
    </TTGlyph>
    <TTGlyph name="asterisk" xMin="175" yMin="180" xMax="1295" yMax="1336">
      <contour>
        <pt x="461" y="435" on="1"/>
        <pt x="469" y="353" on="1"/>
        <pt x="469" y="336" on="0"/>
        <pt x="460" y="326" on="1"/>
        <pt x="440" y="302" on="0"/>
        <pt x="409" y="336" on="1"/>
        <pt x="345" y="407" on="0"/>
        <pt x="255" y="430" on="1"/>
        <pt x="205" y="442" on="0"/>
        <pt x="205" y="480" on="1"/>
        <pt x="205" y="501" on="0"/>
        <pt x="242" y="520" on="0"/>
        <pt x="270" y="526" on="1"/>
        <pt x="358" y="546" on="0"/>
        <pt x="407" y="581" on="0"/>
        <pt x="461" y="619" on="0"/>
        <pt x="494" y="642" on="1"/>
        <pt x="645" y="748" on="1"/>
        <pt x="546" y="819" on="0"/>
        <pt x="397" y="905" on="0"/>
        <pt x="392" y="907" on="1"/>
        <pt x="391" y="908" on="1"/>
        <pt x="368" y="918" on="0"/>
        <pt x="335" y="918" on="1"/>
        <pt x="217" y="904" on="1"/>
        <pt x="175" y="904" on="0"/>
        <pt x="175" y="935" on="1"/>
        <pt x="175" y="956" on="0"/>
        <pt x="248" y="1022" on="0"/>
        <pt x="305" y="1094" on="0"/>
        <pt x="326" y="1122" on="1"/>
        <pt x="396" y="1218" on="0"/>
        <pt x="428" y="1172" on="1"/>
        <pt x="445" y="1149" on="0"/>
        <pt x="448" y="1066" on="0"/>
        <pt x="450" y="1042" on="1"/>
        <pt x="457" y="984" on="0"/>
        <pt x="509" y="952" on="0"/>
        <pt x="566" y="905" on="0"/>
        <pt x="594" y="880" on="1"/>
        <pt x="669" y="813" on="0"/>
        <pt x="697" y="795" on="1"/>
        <pt x="697" y="863" on="1"/>
        <pt x="697" y="1022" on="0"/>
        <pt x="688" y="1112" on="1"/>
        <pt x="685" y="1142" on="0"/>
        <pt x="644" y="1192" on="0"/>
        <pt x="617" y="1220" on="0"/>
        <pt x="599" y="1238" on="0"/>
        <pt x="590" y="1248" on="1"/>
        <pt x="571" y="1269" on="0"/>
        <pt x="571" y="1289" on="1"/>
        <pt x="571" y="1331" on="0"/>
        <pt x="629" y="1331" on="1"/>
        <pt x="738" y="1321" on="1"/>
        <pt x="767" y="1321" on="0"/>
        <pt x="812" y="1336" on="0"/>
        <pt x="833" y="1336" on="1"/>
        <pt x="883" y="1336" on="0"/>
        <pt x="883" y="1298" on="1"/>
        <pt x="881" y="1280" on="0"/>
        <pt x="846" y="1229" on="0"/>
        <pt x="814" y="1182" on="0"/>
        <pt x="803" y="1164" on="1"/>
        <pt x="781" y="1129" on="0"/>
        <pt x="779" y="1112" on="0"/>
        <pt x="774" y="1058" on="0"/>
        <pt x="771" y="1017" on="1"/>
        <pt x="763" y="908" on="0"/>
        <pt x="763" y="836" on="1"/>
        <pt x="936" y="977" on="1"/>
        <pt x="1032" y="1062" on="0"/>
        <pt x="1032" y="1121" on="1"/>
        <pt x="1022" y="1215" on="1"/>
        <pt x="1022" y="1258" on="0"/>
        <pt x="1058" y="1258" on="1"/>
        <pt x="1082" y="1258" on="0"/>
        <pt x="1119" y="1226" on="0"/>
        <pt x="1160" y="1179" on="0"/>
        <pt x="1211" y="1126" on="0"/>
        <pt x="1243" y="1108" on="1"/>
        <pt x="1295" y="1080" on="0"/>
        <pt x="1295" y="1036" on="0"/>
        <pt x="1243" y="1019" on="0"/>
        <pt x="1208" y="1014" on="1"/>
        <pt x="1107" y="1000" on="0"/>
        <pt x="1084" y="980" on="1"/>
        <pt x="964" y="894" on="1"/>
        <pt x="933" y="871" on="0"/>
        <pt x="865" y="821" on="0"/>
        <pt x="797" y="771" on="0"/>
        <pt x="768" y="748" on="1"/>
        <pt x="866" y="686" on="0"/>
        <pt x="1007" y="587" on="0"/>
        <pt x="1104" y="535" on="0"/>
        <pt x="1189" y="523" on="0"/>
        <pt x="1255" y="517" on="0"/>
        <pt x="1286" y="502" on="0"/>
        <pt x="1286" y="488" on="1"/>
        <pt x="1286" y="460" on="0"/>
        <pt x="1239" y="418" on="0"/>
        <pt x="1202" y="390" on="0"/>
        <pt x="1184" y="375" on="1"/>
        <pt x="1137" y="337" on="0"/>
        <pt x="1131" y="322" on="1"/>
        <pt x="1132" y="323" on="1"/>
        <pt x="1125" y="304" on="0"/>
        <pt x="1093" y="275" on="0"/>
        <pt x="1078" y="275" on="1"/>
        <pt x="1041" y="275" on="0"/>
        <pt x="1034" y="323" on="1"/>
        <pt x="1024" y="417" on="1"/>
        <pt x="1019" y="465" on="0"/>
        <pt x="1007" y="482" on="1"/>
        <pt x="763" y="665" on="1"/>
        <pt x="763" y="529" on="0"/>
        <pt x="777" y="381" on="0"/>
        <pt x="784" y="354" on="0"/>
        <pt x="820" y="307" on="0"/>
        <pt x="840" y="286" on="1"/>
        <pt x="889" y="231" on="0"/>
        <pt x="889" y="213" on="1"/>
        <pt x="889" y="180" on="0"/>
        <pt x="852" y="180" on="1"/>
        <pt x="849" y="180" on="0"/>
        <pt x="826" y="188" on="1"/>
        <pt x="775" y="204" on="0"/>
        <pt x="675" y="204" on="1"/>
        <pt x="614" y="195" on="1"/>
        <pt x="576" y="195" on="0"/>
        <pt x="576" y="216" on="1"/>
        <pt x="576" y="230" on="0"/>
        <pt x="654" y="314" on="0"/>
        <pt x="690" y="355" on="0"/>
        <pt x="690" y="403" on="0"/>
        <pt x="692" y="487" on="0"/>
        <pt x="692" y="530" on="1"/>
        <pt x="695" y="693" on="1"/>
        <pt x="595" y="616" on="0"/>
        <pt x="542" y="568" on="1"/>
        <pt x="489" y="521" on="1"/>
        <pt x="461" y="498" on="0"/>
      </contour>
    </TTGlyph>
    <TTGlyph name="at" xMin="131" yMin="-230" xMax="2006" yMax="1627">
      <contour>
        <pt x="1765" y="392" on="1"/>
        <pt x="1767" y="422" on="0"/>
        <pt x="1793" y="422" on="1"/>
        <pt x="1813" y="422" on="0"/>
        <pt x="1854" y="359" on="0"/>
        <pt x="1915" y="307" on="0"/>
        <pt x="1969" y="265" on="0"/>
        <pt x="2006" y="230" on="0"/>
        <pt x="2006" y="196" on="0"/>
        <pt x="1984" y="184" on="0"/>
        <pt x="1948" y="179" on="0"/>
        <pt x="1903" y="178" on="0"/>
        <pt x="1880" y="176" on="1"/>
        <pt x="1825" y="170" on="0"/>
        <pt x="1775" y="127" on="0"/>
        <pt x="1695" y="65" on="0"/>
        <pt x="1586" y="-2" on="0"/>
        <pt x="1450" y="-68" on="0"/>
        <pt x="1368" y="-94" on="1"/>
        <pt x="943" y="-230" on="0"/>
        <pt x="578" y="-64" on="1"/>
        <pt x="264" y="78" on="0"/>
        <pt x="165" y="376" on="1"/>
        <pt x="131" y="479" on="0"/>
        <pt x="131" y="789" on="0"/>
        <pt x="218" y="1090" on="0"/>
        <pt x="367" y="1318" on="0"/>
        <pt x="564" y="1479" on="0"/>
        <pt x="675" y="1530" on="1"/>
        <pt x="889" y="1627" on="0"/>
        <pt x="1127" y="1627" on="1"/>
        <pt x="1429" y="1627" on="0"/>
        <pt x="1619" y="1480" on="1"/>
        <pt x="1827" y="1318" on="0"/>
        <pt x="1827" y="1024" on="1"/>
        <pt x="1827" y="821" on="0"/>
        <pt x="1732" y="644" on="1"/>
        <pt x="1652" y="495" on="0"/>
        <pt x="1526" y="396" on="1"/>
        <pt x="1361" y="268" on="0"/>
        <pt x="1248" y="322" on="1"/>
        <pt x="1161" y="363" on="0"/>
        <pt x="1161" y="508" on="1"/>
        <pt x="1161" y="515" on="0"/>
        <pt x="1162" y="523" on="1"/>
        <pt x="1063" y="392" on="0"/>
        <pt x="912" y="340" on="1"/>
        <pt x="807" y="303" on="0"/>
        <pt x="708" y="335" on="1"/>
        <pt x="606" y="368" on="0"/>
        <pt x="554" y="472" on="1"/>
        <pt x="526" y="526" on="0"/>
        <pt x="526" y="701" on="0"/>
        <pt x="575" y="856" on="0"/>
        <pt x="656" y="975" on="0"/>
        <pt x="762" y="1060" on="0"/>
        <pt x="820" y="1087" on="1"/>
        <pt x="932" y="1139" on="0"/>
        <pt x="1179" y="1139" on="0"/>
        <pt x="1254" y="1050" on="1"/>
        <pt x="1272" y="1108" on="0"/>
        <pt x="1258" y="1154" on="0"/>
        <pt x="1237" y="1195" on="0"/>
        <pt x="1220" y="1228" on="0"/>
        <pt x="1216" y="1238" on="1"/>
        <pt x="1207" y="1257" on="0"/>
        <pt x="1207" y="1265" on="1"/>
        <pt x="1207" y="1311" on="0"/>
        <pt x="1264" y="1286" on="1"/>
        <pt x="1332" y="1254" on="0"/>
        <pt x="1454" y="1248" on="1"/>
        <pt x="1512" y="1245" on="0"/>
        <pt x="1512" y="1210" on="1"/>
        <pt x="1512" y="1188" on="0"/>
        <pt x="1468" y="1157" on="0"/>
        <pt x="1413" y="1129" on="0"/>
        <pt x="1362" y="1100" on="0"/>
        <pt x="1344" y="1042" on="0"/>
        <pt x="1321" y="950" on="0"/>
        <pt x="1299" y="855" on="0"/>
        <pt x="1280" y="761" on="0"/>
        <pt x="1272" y="722" on="1"/>
        <pt x="1272" y="722" on="0"/>
        <pt x="1250" y="612" on="1"/>
        <pt x="1240" y="566" on="0"/>
        <pt x="1252" y="479" on="0"/>
        <pt x="1262" y="458" on="1"/>
        <pt x="1300" y="377" on="0"/>
        <pt x="1409" y="432" on="1"/>
        <pt x="1500" y="477" on="0"/>
        <pt x="1584" y="586" on="1"/>
        <pt x="1674" y="702" on="0"/>
        <pt x="1713" y="854" on="1"/>
        <pt x="1763" y="1049" on="0"/>
        <pt x="1697" y="1224" on="1"/>
        <pt x="1622" y="1421" on="0"/>
        <pt x="1388" y="1500" on="1"/>
        <pt x="1269" y="1541" on="0"/>
        <pt x="993" y="1541" on="0"/>
        <pt x="778" y="1486" on="0"/>
        <pt x="582" y="1378" on="0"/>
        <pt x="415" y="1219" on="0"/>
        <pt x="354" y="1114" on="1"/>
        <pt x="224" y="892" on="0"/>
        <pt x="224" y="602" on="1"/>
        <pt x="224" y="355" on="0"/>
        <pt x="360" y="193" on="1"/>
        <pt x="474" y="57" on="0"/>
        <pt x="668" y="-12" on="1"/>
        <pt x="824" y="-67" on="0"/>
        <pt x="1100" y="-67" on="0"/>
        <pt x="1277" y="-35" on="0"/>
        <pt x="1430" y="16" on="0"/>
        <pt x="1557" y="79" on="0"/>
        <pt x="1608" y="111" on="1"/>
        <pt x="1680" y="157" on="0"/>
        <pt x="1753" y="220" on="1"/>
        <pt x="1766" y="233" on="0"/>
        <pt x="1766" y="320" on="1"/>
      </contour>
      <contour>
        <pt x="650" y="756" on="0"/>
        <pt x="633" y="662" on="0"/>
        <pt x="633" y="581" on="0"/>
        <pt x="652" y="506" on="0"/>
        <pt x="673" y="478" on="1"/>
        <pt x="718" y="416" on="0"/>
        <pt x="916" y="416" on="0"/>
        <pt x="1094" y="546" on="0"/>
        <pt x="1159" y="678" on="1"/>
        <pt x="1202" y="844" on="0"/>
        <pt x="1218" y="933" on="0"/>
        <pt x="1223" y="956" on="1"/>
        <pt x="1182" y="1008" on="0"/>
        <pt x="1154" y="1024" on="1"/>
        <pt x="1105" y="1052" on="0"/>
        <pt x="958" y="1052" on="0"/>
        <pt x="839" y="1010" on="0"/>
        <pt x="749" y="941" on="0"/>
        <pt x="688" y="851" on="0"/>
      </contour>
    </TTGlyph>
    <TTGlyph name="atilde" xMin="55" yMin="-3" xMax="1571" yMax="1836">
      <component glyphName="a" x="0" y="0" flags="0x1204"/>
      <component glyphName="tilde" x="176" y="54" flags="0x1004"/>
    </TTGlyph>
    <TTGlyph name="b" xMin="95" yMin="-44" xMax="985" yMax="1704">
      <contour>
        <pt x="164" y="-44" on="1"/>
        <pt x="111" y="-44" on="0"/>
        <pt x="111" y="-5" on="1"/>
        <pt x="112" y="15" on="0"/>
        <pt x="161" y="78" on="0"/>
        <pt x="190" y="117" on="0"/>
        <pt x="202" y="134" on="1"/>
        <pt x="227" y="169" on="0"/>
        <pt x="231" y="192" on="0"/>
        <pt x="231" y="265" on="0"/>
        <pt x="230" y="389" on="0"/>
        <pt x="229" y="554" on="0"/>
        <pt x="228" y="739" on="0"/>
        <pt x="227" y="934" on="0"/>
        <pt x="226" y="1121" on="0"/>
        <pt x="224" y="1288" on="0"/>
        <pt x="223" y="1352" on="1"/>
        <pt x="221" y="1492" on="0"/>
        <pt x="214" y="1529" on="0"/>
        <pt x="155" y="1591" on="0"/>
        <pt x="95" y="1651" on="0"/>
        <pt x="95" y="1673" on="1"/>
        <pt x="95" y="1704" on="0"/>
        <pt x="134" y="1704" on="1"/>
        <pt x="230" y="1693" on="1"/>
        <pt x="287" y="1693" on="0"/>
        <pt x="361" y="1703" on="0"/>
        <pt x="384" y="1703" on="1"/>
        <pt x="435" y="1703" on="0"/>
        <pt x="435" y="1669" on="1"/>
        <pt x="435" y="1647" on="0"/>
        <pt x="379" y="1602" on="0"/>
        <pt x="344" y="1569" on="0"/>
        <pt x="334" y="1556" on="1"/>
        <pt x="316" y="1533" on="0"/>
        <pt x="316" y="1510" on="1"/>
        <pt x="322" y="961" on="1"/>
        <pt x="322" y="774" on="1"/>
        <pt x="398" y="876" on="0"/>
        <pt x="530" y="906" on="1"/>
        <pt x="646" y="932" on="0"/>
        <pt x="764" y="887" on="1"/>
        <pt x="916" y="829" on="0"/>
        <pt x="966" y="664" on="1"/>
        <pt x="985" y="602" on="0"/>
        <pt x="985" y="443" on="0"/>
        <pt x="945" y="334" on="0"/>
        <pt x="880" y="256" on="0"/>
        <pt x="798" y="208" on="0"/>
        <pt x="756" y="194" on="1"/>
        <pt x="568" y="131" on="0"/>
        <pt x="402" y="230" on="1"/>
        <pt x="360" y="254" on="0"/>
        <pt x="326" y="294" on="1"/>
        <pt x="330" y="194" on="0"/>
        <pt x="353" y="132" on="0"/>
        <pt x="385" y="90" on="0"/>
        <pt x="403" y="68" on="1"/>
        <pt x="475" y="-22" on="0"/>
        <pt x="374" y="-22" on="1"/>
        <pt x="349" y="-22" on="1"/>
        <pt x="235" y="-22" on="0"/>
        <pt x="181" y="-44" on="0"/>
      </contour>
      <contour>
        <pt x="371" y="695" on="0"/>
        <pt x="333" y="589" on="0"/>
        <pt x="333" y="478" on="0"/>
        <pt x="361" y="394" on="0"/>
        <pt x="407" y="333" on="0"/>
        <pt x="466" y="293" on="0"/>
        <pt x="497" y="281" on="1"/>
        <pt x="605" y="239" on="0"/>
        <pt x="722" y="276" on="1"/>
        <pt x="888" y="327" on="0"/>
        <pt x="888" y="517" on="1"/>
        <pt x="888" y="742" on="0"/>
        <pt x="718" y="807" on="1"/>
        <pt x="665" y="827" on="0"/>
        <pt x="541" y="827" on="0"/>
        <pt x="442" y="777" on="0"/>
      </contour>
    </TTGlyph>
    <TTGlyph name="backslash" xMin="41" yMin="-372" xMax="1268" yMax="1758">
      <component glyphName="slash" x="1309" y="0" scalex="-0.999938964844" scaley="1.0" flags="0x1004"/>
    </TTGlyph>
    <TTGlyph name="bar" xMin="245" yMin="-331" xMax="546" yMax="1800">
      <contour>
        <pt x="375" y="-319" on="1"/>
        <pt x="283" y="-331" on="1"/>
        <pt x="245" y="-331" on="0"/>
        <pt x="245" y="-294" on="1"/>
        <pt x="245" y="-280" on="0"/>
        <pt x="259" y="-260" on="1"/>
        <pt x="331" y="-186" on="0"/>
        <pt x="339" y="-145" on="1"/>
        <pt x="340" y="19" on="1"/>
        <pt x="344" y="1138" on="1"/>
        <pt x="345" y="1506" on="1"/>
        <pt x="345" y="1605" on="1"/>
        <pt x="345" y="1666" on="0"/>
        <pt x="303" y="1705" on="1"/>
        <pt x="287" y="1720" on="0"/>
        <pt x="261" y="1747" on="0"/>
        <pt x="261" y="1768" on="1"/>
        <pt x="261" y="1800" on="0"/>
        <pt x="331" y="1800" on="0"/>
        <pt x="380" y="1784" on="0"/>
        <pt x="403" y="1784" on="1"/>
        <pt x="501" y="1790" on="1"/>
        <pt x="521" y="1790" on="0"/>
        <pt x="546" y="1771" on="0"/>
        <pt x="546" y="1758" on="1"/>
        <pt x="546" y="1731" on="0"/>
        <pt x="504" y="1705" on="1"/>
        <pt x="468" y="1685" on="0"/>
        <pt x="446" y="1638" on="1"/>
        <pt x="441" y="1627" on="0"/>
        <pt x="441" y="1621" on="1"/>
        <pt x="438" y="540" on="1"/>
        <pt x="438" y="120" on="0"/>
        <pt x="443" y="-135" on="1"/>
        <pt x="443" y="-176" on="0"/>
        <pt x="492" y="-224" on="1"/>
        <pt x="510" y="-241" on="0"/>
        <pt x="540" y="-273" on="0"/>
        <pt x="540" y="-294" on="1"/>
        <pt x="540" y="-327" on="0"/>
        <pt x="494" y="-327" on="1"/>
      </contour>
    </TTGlyph>
    <TTGlyph name="braceleft" xMin="185" yMin="-376" xMax="1119" yMax="1944">
      <contour>
        <pt x="1075" y="-376" on="1"/>
        <pt x="1037" y="-376" on="0"/>
        <pt x="996" y="-331" on="1"/>
        <pt x="968" y="-301" on="0"/>
        <pt x="920" y="-289" on="1"/>
        <pt x="812" y="-260" on="0"/>
        <pt x="781" y="-242" on="1"/>
        <pt x="619" y="-151" on="0"/>
        <pt x="540" y="30" on="1"/>
        <pt x="479" y="169" on="0"/>
        <pt x="438" y="455" on="1"/>
        <pt x="416" y="611" on="0"/>
        <pt x="379" y="681" on="0"/>
        <pt x="329" y="719" on="0"/>
        <pt x="267" y="752" on="0"/>
        <pt x="231" y="762" on="0"/>
        <pt x="216" y="768" on="1"/>
        <pt x="185" y="779" on="0"/>
        <pt x="185" y="809" on="1"/>
        <pt x="185" y="837" on="0"/>
        <pt x="224" y="848" on="1"/>
        <pt x="360" y="886" on="0"/>
        <pt x="418" y="976" on="1"/>
        <pt x="480" y="1072" on="0"/>
        <pt x="488" y="1264" on="1"/>
        <pt x="492" y="1356" on="0"/>
        <pt x="503" y="1566" on="0"/>
        <pt x="555" y="1704" on="0"/>
        <pt x="592" y="1752" on="1"/>
        <pt x="670" y="1853" on="0"/>
        <pt x="809" y="1881" on="1"/>
        <pt x="899" y="1899" on="0"/>
        <pt x="974" y="1944" on="0"/>
        <pt x="987" y="1944" on="1"/>
        <pt x="1019" y="1944" on="0"/>
        <pt x="1006" y="1888" on="1"/>
        <pt x="992" y="1830" on="1"/>
        <pt x="990" y="1818" on="0"/>
        <pt x="984" y="1756" on="1"/>
        <pt x="974" y="1653" on="0"/>
        <pt x="935" y="1653" on="1"/>
        <pt x="909" y="1653" on="0"/>
        <pt x="881" y="1698" on="0"/>
        <pt x="865" y="1729" on="0"/>
        <pt x="854" y="1742" on="1"/>
        <pt x="830" y="1774" on="0"/>
        <pt x="772" y="1774" on="0"/>
        <pt x="734" y="1748" on="0"/>
        <pt x="688" y="1708" on="0"/>
        <pt x="652" y="1665" on="0"/>
        <pt x="636" y="1630" on="1"/>
        <pt x="601" y="1550" on="0"/>
        <pt x="601" y="1429" on="1"/>
        <pt x="601" y="1225" on="0"/>
        <pt x="544" y="1005" on="1"/>
        <pt x="521" y="912" on="0"/>
        <pt x="444" y="849" on="1"/>
        <pt x="411" y="822" on="0"/>
        <pt x="372" y="805" on="1"/>
        <pt x="479" y="743" on="0"/>
        <pt x="507" y="670" on="1"/>
        <pt x="525" y="621" on="0"/>
        <pt x="537" y="511" on="0"/>
        <pt x="553" y="418" on="0"/>
        <pt x="576" y="292" on="0"/>
        <pt x="590" y="232" on="1"/>
        <pt x="620" y="98" on="0"/>
        <pt x="673" y="-12" on="0"/>
        <pt x="733" y="-88" on="0"/>
        <pt x="769" y="-118" on="1"/>
        <pt x="848" y="-184" on="0"/>
        <pt x="919" y="-184" on="1"/>
        <pt x="959" y="-184" on="0"/>
        <pt x="1015" y="-81" on="1"/>
        <pt x="1033" y="-48" on="0"/>
        <pt x="1069" y="-48" on="0"/>
        <pt x="1080" y="-64" on="1"/>
        <pt x="1096" y="-87" on="0"/>
        <pt x="1090" y="-106" on="1"/>
        <pt x="1071" y="-166" on="0"/>
        <pt x="1079" y="-211" on="1"/>
        <pt x="1088" y="-259" on="0"/>
        <pt x="1119" y="-376" on="0"/>
      </contour>
    </TTGlyph>
    <TTGlyph name="braceright" xMin="146" yMin="-373" xMax="1080" yMax="1947">
      <component glyphName="braceleft" x="1265" y="1571" scale="-0.999938964844" flags="0x1004"/>
    </TTGlyph>
    <TTGlyph name="bracketleft" xMin="200" yMin="-434" xMax="750" yMax="2095">
      <contour>
        <pt x="298" y="-313" on="1"/>
        <pt x="227" y="-313" on="0"/>
        <pt x="227" y="-267" on="1"/>
        <pt x="238" y="-199" on="1"/>
        <pt x="241" y="-180" on="0"/>
        <pt x="241" y="21" on="1"/>
        <pt x="238" y="577" on="1"/>
        <pt x="238" y="792" on="0"/>
        <pt x="215" y="1402" on="0"/>
        <pt x="209" y="1597" on="0"/>
        <pt x="206" y="1674" on="1"/>
        <pt x="200" y="1830" on="0"/>
        <pt x="200" y="1866" on="1"/>
        <pt x="200" y="1928" on="0"/>
        <pt x="254" y="1928" on="1"/>
        <pt x="328" y="1930" on="1"/>
        <pt x="490" y="1933" on="0"/>
        <pt x="531" y="1941" on="0"/>
        <pt x="565" y="1967" on="0"/>
        <pt x="584" y="1986" on="1"/>
        <pt x="668" y="2074" on="1"/>
        <pt x="689" y="2095" on="0"/>
        <pt x="727" y="2095" on="0"/>
        <pt x="737" y="2069" on="0"/>
        <pt x="737" y="2043" on="1"/>
        <pt x="734" y="1902" on="1"/>
        <pt x="734" y="1811" on="0"/>
        <pt x="750" y="1726" on="0"/>
        <pt x="750" y="1698" on="0"/>
        <pt x="727" y="1680" on="0"/>
        <pt x="710" y="1680" on="0"/>
        <pt x="690" y="1696" on="0"/>
        <pt x="680" y="1707" on="1"/>
        <pt x="644" y="1753" on="1"/>
        <pt x="570" y="1833" on="0"/>
        <pt x="514" y="1837" on="1"/>
        <pt x="506" y="1838" on="0"/>
        <pt x="492" y="1838" on="1"/>
        <pt x="459" y="1838" on="1"/>
        <pt x="356" y="1837" on="1"/>
        <pt x="329" y="1836" on="0"/>
        <pt x="302" y="1836" on="1"/>
        <pt x="304" y="1802" on="1"/>
        <pt x="312" y="1568" on="1"/>
        <pt x="312" y="1565" on="0"/>
        <pt x="319" y="1334" on="1"/>
        <pt x="329" y="1002" on="1"/>
        <pt x="338" y="632" on="1"/>
        <pt x="342" y="470" on="0"/>
        <pt x="342" y="232" on="0"/>
        <pt x="324" y="-218" on="1"/>
        <pt x="411" y="-218" on="1"/>
        <pt x="524" y="-217" on="1"/>
        <pt x="566" y="-217" on="0"/>
        <pt x="644" y="-169" on="0"/>
        <pt x="672" y="-148" on="1"/>
        <pt x="740" y="-99" on="0"/>
        <pt x="740" y="-172" on="1"/>
        <pt x="731" y="-287" on="1"/>
        <pt x="736" y="-393" on="1"/>
        <pt x="736" y="-434" on="0"/>
        <pt x="714" y="-434" on="1"/>
        <pt x="697" y="-434" on="0"/>
        <pt x="662" y="-396" on="0"/>
        <pt x="627" y="-369" on="0"/>
        <pt x="608" y="-357" on="1"/>
        <pt x="546" y="-318" on="0"/>
        <pt x="487" y="-314" on="0"/>
        <pt x="418" y="-313" on="0"/>
        <pt x="378" y="-313" on="1"/>
      </contour>
    </TTGlyph>
    <TTGlyph name="bracketright" xMin="200" yMin="-439" xMax="723" yMax="1980">
      <contour>
        <pt x="723" y="-249" on="1"/>
        <pt x="723" y="-295" on="0"/>
        <pt x="652" y="-295" on="1"/>
        <pt x="487" y="-295" on="0"/>
        <pt x="432" y="-328" on="1"/>
        <pt x="359" y="-372" on="0"/>
        <pt x="333" y="-409" on="1"/>
        <pt x="312" y="-439" on="0"/>
        <pt x="293" y="-439" on="1"/>
        <pt x="270" y="-439" on="0"/>
        <pt x="268" y="-386" on="1"/>
        <pt x="264" y="-282" on="0"/>
        <pt x="256" y="-247" on="1"/>
        <pt x="241" y="-186" on="0"/>
        <pt x="241" y="-168" on="1"/>
        <pt x="241" y="-114" on="0"/>
        <pt x="300" y="-148" on="1"/>
        <pt x="397" y="-204" on="0"/>
        <pt x="446" y="-204" on="1"/>
        <pt x="560" y="-200" on="0"/>
        <pt x="626" y="-200" on="1"/>
        <pt x="580" y="348" on="0"/>
        <pt x="580" y="738" on="1"/>
        <pt x="583" y="1145" on="1"/>
        <pt x="583" y="1322" on="0"/>
        <pt x="578" y="1722" on="1"/>
        <pt x="476" y="1720" on="1"/>
        <pt x="414" y="1718" on="0"/>
        <pt x="383" y="1700" on="1"/>
        <pt x="335" y="1670" on="0"/>
        <pt x="298" y="1630" on="0"/>
        <pt x="275" y="1604" on="0"/>
        <pt x="263" y="1593" on="1"/>
        <pt x="200" y="1535" on="0"/>
        <pt x="200" y="1601" on="1"/>
        <pt x="212" y="1764" on="1"/>
        <pt x="214" y="1830" on="0"/>
        <pt x="214" y="1875" on="1"/>
        <pt x="213" y="1929" on="1"/>
        <pt x="213" y="1980" on="0"/>
        <pt x="230" y="1980" on="1"/>
        <pt x="242" y="1980" on="0"/>
        <pt x="284" y="1937" on="0"/>
        <pt x="333" y="1891" on="0"/>
        <pt x="356" y="1872" on="1"/>
        <pt x="407" y="1829" on="0"/>
        <pt x="433" y="1824" on="1"/>
        <pt x="480" y="1814" on="0"/>
        <pt x="626" y="1814" on="1"/>
        <pt x="650" y="1814" on="0"/>
        <pt x="680" y="1789" on="0"/>
        <pt x="680" y="1748" on="1"/>
        <pt x="689" y="825" on="1"/>
        <pt x="689" y="379" on="0"/>
        <pt x="711" y="-171" on="0"/>
        <pt x="712" y="-184" on="1"/>
      </contour>
    </TTGlyph>
    <TTGlyph name="breve" xMin="78" yMin="1467" xMax="1017" yMax="1908">
      <contour>
        <pt x="772" y="1735" on="1"/>
        <pt x="751" y="1847" on="1"/>
        <pt x="751" y="1870" on="0"/>
        <pt x="774" y="1893" on="0"/>
        <pt x="807" y="1893" on="0"/>
        <pt x="837" y="1871" on="0"/>
        <pt x="854" y="1854" on="1"/>
        <pt x="901" y="1807" on="0"/>
        <pt x="947" y="1786" on="1"/>
        <pt x="1017" y="1753" on="0"/>
        <pt x="982" y="1716" on="1"/>
        <pt x="968" y="1701" on="0"/>
        <pt x="899" y="1690" on="0"/>
        <pt x="886" y="1687" on="1"/>
        <pt x="859" y="1681" on="0"/>
        <pt x="843" y="1663" on="1"/>
        <pt x="806" y="1574" on="0"/>
        <pt x="663" y="1467" on="0"/>
        <pt x="497" y="1467" on="0"/>
        <pt x="393" y="1507" on="0"/>
        <pt x="354" y="1538" on="1"/>
        <pt x="277" y="1600" on="0"/>
        <pt x="247" y="1684" on="1"/>
        <pt x="233" y="1721" on="0"/>
        <pt x="175" y="1729" on="1"/>
        <pt x="78" y="1743" on="0"/>
        <pt x="78" y="1778" on="1"/>
        <pt x="78" y="1789" on="0"/>
        <pt x="100" y="1816" on="0"/>
        <pt x="158" y="1825" on="0"/>
        <pt x="209" y="1853" on="0"/>
        <pt x="232" y="1868" on="1"/>
        <pt x="292" y="1908" on="0"/>
        <pt x="310" y="1908" on="1"/>
        <pt x="346" y="1908" on="0"/>
        <pt x="346" y="1871" on="1"/>
        <pt x="320" y="1798" on="1"/>
        <pt x="307" y="1758" on="0"/>
        <pt x="345" y="1696" on="0"/>
        <pt x="387" y="1634" on="0"/>
        <pt x="414" y="1610" on="1"/>
        <pt x="477" y="1554" on="0"/>
        <pt x="613" y="1554" on="0"/>
        <pt x="679" y="1583" on="0"/>
        <pt x="723" y="1629" on="0"/>
        <pt x="752" y="1687" on="0"/>
        <pt x="769" y="1717" on="1"/>
        <pt x="772" y="1726" on="0"/>
      </contour>
    </TTGlyph>
    <TTGlyph name="breve.cap" xMin="78" yMin="1617" xMax="1017" yMax="2058">
      <contour>
        <pt x="772" y="1885" on="1"/>
        <pt x="751" y="1997" on="1"/>
        <pt x="751" y="2020" on="0"/>
        <pt x="774" y="2043" on="0"/>
        <pt x="807" y="2043" on="0"/>
        <pt x="837" y="2021" on="0"/>
        <pt x="854" y="2004" on="1"/>
        <pt x="901" y="1957" on="0"/>
        <pt x="947" y="1936" on="1"/>
        <pt x="1017" y="1903" on="0"/>
        <pt x="982" y="1866" on="1"/>
        <pt x="968" y="1851" on="0"/>
        <pt x="899" y="1840" on="0"/>
        <pt x="886" y="1837" on="1"/>
        <pt x="859" y="1831" on="0"/>
        <pt x="843" y="1813" on="1"/>
        <pt x="806" y="1724" on="0"/>
        <pt x="663" y="1617" on="0"/>
        <pt x="497" y="1617" on="0"/>
        <pt x="393" y="1657" on="0"/>
        <pt x="354" y="1688" on="1"/>
        <pt x="277" y="1750" on="0"/>
        <pt x="247" y="1834" on="1"/>
        <pt x="233" y="1871" on="0"/>
        <pt x="175" y="1879" on="1"/>
        <pt x="78" y="1893" on="0"/>
        <pt x="78" y="1928" on="1"/>
        <pt x="78" y="1939" on="0"/>
        <pt x="100" y="1966" on="0"/>
        <pt x="158" y="1975" on="0"/>
        <pt x="209" y="2003" on="0"/>
        <pt x="232" y="2018" on="1"/>
        <pt x="292" y="2058" on="0"/>
        <pt x="310" y="2058" on="1"/>
        <pt x="346" y="2058" on="0"/>
        <pt x="346" y="2021" on="1"/>
        <pt x="320" y="1948" on="1"/>
        <pt x="307" y="1908" on="0"/>
        <pt x="345" y="1846" on="0"/>
        <pt x="387" y="1784" on="0"/>
        <pt x="414" y="1760" on="1"/>
        <pt x="477" y="1704" on="0"/>
        <pt x="613" y="1704" on="0"/>
        <pt x="679" y="1733" on="0"/>
        <pt x="723" y="1779" on="0"/>
        <pt x="752" y="1837" on="0"/>
        <pt x="769" y="1867" on="1"/>
        <pt x="772" y="1876" on="0"/>
      </contour>
    </TTGlyph>
    <TTGlyph name="brokenbar" xMin="245" yMin="-344" xMax="546" yMax="1800">
      <contour>
        <pt x="375" y="985" on="1"/>
        <pt x="283" y="973" on="1"/>
        <pt x="245" y="973" on="0"/>
        <pt x="245" y="1010" on="1"/>
        <pt x="245" y="1024" on="0"/>
        <pt x="259" y="1044" on="1"/>
        <pt x="331" y="1118" on="0"/>
        <pt x="339" y="1159" on="1"/>
        <pt x="339" y="1159" on="0"/>
        <pt x="345" y="1605" on="1"/>
        <pt x="345" y="1666" on="0"/>
        <pt x="303" y="1705" on="1"/>
        <pt x="287" y="1720" on="0"/>
        <pt x="261" y="1747" on="0"/>
        <pt x="261" y="1768" on="1"/>
        <pt x="261" y="1800" on="0"/>
        <pt x="331" y="1800" on="0"/>
        <pt x="380" y="1784" on="0"/>
        <pt x="403" y="1784" on="1"/>
        <pt x="501" y="1790" on="1"/>
        <pt x="521" y="1790" on="0"/>
        <pt x="546" y="1771" on="0"/>
        <pt x="546" y="1758" on="1"/>
        <pt x="546" y="1731" on="0"/>
        <pt x="504" y="1705" on="1"/>
        <pt x="468" y="1685" on="0"/>
        <pt x="446" y="1638" on="1"/>
        <pt x="441" y="1627" on="0"/>
        <pt x="441" y="1621" on="1"/>
        <pt x="443" y="1169" on="1"/>
        <pt x="444" y="1127" on="0"/>
        <pt x="492" y="1080" on="1"/>
        <pt x="510" y="1063" on="0"/>
        <pt x="540" y="1031" on="0"/>
        <pt x="540" y="1010" on="1"/>
        <pt x="540" y="977" on="0"/>
        <pt x="494" y="977" on="1"/>
      </contour>
      <contour>
        <pt x="375" y="-332" on="1"/>
        <pt x="283" y="-344" on="1"/>
        <pt x="245" y="-344" on="0"/>
        <pt x="245" y="-307" on="1"/>
        <pt x="245" y="-293" on="0"/>
        <pt x="259" y="-273" on="1"/>
        <pt x="331" y="-199" on="0"/>
        <pt x="339" y="-158" on="1"/>
        <pt x="345" y="288" on="1"/>
        <pt x="345" y="349" on="0"/>
        <pt x="303" y="388" on="1"/>
        <pt x="287" y="403" on="0"/>
        <pt x="261" y="430" on="0"/>
        <pt x="261" y="451" on="1"/>
        <pt x="261" y="483" on="0"/>
        <pt x="331" y="483" on="0"/>
        <pt x="380" y="467" on="0"/>
        <pt x="403" y="467" on="1"/>
        <pt x="501" y="473" on="1"/>
        <pt x="521" y="473" on="0"/>
        <pt x="546" y="454" on="0"/>
        <pt x="546" y="442" on="1"/>
        <pt x="546" y="414" on="0"/>
        <pt x="504" y="388" on="1"/>
        <pt x="468" y="368" on="0"/>
        <pt x="446" y="320" on="1"/>
        <pt x="441" y="310" on="0"/>
        <pt x="441" y="304" on="1"/>
        <pt x="443" y="-148" on="1"/>
        <pt x="444" y="-190" on="0"/>
        <pt x="492" y="-236" on="1"/>
        <pt x="510" y="-254" on="0"/>
        <pt x="540" y="-286" on="0"/>
        <pt x="540" y="-307" on="1"/>
        <pt x="540" y="-340" on="0"/>
        <pt x="494" y="-340" on="1"/>
      </contour>
    </TTGlyph>
    <TTGlyph name="bullet" xMin="290" yMin="708" xMax="827" yMax="1118">
      <contour>
        <pt x="300" y="1059" on="1"/>
        <pt x="290" y="1118" on="0"/>
        <pt x="352" y="1118" on="1"/>
        <pt x="454" y="1104" on="1"/>
        <pt x="564" y="1095" on="0"/>
        <pt x="710" y="1095" on="0"/>
        <pt x="745" y="1090" on="0"/>
        <pt x="760" y="1084" on="1"/>
        <pt x="827" y="1058" on="0"/>
        <pt x="773" y="986" on="1"/>
        <pt x="749" y="954" on="0"/>
        <pt x="622" y="817" on="0"/>
        <pt x="607" y="791" on="1"/>
        <pt x="559" y="708" on="0"/>
        <pt x="520" y="742" on="1"/>
        <pt x="507" y="754" on="0"/>
        <pt x="488" y="790" on="0"/>
        <pt x="466" y="822" on="0"/>
        <pt x="451" y="842" on="1"/>
        <pt x="327" y="1003" on="0"/>
        <pt x="301" y="1050" on="0"/>
      </contour>
    </TTGlyph>
</ttFont>
